<?xml version="1.0" encoding="utf-8"?>
<svg version="1.1" xmlns:xlink="http://www.w3.org/1999/xlink" width="5px" height="10px" xmlns="http://www.w3.org/2000/svg">
  <g transform="matrix(1 0 0 1 -398 -127 )">
    <path d="M 4.9072265625 6.044034090909092  C 4.969075520833334 6.133996212121211  5 6.240530303030303  5 6.363636363636363  C 5 6.486742424242424  4.969075520833334 6.593276515151514  4.9072265625 6.683238636363637  L 2.7197265625 9.865056818181818  C 2.657877604166667 9.955018939393941  2.584635416666667 10  2.5 10  C 2.415364583333334 10  2.342122395833334 9.955018939393941  2.2802734375 9.865056818181818  L 0.0927734375 6.683238636363637  C 0.030924479166666664 6.593276515151514  0 6.486742424242424  0 6.363636363636363  C 0 6.240530303030303  0.030924479166666664 6.133996212121211  0.0927734375 6.044034090909092  C 0.15462239583333334 5.954071969696969  0.22786458333333337 5.909090909090908  0.3125 5.909090909090908  L 4.6875 5.909090909090908  C 4.772135416666667 5.909090909090908  4.845377604166667 5.954071969696969  4.9072265625 6.044034090909092  Z M 4.9072265625 3.3167613636363633  C 4.969075520833334 3.406723484848484  5 3.5132575757575744  5 3.6363636363636367  C 5 3.7594696969696964  4.969075520833334 3.866003787878788  4.9072265625 3.955965909090909  C 4.845377604166667 4.045928030303031  4.772135416666667 4.090909090909091  4.6875 4.090909090909091  L 0.3125 4.090909090909091  C 0.22786458333333337 4.090909090909091  0.15462239583333334 4.045928030303031  0.0927734375 3.955965909090909  C 0.030924479166666664 3.866003787878788  0 3.7594696969696964  0 3.6363636363636367  C 0 3.5132575757575744  0.030924479166666664 3.406723484848484  0.0927734375 3.3167613636363633  L 2.2802734375 0.13494318181818232  C 2.342122395833334 0.044981060606059664  2.415364583333334 0  2.5 0  C 2.584635416666667 0  2.657877604166667 0.044981060606059664  2.7197265625 0.13494318181818232  L 4.9072265625 3.3167613636363633  Z " fill-rule="nonzero" fill="#7f7f7f" stroke="none" transform="matrix(1 0 0 1 398 127 )" />
  </g>
</svg>