<?xml version="1.0" encoding="utf-8"?>
<svg version="1.1" xmlns:xlink="http://www.w3.org/1999/xlink" width="48px" height="50px" xmlns="http://www.w3.org/2000/svg">
  <g transform="matrix(1 0 0 1 -488 -497 )">
    <path d="M 28.422360248447205 23.847695390781563  C 28.753623188405804 24.181696726786907  28.919254658385093 24.565798263193052  28.919254658385093 25  C 28.919254658385093 25.434201736806944  28.753623188405804 25.81830327321309  28.422360248447205 26.152304609218437  L 5.267080745341615 49.498997995991985  C 4.9358178053830235 49.83299933199733  4.554865424430642 50  4.124223602484472 50  C 3.693581780538303 50  3.312629399585921 49.83299933199733  2.981366459627329 49.498997995991985  L 0.4968944099378882 46.9939879759519  C 0.16563146997929618 46.65998663994655  0 46.27588510354042  0 45.84168336673346  C 0 45.407481629926515  0.16563146997929618 45.02338009352037  0.4968944099378882 44.68937875751503  L 20.024844720496894 25  L 0.4968944099378882 5.31062124248497  C 0.16563146997929618 4.976619906479623  0 4.592518370073479  0 4.1583166332665344  C 0 3.7241148964595796  0.16563146997929618 3.340013360053434  0.4968944099378882 3.0060120240480934  L 2.981366459627329 0.5010020040080165  C 3.312629399585921 0.16700066800267033  3.693581780538303 0  4.124223602484472 0  C 4.554865424430642 0  4.9358178053830235 0.16700066800267033  5.267080745341615 0.5010020040080165  L 28.422360248447205 23.847695390781563  Z M 47.50310559006211 23.847695390781563  C 47.83436853002071 24.181696726786907  48 24.565798263193052  48 25  C 48 25.434201736806944  47.83436853002071 25.81830327321309  47.50310559006211 26.152304609218437  L 24.347826086956523 49.498997995991985  C 24.01656314699793 49.83299933199733  23.63561076604555 50  23.204968944099377 50  C 22.77432712215321 50  22.39337474120083 49.83299933199733  22.062111801242235 49.498997995991985  L 19.577639751552795 46.9939879759519  C 19.246376811594207 46.65998663994655  19.080745341614907 46.27588510354042  19.080745341614907 45.84168336673346  C 19.080745341614907 45.407481629926515  19.246376811594207 45.02338009352037  19.577639751552795 44.68937875751503  L 39.1055900621118 25  L 19.577639751552795 5.31062124248497  C 19.246376811594207 4.976619906479623  19.080745341614907 4.592518370073479  19.080745341614907 4.1583166332665344  C 19.080745341614907 3.7241148964595796  19.246376811594207 3.340013360053434  19.577639751552795 3.0060120240480934  L 22.062111801242235 0.5010020040080165  C 22.39337474120083 0.16700066800267033  22.77432712215321 0  23.204968944099377 0  C 23.63561076604555 0  24.01656314699793 0.16700066800267033  24.347826086956523 0.5010020040080165  L 47.50310559006211 23.847695390781563  Z " fill-rule="nonzero" fill="#000000" stroke="none" transform="matrix(1 0 0 1 488 497 )" />
  </g>
</svg>