<?xml version="1.0" encoding="utf-8"?>
<svg version="1.1" xmlns:xlink="http://www.w3.org/1999/xlink" width="12px" height="12px" viewBox="291 975  12 12" xmlns="http://www.w3.org/2000/svg">
  <path d="M 297 975  C 300.36 975  303 977.64  303 981  C 303 984.36  300.36 987  297 987  C 293.64 987  291 984.36  291 981  C 291 977.64  293.64 975  297 975  Z " fill-rule="nonzero" fill="#ffffff" stroke="none" />
  <path d="M 297 975.5  C 300.08 975.5  302.5 977.92  302.5 981  C 302.5 984.08  300.08 986.5  297 986.5  C 293.92 986.5  291.5 984.08  291.5 981  C 291.5 977.92  293.92 975.5  297 975.5  Z " stroke-width="1" stroke="#797979" fill="none" />
  <path d="M 297 984  C 295.32 984  294 982.68  294 981  C 294 979.32  295.32 978  297 978  C 298.68 978  300 979.32  300 981  C 300 982.68  298.68 984  297 984  " fill-rule="nonzero" fill="#797979" stroke="none" />
</svg>