<?xml version="1.0" encoding="utf-8"?>
<svg version="1.1" xmlns:xlink="http://www.w3.org/1999/xlink" width="12px" height="12px" viewBox="179 347  12 12" xmlns="http://www.w3.org/2000/svg">
  <path d="M 185 347  C 188.36 347  191 349.64  191 353  C 191 356.36  188.36 359  185 359  C 181.64 359  179 356.36  179 353  C 179 349.64  181.64 347  185 347  Z " fill-rule="nonzero" fill="#ffffff" stroke="none" />
  <path d="M 185 347.5  C 188.08 347.5  190.5 349.92  190.5 353  C 190.5 356.08  188.08 358.5  185 358.5  C 181.92 358.5  179.5 356.08  179.5 353  C 179.5 349.92  181.92 347.5  185 347.5  Z " stroke-width="1" stroke="#797979" fill="none" />
  <path d="M 185 356  C 183.32 356  182 354.68  182 353  C 182 351.32  183.32 350  185 350  C 186.68 350  188 351.32  188 353  C 188 354.68  186.68 356  185 356  " fill-rule="nonzero" fill="#797979" stroke="none" />
</svg>