<?xml version="1.0" encoding="utf-8"?>
<svg version="1.1" xmlns:xlink="http://www.w3.org/1999/xlink" width="18px" height="18px" xmlns="http://www.w3.org/2000/svg">
  <g transform="matrix(1 0 0 1 -397 -278 )">
    <path d="M 10.39453125 14.89453125  C 10.46484375 14.82421875  10.5 14.734375  10.5 14.625  L 10.5 12.375  C 10.5 12.265624999999996  10.46484375 12.175781250000002  10.39453125 12.105468750000002  C 10.32421875 12.035156250000002  10.234375000000002 12.000000000000002  10.125 12.000000000000002  L 7.875 12.000000000000002  C 7.765625000000001 12.000000000000002  7.67578125 12.035156250000002  7.60546875 12.105468750000002  C 7.53515625 12.175781250000002  7.5 12.265624999999996  7.5 12.375  L 7.5 14.625  C 7.5 14.734375  7.53515625 14.82421875  7.60546875 14.89453125  C 7.67578125 14.96484375  7.765625000000001 15  7.875 15  L 10.125 15  C 10.234375000000002 15  10.32421875 14.96484375  10.39453125 14.89453125  Z M 13.353515625 7.69921875  C 13.451171875000002 7.41015625  13.5 7.09375  13.5 6.75  C 13.5 6.062499999999998  13.283203125 5.425781249999999  12.849609375 4.839843750000001  C 12.416015625 4.25390625  11.875000000000002 3.800781249999999  11.2265625 3.48046875  C 10.578125 3.160156249999999  9.9140625 2.999999999999999  9.234375 2.999999999999999  C 7.3359375 2.999999999999999  5.88671875 3.83203125  4.88671875 5.496093749999999  C 4.769531250000001 5.683593750000001  4.800781250000001 5.847656249999999  4.98046875 5.988281249999999  L 6.52734375 7.160156250000001  C 6.582031250000001 7.20703125  6.65625 7.230468750000001  6.75 7.230468750000001  C 6.875000000000001 7.230468750000001  6.97265625 7.183593749999999  7.04296875 7.089843750000001  C 7.45703125 6.55859375  7.79296875 6.199218749999999  8.05078125 6.01171875  C 8.31640625 5.824218750000001  8.65234375 5.73046875  9.05859375 5.73046875  C 9.43359375 5.73046875  9.767578125 5.832031249999999  10.060546875 6.035156250000001  C 10.353515625 6.238281249999998  10.5 6.468749999999998  10.5 6.726562499999999  C 10.5 7.0234375  10.421875 7.26171875  10.265625 7.441406250000001  C 10.109375000000002 7.62109375  9.84375 7.796875  9.46875 7.968750000000001  C 8.9765625 8.187499999999998  8.525390625 8.525390625  8.115234375 8.982421875  C 7.705078125 9.439453125  7.5 9.9296875  7.5 10.453125000000002  L 7.5 10.875000000000002  C 7.5 10.984375  7.53515625 11.07421875  7.60546875 11.14453125  C 7.67578125 11.21484375  7.765625000000001 11.25  7.875 11.25  L 10.125 11.25  C 10.234375000000002 11.25  10.32421875 11.21484375  10.39453125 11.14453125  C 10.46484375 11.07421875  10.5 10.984375  10.5 10.875000000000002  C 10.5 10.7265625  10.583984375000002 10.533203125  10.751953125 10.294921875000002  C 10.919921875000002 10.056640625  11.1328125 9.86328125  11.390625 9.714843750000002  C 11.640625000000002 9.574218750000002  11.832031250000002 9.462890624999998  11.96484375 9.380859375000002  C 12.097656250000002 9.298828125  12.27734375 9.162109375  12.50390625 8.970703125  C 12.730468750000002 8.779296875  12.904296875000002 8.591796874999998  13.025390625 8.408203125  C 13.146484375000002 8.224609374999998  13.255859375000002 7.98828125  13.353515625 7.69921875  Z M 16.79296875 4.482421875  C 17.597656249999996 5.861328124999998  18 7.367187499999997  18 9  C 18 10.6328125  17.597656249999996 12.138671874999998  16.79296875 13.517578125  C 15.988281250000002 14.896484375  14.896484375 15.98828125  13.517578125 16.79296875  C 12.138671875000002 17.59765625  10.6328125 18  9 18  C 7.367187500000001 18  5.861328125 17.59765625  4.482421875 16.79296875  C 3.1035156250000004 15.98828125  2.01171875 14.896484375  1.20703125 13.517578125  C 0.40234374999999994 12.138671874999998  0 10.6328125  0 9  C 0 7.367187499999997  0.40234374999999994 5.861328124999998  1.20703125 4.482421875  C 2.01171875 3.103515625  3.1035156250000004 2.0117187499999982  4.482421875 1.2070312499999993  C 5.861328125 0.40234374999999845  7.367187500000001 0  9 0  C 10.6328125 0  12.138671875000002 0.40234374999999845  13.517578125 1.2070312499999993  C 14.896484375 2.0117187499999982  15.988281250000002 3.103515625  16.79296875 4.482421875  Z " fill-rule="nonzero" fill="#555555" stroke="none" transform="matrix(1 0 0 1 397 278 )" />
  </g>
</svg>