<?xml version="1.0" encoding="utf-8"?>
<svg version="1.1" xmlns:xlink="http://www.w3.org/1999/xlink" width="40px" height="25px" xmlns="http://www.w3.org/2000/svg">
  <g>
    <path d="M 21.708984375 16.376953125  C 22.236328125 15.146484375  22.5 13.854166666666664  22.5 12.5  C 22.5 11.145833333333332  22.236328125 9.853515625  21.708984375 8.623046875000002  C 21.181640625 7.392578124999999  20.46875 6.328124999999998  19.5703125 5.429687499999999  C 18.671875000000004 4.531250000000001  17.607421875000004 3.8183593749999996  16.376953125 3.291015624999999  C 15.146484375 2.763671875000001  13.854166666666668 2.4999999999999996  12.5 2.4999999999999996  C 11.145833333333336 2.4999999999999996  9.853515625 2.763671875000001  8.623046875 3.291015624999999  C 7.392578125 3.8183593749999996  6.328125 4.531250000000001  5.4296875 5.429687499999999  C 4.53125 6.328124999999998  3.818359375 7.392578124999999  3.291015625 8.623046875000002  C 2.763671875 9.853515625  2.5 11.145833333333332  2.5 12.5  C 2.5 13.854166666666664  2.763671875 15.146484375  3.291015625 16.376953125  C 3.818359375 17.607421875  4.53125 18.671875  5.4296875 19.5703125  C 6.328125 20.46875  7.392578125 21.181640625  8.623046875 21.708984375  C 9.853515625 22.236328125  11.145833333333336 22.5  12.5 22.5  C 13.854166666666668 22.5  15.146484375 22.236328125  16.376953125 21.708984375  C 17.607421875000004 21.181640625  18.671875000000004 20.46875  19.5703125 19.5703125  C 20.46875 18.671875  21.181640625 17.607421875  21.708984375 16.376953125  Z M 36.708984375 16.376953125  C 37.23632812500001 15.146484375  37.50000000000001 13.854166666666664  37.5 12.5  C 37.50000000000001 11.145833333333332  37.23632812500001 9.853515625  36.708984375 8.623046875000002  C 36.18164062500001 7.392578124999999  35.46875000000001 6.328124999999998  34.5703125 5.429687499999999  C 33.67187500000001 4.531250000000001  32.60742187500001 3.8183593749999996  31.376953125 3.291015624999999  C 30.146484375 2.763671875000001  28.85416666666667 2.4999999999999996  27.5 2.4999999999999996  L 19.9609375 2.4999999999999996  C 21.51041666666667 3.6718749999999996  22.737630208333336 5.13020833333333  23.642578125 6.875000000000001  C 24.54752604166667 8.619791666666664  25 10.494791666666664  25 12.5  C 25 14.505208333333334  24.54752604166667 16.38020833333333  23.642578125 18.125  C 22.737630208333336 19.869791666666664  21.51041666666667 21.328125  19.9609375 22.5  L 27.5 22.5  C 28.85416666666667 22.5  30.146484375 22.236328125  31.376953125 21.708984375  C 32.60742187500001 21.181640625  33.67187500000001 20.46875  34.5703125 19.5703125  C 35.46875000000001 18.671875  36.18164062500001 17.607421875  36.708984375 16.376953125  Z M 39.00390625 7.646484375000001  C 39.66796875 9.189453125  40 10.807291666666666  40 12.5  C 40 14.192708333333332  39.66796875 15.810546875  39.00390625 17.353515625  C 38.33984375 18.896484375  37.451171875 20.224609375  36.337890625 21.337890625  C 35.224609375 22.451171875  33.896484375 23.33984375  32.353515625 24.00390625  C 30.810546875 24.66796875  29.192708333333336 25  27.5 25  L 12.5 25  C 10.807291666666668 25  9.189453125000002 24.66796875  7.646484375 24.00390625  C 6.103515625 23.33984375  4.775390625000001 22.451171875  3.662109375 21.337890625  C 2.548828125 20.224609375  1.6601562500000002 18.896484375  0.99609375 17.353515625  C 0.33203125 15.810546875  0 14.192708333333332  0 12.5  C 0 10.807291666666666  0.33203125 9.189453125  0.99609375 7.646484375000001  C 1.6601562500000002 6.103515625  2.548828125 4.775390625000001  3.662109375 3.662109375  C 4.775390625000001 2.5488281249999996  6.103515625 1.66015625  7.646484375 0.9960937499999989  C 9.189453125000002 0.33203125000000056  10.807291666666668 0  12.5 0  L 27.5 0  C 29.192708333333336 0  30.810546875 0.33203125000000056  32.353515625 0.9960937499999989  C 33.896484375 1.66015625  35.224609375 2.5488281249999996  36.337890625 3.662109375  C 37.451171875 4.775390625000001  38.33984375 6.103515625  39.00390625 7.646484375000001  Z " fill-rule="nonzero" fill="#000000" stroke="none" />
  </g>
</svg>