<?xml version="1.0" encoding="utf-8"?>
<svg version="1.1" xmlns:xlink="http://www.w3.org/1999/xlink" width="12px" height="12px" viewBox="169 1237  12 12" xmlns="http://www.w3.org/2000/svg">
  <path d="M 175 1237  C 178.36 1237  181 1239.64  181 1243  C 181 1246.36  178.36 1249  175 1249  C 171.64 1249  169 1246.36  169 1243  C 169 1239.64  171.64 1237  175 1237  Z " fill-rule="nonzero" fill="#f0f0f0" stroke="none" />
  <path d="M 175 1237.5  C 178.08 1237.5  180.5 1239.92  180.5 1243  C 180.5 1246.08  178.08 1248.5  175 1248.5  C 171.92 1248.5  169.5 1246.08  169.5 1243  C 169.5 1239.92  171.92 1237.5  175 1237.5  Z " stroke-width="1" stroke="#797979" fill="none" />
  <path d="M 175 1246  C 173.32 1246  172 1244.68  172 1243  C 172 1241.32  173.32 1240  175 1240  C 176.68 1240  178 1241.32  178 1243  C 178 1244.68  176.68 1246  175 1246  " fill-rule="nonzero" fill="#797979" stroke="none" />
</svg>