<?xml version="1.0" encoding="utf-8"?>
<svg version="1.1" xmlns:xlink="http://www.w3.org/1999/xlink" width="12px" height="12px" viewBox="281 1237  12 12" xmlns="http://www.w3.org/2000/svg">
  <path d="M 287 1237  C 290.36 1237  293 1239.64  293 1243  C 293 1246.36  290.36 1249  287 1249  C 283.64 1249  281 1246.36  281 1243  C 281 1239.64  283.64 1237  287 1237  Z " fill-rule="nonzero" fill="#ffffff" stroke="none" />
  <path d="M 287 1237.5  C 290.08 1237.5  292.5 1239.92  292.5 1243  C 292.5 1246.08  290.08 1248.5  287 1248.5  C 283.92 1248.5  281.5 1246.08  281.5 1243  C 281.5 1239.92  283.92 1237.5  287 1237.5  Z " stroke-width="1" stroke="#797979" fill="none" />
  <path d="M 287 1246  C 285.32 1246  284 1244.68  284 1243  C 284 1241.32  285.32 1240  287 1240  C 288.68 1240  290 1241.32  290 1243  C 290 1244.68  288.68 1246  287 1246  " fill-rule="nonzero" fill="#797979" stroke="none" />
</svg>