<?xml version="1.0" encoding="utf-8"?>
<svg version="1.1" xmlns:xlink="http://www.w3.org/1999/xlink" width="12px" height="12px" viewBox="169 1797  12 12" xmlns="http://www.w3.org/2000/svg">
  <path d="M 175 1797  C 178.36 1797  181 1799.64  181 1803  C 181 1806.36  178.36 1809  175 1809  C 171.64 1809  169 1806.36  169 1803  C 169 1799.64  171.64 1797  175 1797  Z " fill-rule="nonzero" fill="#ffffff" stroke="none" />
  <path d="M 175 1797.5  C 178.08 1797.5  180.5 1799.92  180.5 1803  C 180.5 1806.08  178.08 1808.5  175 1808.5  C 171.92 1808.5  169.5 1806.08  169.5 1803  C 169.5 1799.92  171.92 1797.5  175 1797.5  Z " stroke-width="1" stroke="#797979" fill="none" />
  <path d="M 175 1806  C 173.32 1806  172 1804.68  172 1803  C 172 1801.32  173.32 1800  175 1800  C 176.68 1800  178 1801.32  178 1803  C 178 1804.68  176.68 1806  175 1806  " fill-rule="nonzero" fill="#797979" stroke="none" />
</svg>