<?xml version="1.0" encoding="utf-8"?>
<svg version="1.1" xmlns:xlink="http://www.w3.org/1999/xlink" width="12px" height="12px" viewBox="281 1797  12 12" xmlns="http://www.w3.org/2000/svg">
  <path d="M 287 1797  C 290.36 1797  293 1799.64  293 1803  C 293 1806.36  290.36 1809  287 1809  C 283.64 1809  281 1806.36  281 1803  C 281 1799.64  283.64 1797  287 1797  Z " fill-rule="nonzero" fill="#ffffff" stroke="none" />
  <path d="M 287 1797.5  C 290.08 1797.5  292.5 1799.92  292.5 1803  C 292.5 1806.08  290.08 1808.5  287 1808.5  C 283.92 1808.5  281.5 1806.08  281.5 1803  C 281.5 1799.92  283.92 1797.5  287 1797.5  Z " stroke-width="1" stroke="#797979" fill="none" />
  <path d="M 287 1806  C 285.32 1806  284 1804.68  284 1803  C 284 1801.32  285.32 1800  287 1800  C 288.68 1800  290 1801.32  290 1803  C 290 1804.68  288.68 1806  287 1806  " fill-rule="nonzero" fill="#797979" stroke="none" />
</svg>