<?xml version="1.0" encoding="utf-8"?>
<svg version="1.1" xmlns:xlink="http://www.w3.org/1999/xlink" width="17px" height="20px" xmlns="http://www.w3.org/2000/svg">
  <g transform="matrix(1 0 0 1 -906 -2947 )">
    <path d="M 12.794270833333332 0.7589285714285721  L 16.247395833333332 4.241071428571428  C 16.453993055555557 4.449404761904761  16.63107638888889 4.732142857142858  16.778645833333332 5.0892857142857135  C 16.92621527777778 5.446428571428572  17 5.773809523809524  17 6.071428571428572  L 17 18.928571428571427  C 17 19.226190476190478  16.89670138888889 19.479166666666664  16.690104166666668 19.6875  C 16.483506944444446 19.895833333333336  16.23263888888889 20  15.9375 20  L 1.0625 20  C 0.7673611111111112 20  0.5164930555555556 19.895833333333336  0.30989583333333337 19.6875  C 0.1032986111111111 19.479166666666664  0 19.226190476190478  0 18.928571428571427  L 0 1.071428571428572  C 0 0.7738095238095233  0.1032986111111111 0.5208333333333326  0.30989583333333337 0.3125  C 0.5164930555555556 0.1041666666666674  0.7673611111111112 0  1.0625 0  L 10.979166666666668 0  C 11.274305555555557 0  11.598958333333332 0.07440476190476275  11.953125 0.22321428571428603  C 12.307291666666668 0.3720238095238093  12.587673611111112 0.5505952380952372  12.794270833333332 0.7589285714285721  Z M 11.787109375 1.763392857142858  C 11.698567708333332 1.674107142857142  11.547309027777779 1.5922619047619024  11.333333333333332 1.517857142857142  L 11.333333333333332 5.7142857142857135  L 15.494791666666668 5.7142857142857135  C 15.421006944444446 5.498511904761902  15.33984375 5.345982142857142  15.251302083333332 5.256696428571428  L 11.787109375 1.763392857142858  Z M 1.4166666666666665 18.571428571428573  L 15.583333333333332 18.571428571428573  L 15.583333333333332 7.142857142857142  L 10.979166666666668 7.142857142857142  C 10.684027777777777 7.142857142857142  10.433159722222223 7.0386904761904745  10.2265625 6.830357142857142  C 10.019965277777777 6.622023809523809  9.916666666666668 6.369047619047617  9.916666666666668 6.071428571428572  L 9.916666666666668 1.428571428571428  L 1.4166666666666665 1.428571428571428  L 1.4166666666666665 18.571428571428573  Z M 5.500651041666666 15.959821428571427  L 4.748046875 15.959821428571427  L 4.748046875 17.142857142857146  L 7.858072916666666 17.142857142857146  L 7.858072916666666 15.959821428571427  L 7.027994791666666 15.959821428571427  L 8.16796875 14.162946428571427  C 8.20486111111111 14.110863095238093  8.241753472222223 14.049479166666664  8.278645833333334 13.978794642857144  C 8.315538194444445 13.908110119047619  8.343207465277779 13.857886904761902  8.361653645833334 13.828125  C 8.38009982638889 13.798363095238093  8.393012152777779 13.783482142857144  8.400390625 13.783482142857144  L 8.422526041666666 13.783482142857144  C 8.42990451388889 13.813244047619047  8.448350694444445 13.850446428571427  8.477864583333334 13.895089285714286  C 8.492621527777777 13.924851190476188  8.509223090277777 13.952752976190474  8.527669270833332 13.978794642857144  C 8.54611545138889 14.00483630952381  8.568250868055557 14.034598214285714  8.594075520833332 14.068080357142856  C 8.619900173611112 14.1015625  8.643880208333334 14.133184523809524  8.666015625 14.162946428571427  L 9.850260416666668 15.959821428571427  L 9.009114583333332 15.959821428571427  L 9.009114583333332 17.142857142857146  L 12.229817708333332 17.142857142857146  L 12.229817708333332 15.959821428571427  L 11.477213541666668 15.959821428571427  L 9.352213541666668 12.912946428571427  L 11.510416666666668 9.765625  L 12.251953125 9.765625  L 12.251953125 8.571428571428573  L 9.1640625 8.571428571428573  L 9.1640625 9.765625  L 9.983072916666668 9.765625  L 8.843098958333332 11.540178571428573  C 8.813585069444446 11.592261904761905  8.776692708333334 11.653645833333332  8.732421875 11.724330357142856  C 8.688151041666668 11.795014880952381  8.654947916666668 11.845238095238093  8.6328125 11.875  L 8.610677083333332 11.908482142857144  L 8.588541666666668 11.908482142857144  C 8.581163194444445 11.878720238095237  8.56271701388889 11.841517857142856  8.533203125 11.796875  C 8.488932291666666 11.715029761904763  8.426215277777779 11.629464285714286  8.345052083333334 11.540178571428573  L 7.171875 9.765625  L 8.013020833333334 9.765625  L 8.013020833333334 8.571428571428573  L 4.803385416666666 8.571428571428573  L 4.803385416666666 9.765625  L 5.555989583333334 9.765625  L 7.647786458333334 12.801339285714286  L 5.500651041666666 15.959821428571427  Z " fill-rule="nonzero" fill="#ffffff" stroke="none" transform="matrix(1 0 0 1 906 2947 )" />
  </g>
</svg>