<?xml version="1.0" encoding="utf-8"?>
<svg version="1.1" xmlns:xlink="http://www.w3.org/1999/xlink" width="41px" height="41px" xmlns="http://www.w3.org/2000/svg">
  <g transform="matrix(1 0 0 1 -1638 -368 )">
    <path d="M 1658.5 369  C 1669.42 369  1678 377.58  1678 388.5  C 1678 399.42  1669.42 408  1658.5 408  C 1647.58 408  1639 399.42  1639 388.5  C 1639 377.58  1647.58 369  1658.5 369  Z " fill-rule="nonzero" fill="#ffffff" stroke="none" />
    <path d="M 1658.5 369  C 1669.42 369  1678 377.58  1678 388.5  C 1678 399.42  1669.42 408  1658.5 408  C 1647.58 408  1639 399.42  1639 388.5  C 1639 377.58  1647.58 369  1658.5 369  Z " stroke-width="2" stroke="#f59a23" fill="none" />
  </g>
</svg>