<?xml version="1.0" encoding="utf-8"?>
<svg version="1.1" xmlns:xlink="http://www.w3.org/1999/xlink" width="41px" height="41px" xmlns="http://www.w3.org/2000/svg">
  <g transform="matrix(1 0 0 1 -1541 -368 )">
    <path d="M 1561.5 369  C 1572.42 369  1581 377.58  1581 388.5  C 1581 399.42  1572.42 408  1561.5 408  C 1550.58 408  1542 399.42  1542 388.5  C 1542 377.58  1550.58 369  1561.5 369  Z " fill-rule="nonzero" fill="#ffffff" stroke="none" />
    <path d="M 1561.5 369  C 1572.42 369  1581 377.58  1581 388.5  C 1581 399.42  1572.42 408  1561.5 408  C 1550.58 408  1542 399.42  1542 388.5  C 1542 377.58  1550.58 369  1561.5 369  Z " stroke-width="2" stroke="#d9001b" fill="none" />
  </g>
</svg>