<?xml version="1.0" encoding="utf-8"?>
<svg version="1.1" xmlns:xlink="http://www.w3.org/1999/xlink" width="41px" height="41px" xmlns="http://www.w3.org/2000/svg">
  <g transform="matrix(1 0 0 1 -1589 -368 )">
    <path d="M 1609.5 369  C 1620.42 369  1629 377.58  1629 388.5  C 1629 399.42  1620.42 408  1609.5 408  C 1598.58 408  1590 399.42  1590 388.5  C 1590 377.58  1598.58 369  1609.5 369  Z " fill-rule="nonzero" fill="#ffffff" stroke="none" />
    <path d="M 1609.5 369  C 1620.42 369  1629 377.58  1629 388.5  C 1629 399.42  1620.42 408  1609.5 408  C 1598.58 408  1590 399.42  1590 388.5  C 1590 377.58  1598.58 369  1609.5 369  Z " stroke-width="2" stroke="#0000ff" fill="none" />
  </g>
</svg>