<?xml version="1.0" encoding="utf-8"?>
<svg version="1.1" xmlns:xlink="http://www.w3.org/1999/xlink" width="22px" height="22px" xmlns="http://www.w3.org/2000/svg">
  <g transform="matrix(1 0 0 1 -1458 -418 )">
    <path d="M 1469 419  C 1474.6 419  1479 423.4  1479 429  C 1479 434.6  1474.6 439  1469 439  C 1463.4 439  1459 434.6  1459 429  C 1459 423.4  1463.4 419  1469 419  Z " fill-rule="nonzero" fill="#ffffff" stroke="none" />
    <path d="M 1469 419  C 1474.6 419  1479 423.4  1479 429  C 1479 434.6  1474.6 439  1469 439  C 1463.4 439  1459 434.6  1459 429  C 1459 423.4  1463.4 419  1469 419  Z " stroke-width="2" stroke="#d9001b" fill="none" />
  </g>
</svg>