<?xml version="1.0" encoding="utf-8"?>
<svg version="1.1" xmlns:xlink="http://www.w3.org/1999/xlink" width="101px" height="21px" xmlns="http://www.w3.org/2000/svg">
  <g transform="matrix(1 0 0 1 -358 -462 )">
    <path d="M 0 0.5  L 81 0.5  " stroke-width="2" stroke-dasharray="2,2" stroke="#0000ff" fill="none" transform="matrix(1 0 0 1 368 472 )" />
    <path d="M 1.9999999913570141 5.5  L 1.9999999913570141 -4.5  L 0 -4.5  L 0 5.5  L 1.9999999913570141 5.5  Z M 9.107106359945343 4.792893218813452  L 4.814213141131889 0.4999999999999991  L 9.107106359945343 -3.7928932188134525  L 7.692892797572248 -5.207106781186548  L 2.6928927975722465 -0.20710678118654746  L 1.9857860163856973 0.5  L 2.6928927975722465 1.2071067811865475  L 7.692892797572248 6.207106781186548  L 9.107106359945343 4.792893218813452  Z M 78.99999994396585 -4.5  L 78.99999994396585 5.5  L 80.99999994396585 5.5  L 80.99999994396585 -4.5  L 78.99999994396585 -4.5  Z M 71.89289165038548 -3.7928932188134525  L 76.18578486919893 0.5000000000000004  L 71.89289165038548 4.792893218813452  L 73.30710521275859 6.207106781186548  L 78.30710521275859 1.2071067811865475  L 79.01421199394514 0.5  L 78.30710521275859 -0.20710678118654746  L 73.30710521275859 -5.207106781186548  L 71.89289165038548 -3.7928932188134525  Z " fill-rule="nonzero" fill="#0000ff" stroke="none" transform="matrix(1 0 0 1 368 472 )" />
  </g>
</svg>