<?xml version="1.0" encoding="utf-8"?>
<svg version="1.1" xmlns:xlink="http://www.w3.org/1999/xlink" width="30px" height="30px" xmlns="http://www.w3.org/2000/svg">
  <g transform="matrix(1 0 0 1 -250 -202 )">
    <path d="M 24.62890625 17.128906250000004  C 24.876302083333336 16.881510416666664  25 16.588541666666664  25 16.250000000000004  L 25 13.750000000000002  C 25 13.411458333333332  24.876302083333336 13.118489583333332  24.62890625 12.871093750000002  C 24.381510416666668 12.623697916666668  24.088541666666668 12.499999999999998  23.75 12.499999999999998  L 17.5 12.499999999999998  L 17.5 6.250000000000001  C 17.5 5.911458333333331  17.376302083333336 5.618489583333331  17.12890625 5.371093750000001  C 16.881510416666668 5.123697916666664  16.588541666666668 4.999999999999999  16.25 4.999999999999999  L 13.75 4.999999999999999  C 13.411458333333336 4.999999999999999  13.118489583333336 5.123697916666664  12.87109375 5.371093750000001  C 12.623697916666668 5.618489583333331  12.5 5.911458333333331  12.5 6.250000000000001  L 12.5 12.499999999999998  L 6.25 12.499999999999998  C 5.911458333333334 12.499999999999998  5.618489583333334 12.623697916666668  5.37109375 12.871093750000002  C 5.123697916666668 13.118489583333332  5 13.411458333333332  5 13.750000000000002  L 5 16.250000000000004  C 5 16.588541666666664  5.123697916666668 16.881510416666664  5.37109375 17.128906250000004  C 5.618489583333334 17.376302083333332  5.911458333333334 17.499999999999996  6.25 17.499999999999996  L 12.5 17.499999999999996  L 12.5 23.75  C 12.5 24.088541666666664  12.623697916666668 24.381510416666664  12.87109375 24.62890625  C 13.118489583333336 24.876302083333336  13.411458333333336 25  13.75 25  L 16.25 25  C 16.588541666666668 25  16.881510416666668 24.876302083333336  17.12890625 24.62890625  C 17.376302083333336 24.381510416666664  17.5 24.088541666666664  17.5 23.75  L 17.5 17.499999999999996  L 23.75 17.499999999999996  C 24.088541666666668 17.499999999999996  24.381510416666668 17.376302083333332  24.62890625 17.128906250000004  Z M 28.349609375 1.650390625000001  C 29.449869791666664 2.7506510416666643  30 4.0755208333333295  30 5.625  L 30 24.375  C 30 25.924479166666664  29.449869791666664 27.249348958333336  28.349609375 28.349609375  C 27.249348958333336 29.449869791666664  25.92447916666667 30  24.375 30  L 5.625 30  C 4.075520833333333 30  2.750651041666667 29.449869791666664  1.650390625 28.349609375  C 0.5501302083333333 27.249348958333336  0 25.924479166666664  0 24.375  L 0 5.625  C 0 4.0755208333333295  0.5501302083333333 2.7506510416666643  1.650390625 1.650390625000001  C 2.750651041666667 0.5501302083333315  4.075520833333333 0  5.625 0  L 24.375 0  C 25.92447916666667 0  27.249348958333336 0.5501302083333315  28.349609375 1.650390625000001  Z " fill-rule="nonzero" fill="#f2f2f2" stroke="none" transform="matrix(1 0 0 1 250 202 )" />
  </g>
</svg>