<?xml version="1.0" encoding="utf-8"?>
<svg version="1.1" xmlns:xlink="http://www.w3.org/1999/xlink" width="30px" height="30px" xmlns="http://www.w3.org/2000/svg">
  <g transform="matrix(1 0 0 1 -210 -256 )">
    <path d="M 19.28571428571429 23.49609375  C 19.430803571428573 23.49609375  19.55915178571429 23.430989583333336  19.67075892857143 23.30078125  L 22.114955357142858 20.44921875  C 22.226562500000004 20.319010416666664  22.28236607142857 20.16927083333333  22.28236607142857 20.000000000000004  C 22.28236607142857 19.830729166666668  22.226562500000004 19.68098958333333  22.114955357142858 19.550781249999996  L 18.21428571428571 15  L 22.114955357142858 10.449218749999998  C 22.226562500000004 10.319010416666664  22.28236607142857 10.169270833333332  22.28236607142857 10.000000000000002  C 22.28236607142857 9.830729166666666  22.226562500000004 9.68098958333333  22.114955357142858 9.55078125  L 19.67075892857143 6.699218749999999  C 19.55915178571429 6.569010416666665  19.430803571428573 6.50390625  19.28571428571429 6.50390625  C 19.140625 6.50390625  19.012276785714285 6.569010416666665  18.900669642857142 6.699218749999999  L 15 11.25  L 11.099330357142856 6.699218749999999  C 10.987723214285715 6.569010416666665  10.859375 6.50390625  10.714285714285715 6.50390625  C 10.569196428571429 6.50390625  10.440848214285715 6.569010416666665  10.329241071428571 6.699218749999999  L 7.885044642857143 9.55078125  C 7.773437500000001 9.68098958333333  7.717633928571429 9.830729166666666  7.717633928571429 10.000000000000002  C 7.717633928571429 10.169270833333332  7.773437500000001 10.319010416666664  7.885044642857143 10.449218749999998  L 11.785714285714285 15  L 7.885044642857143 19.550781249999996  C 7.773437500000001 19.68098958333333  7.717633928571429 19.830729166666668  7.717633928571429 20.000000000000004  C 7.717633928571429 20.16927083333333  7.773437500000001 20.319010416666664  7.885044642857143 20.44921875  L 10.329241071428571 23.30078125  C 10.440848214285715 23.430989583333336  10.569196428571429 23.49609375  10.714285714285715 23.49609375  C 10.859375 23.49609375  10.987723214285715 23.430989583333336  11.099330357142856 23.30078125  L 15 18.75  L 18.900669642857142 23.30078125  C 19.012276785714285 23.430989583333336  19.140625 23.49609375  19.28571428571429 23.49609375  Z M 29.213169642857142 0.9179687500000011  C 29.73772321428572 1.5299479166666652  30 2.265625000000001  30 3.124999999999999  L 30 26.875  C 30 27.734375  29.73772321428572 28.470052083333336  29.213169642857142 29.08203125  C 28.688616071428577 29.694010416666668  28.05803571428572 30  27.32142857142857 30  L 2.678571428571429 30  C 1.9419642857142858 30  1.3113839285714286 29.694010416666668  0.7868303571428572 29.08203125  C 0.2622767857142857 28.470052083333336  0 27.734375  0 26.875  L 0 3.124999999999999  C 0 2.265625000000001  0.2622767857142857 1.5299479166666652  0.7868303571428572 0.9179687500000011  C 1.3113839285714286 0.3059895833333304  1.9419642857142858 0  2.678571428571429 0  L 27.32142857142857 0  C 28.05803571428572 0  28.688616071428577 0.3059895833333304  29.213169642857142 0.9179687500000011  Z " fill-rule="nonzero" fill="#f2f2f2" stroke="none" transform="matrix(1 0 0 1 210 256 )" />
  </g>
</svg>