<?xml version="1.0" encoding="utf-8"?>
<svg version="1.1" xmlns:xlink="http://www.w3.org/1999/xlink" width="30px" height="35px" xmlns="http://www.w3.org/2000/svg">
  <g transform="matrix(1 0 0 1 -404 -370 )">
    <path d="M 22.578125 1.328125000000001  L 28.671875 7.421874999999999  C 29.036458333333336 7.786458333333331  29.348958333333336 8.281250000000002  29.609375 8.90625  C 29.869791666666668 9.531250000000002  30 10.104166666666666  30 10.625000000000002  L 30 33.125  C 30 33.645833333333336  29.817708333333332 34.088541666666664  29.453125 34.453125  C 29.08854166666667 34.817708333333336  28.645833333333336 35  28.125 35  L 1.875 35  C 1.354166666666667 35  0.9114583333333335 34.817708333333336  0.546875 34.453125  C 0.18229166666666663 34.088541666666664  0 33.645833333333336  0 33.125  L 0 1.875000000000001  C 0 1.3541666666666656  0.18229166666666663 0.911458333333332  0.546875 0.546875  C 0.9114583333333335 0.18229166666666796  1.354166666666667 0  1.875 0  L 19.375 0  C 19.895833333333336 0  20.46875 0.1302083333333348  21.09375 0.39062500000000056  C 21.71875 0.6510416666666663  22.213541666666668 0.9635416666666652  22.578125 1.328125000000001  Z M 20.80078125 3.0859375000000018  C 20.64453125 2.9296874999999982  20.37760416666667 2.7864583333333295  20 2.6562499999999982  L 20 10  L 27.34375 10  C 27.21354166666667 9.622395833333329  27.0703125 9.355468749999998  26.9140625 9.199218749999998  L 20.80078125 3.0859375000000018  Z M 3 32  L 27 32  L 27 12.499999999999998  L 19.375 12.499999999999998  C 18.854166666666668 12.499999999999998  18.411458333333332 12.31770833333333  18.046875 11.953124999999998  C 17.682291666666668 11.588541666666666  17.5 11.145833333333329  17.5 10.625000000000002  L 17.5 3  L 3 3  L 3 32  Z M 9.70703125 27.9296875  L 8.37890625 27.9296875  L 8.37890625 30.000000000000004  L 13.8671875 30.000000000000004  L 13.8671875 27.9296875  L 12.40234375 27.9296875  L 14.4140625 24.78515625  C 14.479166666666666 24.694010416666664  14.544270833333336 24.586588541666664  14.609375 24.462890625000004  C 14.674479166666668 24.339192708333332  14.723307291666668 24.25130208333333  14.755859375 24.19921875  C 14.788411458333336 24.147135416666664  14.811197916666668 24.121093750000004  14.82421875 24.121093750000004  L 14.86328125 24.121093750000004  C 14.876302083333336 24.173177083333332  14.908854166666668 24.23828125  14.9609375 24.31640625  C 14.986979166666664 24.36848958333333  15.016276041666666 24.41731770833333  15.048828124999998 24.462890625000004  C 15.081380208333336 24.508463541666668  15.120442708333336 24.560546875  15.166015624999998 24.619140624999996  C 15.211588541666668 24.677734375  15.253906250000002 24.733072916666664  15.29296875 24.78515625  L 17.3828125 27.9296875  L 15.898437499999998 27.9296875  L 15.898437499999998 30.000000000000004  L 21.58203125 30.000000000000004  L 21.58203125 27.9296875  L 20.25390625 27.9296875  L 16.50390625 22.59765625  L 20.3125 17.08984375  L 21.62109375 17.08984375  L 21.62109375 15.000000000000002  L 16.171875 15.000000000000002  L 16.171875 17.08984375  L 17.6171875 17.08984375  L 15.605468749999998 20.1953125  C 15.553385416666671 20.286458333333332  15.488281250000002 20.393880208333332  15.41015625 20.517578124999996  C 15.332031250000002 20.641276041666668  15.273437500000002 20.729166666666664  15.234375 20.78125  L 15.195312499999998 20.839843750000004  L 15.156250000000002 20.839843750000004  C 15.143229166666668 20.787760416666664  15.110677083333336 20.722656249999996  15.05859375 20.64453125  C 14.98046875 20.501302083333336  14.869791666666668 20.3515625  14.7265625 20.1953125  L 12.65625 17.08984375  L 14.140625 17.08984375  L 14.140625 15.000000000000002  L 8.4765625 15.000000000000002  L 8.4765625 17.08984375  L 9.8046875 17.08984375  L 13.49609375 22.40234375  L 9.70703125 27.9296875  Z " fill-rule="nonzero" fill="#ffffff" stroke="none" transform="matrix(1 0 0 1 404 370 )" />
  </g>
</svg>