<?xml version="1.0" encoding="utf-8"?>
<svg version="1.1" xmlns:xlink="http://www.w3.org/1999/xlink" width="10px" height="144px" preserveAspectRatio="xMidYMin meet" viewBox="496 237  8 144" xmlns="http://www.w3.org/2000/svg">
  <defs>
    <mask fill="white" id="clip2">
      <path d="M 466 287  L 534 287  L 534 313  L 466 313  Z M 466 233  L 548 233  L 548 385  L 466 385  Z " fill-rule="evenodd" />
    </mask>
  </defs>
  <path d="M 479 376.5  L 495 376.5  A 5 5 0 0 0 500.5 371.5 L 500.5 247  A 5 5 0 0 1 505.5 242.5 L 534 242.5  " stroke-width="1" stroke-dasharray="3,1" stroke="#000000" fill="none" stroke-opacity="0.8313725490196079" mask="url(#clip2)" />
  <path d="M 481 373.5  A 3 3 0 0 0 478 376.5 A 3 3 0 0 0 481 379.5 A 3 3 0 0 0 484 376.5 A 3 3 0 0 0 481 373.5 Z M 533 248.8  L 539 242.5  L 533 236.2  L 533 248.8  Z " fill-rule="nonzero" fill="#000000" stroke="none" fill-opacity="0.8313725490196079" mask="url(#clip2)" />
</svg>