<?xml version="1.0" encoding="utf-8"?>
<svg version="1.1" xmlns:xlink="http://www.w3.org/1999/xlink" width="30px" height="30px" xmlns="http://www.w3.org/2000/svg">
  <g transform="matrix(1 0 0 1 -404 -550 )">
    <path d="M 25.37048377219841 7.132352941176472  C 25.71341090018371 6.789215686274509  25.884874464176363 6.37254901960784  25.884874464176363 5.882352941176469  C 25.884874464176363 5.392156862745096  25.71341090018371 4.975490196078427  25.37048377219841 4.632352941176471  C 25.027556644213107 4.289215686274508  24.611145131659523 4.117647058823528  24.12124923453766 4.117647058823528  C 23.631353337415803 4.117647058823528  23.21494182486222 4.289215686274508  22.872014696876914 4.632352941176471  C 22.529087568891615 4.975490196078427  22.35762400489896 5.392156862745096  22.35762400489896 5.882352941176469  C 22.35762400489896 6.37254901960784  22.529087568891615 6.789215686274509  22.872014696876914 7.132352941176472  C 23.21494182486222 7.475490196078428  23.631353337415803 7.647058823529411  24.12124923453766 7.647058823529411  C 24.611145131659523 7.647058823529411  25.027556644213107 7.475490196078428  25.37048377219841 7.132352941176472  Z M 29.816289038579303 0.17463235294117752  C 29.938763012859766 0.29105392156862475  30 0.42892156862744946  30 0.5882352941176483  C 30 3.6397058823529416  29.537660747091245 6.2775735294117645  28.61298224127373 8.50183823529412  C 27.688303735456216 10.726102941176471  26.135946111451318 12.935049019607844  23.955909369259032 15.128676470588236  C 22.96387017758726 16.10906862745098  21.769748928352726 17.187500000000004  20.37354562155542 18.363970588235293  L 20.006123698714024 25.330882352941178  C 19.98162890385793 25.52696078431373  19.88364972443356 25.68627450980392  19.712186160440908 25.808823529411768  L 12.6576852418861 29.926470588235293  C 12.571953459889773 29.975490196078432  12.473974280465402 30  12.363747703612981 30  C 12.216778934476423 30  12.075933864053889 29.94485294117647  11.941212492345377 29.834558823529413  L 10.76546233925291 28.65808823529412  C 10.606246172688305 28.48651960784314  10.55725658297612 28.290441176470587  10.618493570116351 28.06985294117647  L 12.180036742192284 22.996323529411768  L 7.017758726270667 17.830882352941178  L 1.9473361910594 19.393382352941178  C 1.9105939987752605 19.405637254901958  1.8554807103490507 19.41176470588235  1.7819963257807716 19.41176470588235  C 1.6105327617881202 19.41176470588235  1.4696876913655852 19.356617647058826  1.3594611145131659 19.246323529411768  L 0.1837109614206981 18.06985294117647  C -0.024494794856093124 17.837009803921568  -0.05511328842620943 17.59803921568627  0.09185548071034905 17.352941176470587  L 4.2069810165339865 10.294117647058824  C 4.329454990814453 10.12254901960784  4.488671157379057 10.024509803921566  4.684629516227801 10.000000000000002  L 11.647274954072259 9.63235294117647  C 12.823025107164728 8.23529411764706  13.900796080832825 7.04044117647059  14.880587875076547 6.047794117647057  C 17.183098591549296 3.756127450980392  19.37538273116963 2.1752450980392144  21.457440293937537 1.305147058823528  C 23.539497856705452 0.4350490196078416  26.17881200244948 0  29.375382731169626 0  C 29.546846295162283 0  29.69381506429884 0.05821078431372362  29.816289038579303 0.17463235294117752  Z " fill-rule="nonzero" fill="#ffffff" stroke="none" transform="matrix(1 0 0 1 404 550 )" />
  </g>
</svg>