<?xml version="1.0" encoding="utf-8"?>
<svg version="1.1" xmlns:xlink="http://www.w3.org/1999/xlink" width="27px" height="10px" preserveAspectRatio="xMinYMid meet" viewBox="478 851  27 8" xmlns="http://www.w3.org/2000/svg">
  <path d="M 479 855.5  L 495 855.5  A 5 5 0 0 0 500.5 850.5 L 500.5 727  A 5 5 0 0 1 505.5 722.5 L 534 722.5  " stroke-width="1" stroke-dasharray="3,1" stroke="#000000" fill="none" stroke-opacity="0.8313725490196079" />
  <path d="M 481 852.5  A 3 3 0 0 0 478 855.5 A 3 3 0 0 0 481 858.5 A 3 3 0 0 0 484 855.5 A 3 3 0 0 0 481 852.5 Z M 533 728.8  L 539 722.5  L 533 716.2  L 533 728.8  Z " fill-rule="nonzero" fill="#000000" stroke="none" fill-opacity="0.8313725490196079" />
</svg>