<?xml version="1.0" encoding="utf-8"?>
<svg version="1.1" xmlns:xlink="http://www.w3.org/1999/xlink" width="17px" height="17px" xmlns="http://www.w3.org/2000/svg">
  <g transform="matrix(1 0 0 1 -155 -2458 )">
    <path d="M 15.695591517857142 15.695591517857142  C 15.755673363095239 15.635509672619047  15.785714285714286 15.564360119047619  15.785714285714286 15.482142857142858  L 15.785714285714286 5.1607142857142865  C 15.785714285714286 5.078497023809522  15.755673363095239 5.007347470238095  15.695591517857142 4.947265625  C 15.635509672619047 4.887183779761903  15.564360119047619 4.857142857142857  15.482142857142858 5  L 5.160714285714286 5  C 5.078497023809524 4.857142857142857  5.007347470238096 4.887183779761903  4.947265625 4.947265625  C 4.887183779761905 5.007347470238095  4.857142857142857 5.078497023809522  5 5.1607142857142865  L 5 15.482142857142858  C 4.857142857142857 15.564360119047619  4.887183779761905 15.635509672619047  4.947265625 15.695591517857142  C 5.007347470238096 15.755673363095237  5.078497023809524 15.785714285714286  5.160714285714286 15.785714285714286  L 15.482142857142858 15.785714285714286  C 15.564360119047619 15.785714285714286  15.635509672619047 15.755673363095237  15.695591517857142 15.695591517857142  Z M 16.554129464285715 4.08872767857143  C 16.85137648809524 4.385974702380952  17 4.74330357142857  17 5.1607142857142865  L 17 15.482142857142858  C 17 15.899553571428571  16.85137648809524 16.25688244047619  16.554129464285715 16.554129464285715  C 16.256882440476193 16.851376488095237  15.899553571428575 17  15.482142857142858 17  L 5.160714285714286 17  C 4.743303571428571 17  4.3859747023809526 16.851376488095237  4.088727678571429 16.554129464285715  C 3.791480654761904 16.25688244047619  3.642857142857143 15.899553571428571  3.642857142857143 15.482142857142858  L 3.642857142857143 5.1607142857142865  C 3.642857142857143 4.74330357142857  3.791480654761904 4.385974702380952  4.088727678571429 4.08872767857143  C 4.3859747023809526 3.7914806547619033  4.743303571428571 3.6428571428571432  5.160714285714286 3.6428571428571432  L 15.482142857142858 3.6428571428571432  C 15.899553571428575 3.6428571428571432  16.256882440476193 3.7914806547619033  16.554129464285715 4.08872767857143  Z M 12.911272321428571 0.44587053571428625  C 13.208519345238097 0.7431175595238085  13.357142857142858 1.1004464285714293  13.357142857142858 1.5178571428571432  L 13.357142857142858 3.0357142857142865  L 12.142857142857142 3.0357142857142865  L 12.142857142857142 1.5178571428571432  C 12.142857142857142 1.435639880952381  12.112816220238097 1.3644903273809517  12.052734375 1.3044084821428568  C 11.992652529761905 1.24432663690476  11.921502976190478 1.2142857142857137  11.839285714285714 1.2142857142857137  L 1.5178571428571428 1.2142857142857137  C 1.435639880952381 1.2142857142857137  1.3644903273809523 1.24432663690476  1.3044084821428572 1.3044084821428568  C 1.244326636904762 1.3644903273809517  1.2142857142857142 1.435639880952381  1.2142857142857142 1.5178571428571432  L 1.2142857142857142 11.839285714285714  C 1.2142857142857142 11.921502976190476  1.244326636904762 11.992652529761903  1.3044084821428572 12.052734375  C 1.3644903273809523 12.112816220238095  1.435639880952381 12.142857142857142  1.5178571428571428 12.142857142857142  L 3.0357142857142856 12.142857142857142  L 3.0357142857142856 13.357142857142858  L 1.5178571428571428 13.357142857142858  C 1.1004464285714286 13.357142857142858  0.7431175595238096 13.208519345238095  0.4458705357142857 12.911272321428573  C 0.14862351190476192 12.614025297619046  0 12.256696428571427  0 11.839285714285714  L 0 1.5178571428571432  C 0 1.1004464285714293  0.14862351190476192 0.7431175595238085  0.4458705357142857 0.44587053571428625  C 0.7431175595238096 0.14862351190476208  1.1004464285714286 0  1.5178571428571428 0  L 11.839285714285714 0  C 12.256696428571429 0  12.614025297619047 0.14862351190476208  12.911272321428571 0.44587053571428625  Z " fill-rule="nonzero" fill="#ffffff" stroke="none" transform="matrix(1 0 0 1 155 2458 )" />
  </g>
</svg>