<?xml version="1.0" encoding="utf-8"?>
<svg version="1.1" xmlns:xlink="http://www.w3.org/1999/xlink" width="402px" height="40px" xmlns="http://www.w3.org/2000/svg">
  <g transform="matrix(1 0 0 1 -39 -2139 )">
    <path d="M 40 2144  A 4 4 0 0 1 44 2140 L 436 2140  A 4 4 0 0 1 440 2144 L 440 2174  A 4 4 0 0 1 436 2178 L 44 2178  A 4 4 0 0 1 40 2174 L 40 2144  Z " fill-rule="nonzero" fill="#f2f2f2" stroke="none" />
    <path d="M 39.5 2144  A 4.5 4.5 0 0 1 44 2139.5 L 436 2139.5  A 4.5 4.5 0 0 1 440.5 2144 L 440.5 2174  A 4.5 4.5 0 0 1 436 2178.5 L 44 2178.5  A 4.5 4.5 0 0 1 39.5 2174 L 39.5 2144  Z " stroke-width="1" stroke-dasharray="3,1" stroke="#797979" fill="none" stroke-dashoffset="0.5" />
  </g>
</svg>