<?xml version="1.0" encoding="utf-8"?>
<svg version="1.1" xmlns:xlink="http://www.w3.org/1999/xlink" width="50px" height="41px" xmlns="http://www.w3.org/2000/svg">
  <g transform="matrix(1 0 0 1 -215 -2014 )">
    <path d="M 48.529411764705884 26  L 39.705882352941174 10.25  L 30.88235294117647 26  L 48.529411764705884 26  Z M 19.11764705882353 26  L 10.294117647058822 10.25  L 1.4705882352941175 26  L 19.11764705882353 26  Z M 40.44117647058824 6  L 29.159007352941174 6  C 28.944546568627455 6.4672619047619  28.596047794117645 7.012555803571427  28.113511029411764 7.493024553571427  C 27.63097426470588 7.973493303571427  27.083333333333336 8.32049851190476  26 8.534040178571427  L 26 38  L 40.44117647058824 38  C 40.65563725490197 38.07142857142857  40.83180147058824 38.140066964285715  40.96966911764706 38.27734375  C 41.107536764705884 38.414620535714285  41.17647058823529 38.590029761904766  41.17647058823529 38.80357142857143  L 41.17647058823529 40.26785714285714  C 41.17647058823529 40.48139880952381  41.107536764705884 40.656808035714285  40.96966911764706 40.79408482142857  C 40.83180147058824 40.93136160714286  40.65563725490197 41  40.44117647058824 41  L 9.558823529411764 41  C 9.34436274509804 41  9.168198529411766 40.93136160714286  9.03033088235294 40.79408482142857  C 8.892463235294118 40.656808035714285  8.823529411764707 40.48139880952381  8.823529411764707 40.26785714285714  L 8.823529411764707 38.80357142857143  C 8.823529411764707 38.590029761904766  8.892463235294118 38.414620535714285  9.03033088235294 38.27734375  C 9.168198529411766 38.140066964285715  9.34436274509804 38.07142857142857  9.558823529411764 38  L 24 38  L 24 8.534040178571427  C 22.91666666666667 8.32049851190476  22.36902573529412 7.973493303571427  21.886488970588236 7.493024553571427  C 21.403952205882355 7.012555803571427  21.055453431372552 6.4672619047619  20.840992647058822 6  L 9.558823529411764 6  C 9.34436274509804 5.857142857142859  9.168198529411766 5.7885044642857135  9.03033088235294 5.651227678571427  C 8.892463235294118 5.513950892857141  8.823529411764707 5.338541666666663  8.823529411764707 5.125  L 8.823529411764707 3.6607142857142865  C 8.823529411764707 3.4471726190476137  8.892463235294118 3.271763392857141  9.03033088235294 3.134486607142859  C 9.168198529411766 2.997209821428573  9.34436274509804 2.928571428571427  9.558823529411764 3  L 20.840992647058822 3  C 21.162683823529413 2.0591517857142865  21.698835784313726 1.3537016369047592  22.449448529411764 0.8122209821428591  C 23.200061274509807 0.27074032738095455  24.050245098039216 0  25 0  C 25.949754901960787 0  26.7999387254902 0.27074032738095455  27.550551470588236 0.8122209821428591  C 28.301164215686274 1.3537016369047592  28.83731617647059 2.0591517857142865  29.159007352941174 3  L 40.44117647058824 3  C 40.65563725490197 2.928571428571427  40.83180147058824 2.997209821428573  40.96966911764706 3.134486607142859  C 41.107536764705884 3.271763392857141  41.17647058823529 3.4471726190476137  41.17647058823529 3.6607142857142865  L 41.17647058823529 5.125  C 41.17647058823529 5.338541666666663  41.107536764705884 5.513950892857141  40.96966911764706 5.651227678571427  C 40.83180147058824 5.7885044642857135  40.65563725490197 5.857142857142859  40.44117647058824 6  Z M 23.701746323529413 5.685546875  C 24.06173406862745 6.043991815476186  24.494485294117645 6.2232142857142865  25 6.2232142857142865  C 25.505514705882355 6.2232142857142865  25.938265931372552 6.043991815476186  26.29825367647059 5.685546875  C 26.65824142156863 5.327101934523809  26.838235294117645 4.896205357142859  26.838235294117645 4.392857142857141  C 26.838235294117645 3.889508928571427  26.65824142156863 3.4586123511904727  26.29825367647059 3.1001674107142865  C 25.938265931372552 2.7417224702380953  25.505514705882355 2.5625  25 2.5625  C 24.494485294117645 2.5625  24.06173406862745 2.7417224702380953  23.701746323529413 3.1001674107142865  C 23.341758578431378 3.4586123511904727  23.161764705882355 3.889508928571427  23.161764705882355 4.392857142857141  C 23.161764705882355 4.896205357142859  23.341758578431378 5.327101934523809  23.701746323529413 5.685546875  Z M 49.19577205882353 24.50390625  C 49.731924019607845 25.57161458333333  50 26.189360119047617  50 26.357142857142854  C 50 27.470610119047617  49.64384191176471 28.46968005952381  48.931525735294116 29.354352678571427  C 48.21920955882353 30.239025297619044  47.31924019607843 30.933035714285715  46.231617647058826 31.436383928571427  C 45.14399509803923 31.939732142857146  44.037224264705884 32.31724330357143  42.911305147058826 32.568917410714285  C 41.78538602941177 32.820591517857146  40.716911764705884 32.94642857142857  39.705882352941174 32.94642857142857  C 38.69485294117648 32.94642857142857  37.626378676470594 32.820591517857146  36.50045955882353 32.568917410714285  C 35.37454044117647 32.31724330357143  34.26776960784314 31.939732142857146  33.18014705882353 31.436383928571427  C 32.09252450980392 30.933035714285715  31.192555147058826 30.239025297619044  30.480238970588236 29.354352678571427  C 29.767922794117645 28.46968005952381  29.411764705882355 27.470610119047617  29.411764705882355 26.357142857142854  C 29.411764705882355 26.189360119047617  29.67984068627451 25.57161458333333  30.215992647058826 24.50390625  C 30.75214460784314 23.436197916666664  31.456801470588236 22.105375744047617  32.329963235294116 20.511439732142854  C 33.203125 18.917503720238095  34.02267156862745 17.426525297619044  34.78860294117647 16.038504464285715  C 35.5545343137255 14.650483630952378  36.3357843137255 13.247209821428573  37.13235294117647 11.828683035714286  C 37.92892156862746 10.41015625  38.3578431372549 9.647507440476186  38.419117647058826 9.54073660714286  C 38.69485294117647 9.03738839285714  39.12377450980392 8.785714285714286  39.705882352941174 8.785714285714286  C 40.28799019607843 8.785714285714286  40.716911764705884 9.03738839285714  40.99264705882353 9.54073660714286  C 41.05392156862746 9.647507440476186  41.4828431372549 10.41015625  42.279411764705884 11.828683035714286  C 43.075980392156865 13.247209821428573  43.857230392156865 14.650483630952378  44.623161764705884 16.038504464285715  C 45.3890931372549 17.426525297619044  46.20863970588236 18.917503720238095  47.08180147058824 20.511439732142854  C 47.954963235294116 22.105375744047617  48.65962009803923 23.436197916666664  49.19577205882353 24.50390625  Z M 19.784007352941178 24.50390625  C 20.32015931372549 25.57161458333333  20.588235294117645 26.189360119047617  20.588235294117645 26.357142857142854  C 20.588235294117645 27.470610119047617  20.232077205882355 28.46968005952381  19.519761029411764 29.354352678571427  C 18.807444852941178 30.239025297619044  17.907475490196077 30.933035714285715  16.81985294117647 31.436383928571427  C 15.732230392156865 31.939732142857146  14.625459558823529 32.31724330357143  13.499540441176471 32.568917410714285  C 12.373621323529411 32.820591517857146  11.305147058823529 32.94642857142857  10.294117647058822 32.94642857142857  C 9.283088235294118 32.94642857142857  8.214613970588236 32.820591517857146  7.088694852941177 32.568917410714285  C 5.962775735294118 32.31724330357143  4.856004901960785 31.939732142857146  3.768382352941176 31.436383928571427  C 2.680759803921569 30.933035714285715  1.7807904411764706 30.239025297619044  1.0684742647058825 29.354352678571427  C 0.3561580882352941 28.46968005952381  0 27.470610119047617  0 26.357142857142854  C 0 26.189360119047617  0.26807598039215685 25.57161458333333  0.8042279411764706 24.50390625  C 1.3403799019607845 23.436197916666664  2.0450367647058822 22.105375744047617  2.918198529411765 20.511439732142854  C 3.7913602941176467 18.917503720238095  4.610906862745098 17.426525297619044  5.376838235294118 16.038504464285715  C 6.142769607843138 14.650483630952378  6.924019607843138 13.247209821428573  7.720588235294118 11.828683035714286  C 8.517156862745098 10.41015625  8.94607843137255 9.647507440476186  9.007352941176471 9.54073660714286  C 9.283088235294118 9.03738839285714  9.71200980392157 8.785714285714286  10.294117647058822 8.785714285714286  C 10.876225490196079 8.785714285714286  11.30514705882353 9.03738839285714  11.580882352941178 9.54073660714286  C 11.642156862745098 9.647507440476186  12.07107843137255 10.41015625  12.867647058823529 11.828683035714286  C 13.664215686274511 13.247209821428573  14.445465686274511 14.650483630952378  15.211397058823529 16.038504464285715  C 15.97732843137255 17.426525297619044  16.796875 18.917503720238095  17.67003676470588 20.511439732142854  C 18.543198529411764 22.105375744047617  19.247855392156865 23.436197916666664  19.784007352941178 24.50390625  Z " fill-rule="nonzero" fill="#f2f2f2" stroke="none" transform="matrix(1 0 0 1 215 2014 )" />
  </g>
</svg>