<?xml version="1.0" encoding="utf-8"?>
<svg version="1.1" xmlns:xlink="http://www.w3.org/1999/xlink" width="12px" height="12px" viewBox="279 745  12 12" xmlns="http://www.w3.org/2000/svg">
  <path d="M 285 745  C 288.36 745  291 747.64  291 751  C 291 754.36  288.36 757  285 757  C 281.64 757  279 754.36  279 751  C 279 747.64  281.64 745  285 745  Z " fill-rule="nonzero" fill="#f0f0f0" stroke="none" />
  <path d="M 285 745.5  C 288.08 745.5  290.5 747.92  290.5 751  C 290.5 754.08  288.08 756.5  285 756.5  C 281.92 756.5  279.5 754.08  279.5 751  C 279.5 747.92  281.92 745.5  285 745.5  Z " stroke-width="1" stroke="#797979" fill="none" />
  <path d="M 285 754  C 283.32 754  282 752.68  282 751  C 282 749.32  283.32 748  285 748  C 286.68 748  288 749.32  288 751  C 288 752.68  286.68 754  285 754  " fill-rule="nonzero" fill="#797979" stroke="none" />
</svg>