<?xml version="1.0" encoding="utf-8"?>
<svg version="1.1" xmlns:xlink="http://www.w3.org/1999/xlink" width="12px" height="12px" viewBox="409 1253  12 12" xmlns="http://www.w3.org/2000/svg">
  <path d="M 415 1253  C 418.36 1253  421 1255.64  421 1259  C 421 1262.36  418.36 1265  415 1265  C 411.64 1265  409 1262.36  409 1259  C 409 1255.64  411.64 1253  415 1253  Z " fill-rule="nonzero" fill="#ffffff" stroke="none" />
  <path d="M 415 1253.5  C 418.08 1253.5  420.5 1255.92  420.5 1259  C 420.5 1262.08  418.08 1264.5  415 1264.5  C 411.92 1264.5  409.5 1262.08  409.5 1259  C 409.5 1255.92  411.92 1253.5  415 1253.5  Z " stroke-width="1" stroke="#797979" fill="none" />
  <path d="M 415 1262  C 413.32 1262  412 1260.68  412 1259  C 412 1257.32  413.32 1256  415 1256  C 416.68 1256  418 1257.32  418 1259  C 418 1260.68  416.68 1262  415 1262  " fill-rule="nonzero" fill="#797979" stroke="none" />
</svg>