<?xml version="1.0" encoding="utf-8"?>
<svg version="1.1" xmlns:xlink="http://www.w3.org/1999/xlink" width="12px" height="12px" viewBox="280 1770  12 12" xmlns="http://www.w3.org/2000/svg">
  <path d="M 286 1770  C 289.36 1770  292 1772.64  292 1776  C 292 1779.36  289.36 1782  286 1782  C 282.64 1782  280 1779.36  280 1776  C 280 1772.64  282.64 1770  286 1770  Z " fill-rule="nonzero" fill="#ffffff" stroke="none" />
  <path d="M 286 1770.5  C 289.08 1770.5  291.5 1772.92  291.5 1776  C 291.5 1779.08  289.08 1781.5  286 1781.5  C 282.92 1781.5  280.5 1779.08  280.5 1776  C 280.5 1772.92  282.92 1770.5  286 1770.5  Z " stroke-width="1" stroke="#797979" fill="none" />
  <path d="M 286 1779  C 284.32 1779  283 1777.68  283 1776  C 283 1774.32  284.32 1773  286 1773  C 287.68 1773  289 1774.32  289 1776  C 289 1777.68  287.68 1779  286 1779  " fill-rule="nonzero" fill="#797979" stroke="none" />
</svg>