<?xml version="1.0" encoding="utf-8"?>
<svg version="1.1" xmlns:xlink="http://www.w3.org/1999/xlink" width="12px" height="12px" viewBox="410 1770  12 12" xmlns="http://www.w3.org/2000/svg">
  <path d="M 416 1770  C 419.36 1770  422 1772.64  422 1776  C 422 1779.36  419.36 1782  416 1782  C 412.64 1782  410 1779.36  410 1776  C 410 1772.64  412.64 1770  416 1770  Z " fill-rule="nonzero" fill="#ffffff" stroke="none" />
  <path d="M 416 1770.5  C 419.08 1770.5  421.5 1772.92  421.5 1776  C 421.5 1779.08  419.08 1781.5  416 1781.5  C 412.92 1781.5  410.5 1779.08  410.5 1776  C 410.5 1772.92  412.92 1770.5  416 1770.5  Z " stroke-width="1" stroke="#797979" fill="none" />
  <path d="M 416 1779  C 414.32 1779  413 1777.68  413 1776  C 413 1774.32  414.32 1773  416 1773  C 417.68 1773  419 1774.32  419 1776  C 419 1777.68  417.68 1779  416 1779  " fill-rule="nonzero" fill="#797979" stroke="none" />
</svg>