<?xml version="1.0" encoding="utf-8"?>
<svg version="1.1" xmlns:xlink="http://www.w3.org/1999/xlink" width="36px" height="36px" xmlns="http://www.w3.org/2000/svg">
  <g transform="matrix(1 0 0 1 -2779 -690 )">
    <path d="M 2797 692  C 2805.96 692  2813 699.04  2813 708  C 2813 716.96  2805.96 724  2797 724  C 2788.04 724  2781 716.96  2781 708  C 2781 699.04  2788.04 692  2797 692  Z " fill-rule="nonzero" fill="#ffffff" stroke="none" />
    <path d="M 2797 691.5  C 2806.24 691.5  2813.5 698.76  2813.5 708  C 2813.5 717.24  2806.24 724.5  2797 724.5  C 2787.76 724.5  2780.5 717.24  2780.5 708  C 2780.5 698.76  2787.76 691.5  2797 691.5  Z " stroke-width="3" stroke="#ff6533" fill="none" />
  </g>
</svg>