<?xml version="1.0" encoding="utf-8"?>
<svg version="1.1" xmlns:xlink="http://www.w3.org/1999/xlink" width="45px" height="35px" xmlns="http://www.w3.org/2000/svg">
  <g transform="matrix(1 0 0 1 -31 -160 )">
    <path d="M 8.61328125 16.928267045454543  C 8.763950892857142 17.077414772727273  8.839285714285714 17.267992424242422  8.839285714285714 17.5  C 8.839285714285714 17.732007575757574  8.763950892857142 17.922585227272727  8.61328125 18.071732954545457  L 1.3811383928571428 25.230823863636367  C 1.23046875 25.37997159090909  1.0379464285714286 25.454545454545457  0.8035714285714285 25.454545454545457  C 0.5859375 25.454545454545457  0.3976004464285714 25.37582859848485  0.23856026785714288 25.218394886363633  C 0.07952008928571429 25.06096117424242  0 24.874526515151512  0 24.65909090909091  L 0 10.34090909090909  C 0 10.12547348484848  0.07952008928571429 9.939038825757574  0.23856026785714288 9.781605113636362  C 0.3976004464285714 9.624171401515149  0.5859375 9.545454545454545  0.8035714285714285 9.545454545454545  C 1.0379464285714286 9.545454545454545  1.23046875 9.62002840909091  1.3811383928571428 9.769176136363638  L 8.61328125 16.928267045454543  Z M 44.761439732142854 28.872514204545457  C 44.92047991071429 29.029947916666664  45 29.216382575757574  45 29.431818181818183  L 45 34.20454545454545  C 45 34.41998106060606  44.92047991071429 34.60641571969697  44.761439732142854 34.76384943181818  C 44.60239955357143 34.92128314393939  44.41406250000001 35  44.19642857142857 35  L 0.8035714285714285 35  C 0.5859375 35  0.3976004464285714 34.92128314393939  0.23856026785714288 34.76384943181818  C 0.07952008928571429 34.60641571969697  0 34.41998106060606  0 34.20454545454545  L 0 29.431818181818183  C 0 29.216382575757574  0.07952008928571429 29.029947916666664  0.23856026785714288 28.872514204545457  C 0.3976004464285714 28.715080492424246  0.5859375 28.636363636363633  0.8035714285714285 28  L 44.19642857142857 28  C 44.41406250000001 28.636363636363633  44.60239955357143 28.715080492424246  44.761439732142854 28.872514204545457  Z M 44.761439732142854 19.32705965909091  C 44.92047991071429 19.484493371212118  45 19.67092803030303  45 19.886363636363633  L 45 24.65909090909091  C 45 24.874526515151512  44.92047991071429 25.06096117424242  44.761439732142854 25.218394886363633  C 44.60239955357143 25.37582859848485  44.41406250000001 25.454545454545457  44.19642857142857 25  L 16.875 25  C 16.657366071428573 25.454545454545457  16.469029017857142 25.37582859848485  16.309988839285715 25.218394886363633  C 16.15094866071429 25.06096117424242  16.071428571428573 24.874526515151512  16.071428571428573 24.65909090909091  L 16.071428571428573 19.886363636363633  C 16.071428571428573 19.67092803030303  16.15094866071429 19.484493371212118  16.309988839285715 19.32705965909091  C 16.469029017857142 19.169625946969695  16.657366071428573 19.09090909090909  16.875 19  L 44.19642857142857 19  C 44.41406250000001 19.09090909090909  44.60239955357143 19.169625946969695  44.761439732142854 19.32705965909091  Z M 44.761439732142854 9.781605113636362  C 44.92047991071429 9.939038825757574  45 10.12547348484848  45 10.34090909090909  L 45 15.113636363636362  C 45 15.32907196969697  44.92047991071429 15.515506628787877  44.761439732142854 15.67294034090909  C 44.60239955357143 15.830374053030303  44.41406250000001 15.90909090909091  44.19642857142857 16  L 16.875 16  C 16.657366071428573 15.90909090909091  16.469029017857142 15.830374053030303  16.309988839285715 15.67294034090909  C 16.15094866071429 15.515506628787877  16.071428571428573 15.32907196969697  16.071428571428573 15.113636363636362  L 16.071428571428573 10.34090909090909  C 16.071428571428573 10.12547348484848  16.15094866071429 9.939038825757574  16.309988839285715 9.781605113636362  C 16.469029017857142 9.624171401515149  16.657366071428573 9.545454545454545  16.875 10  L 44.19642857142857 10  C 44.41406250000001 9.545454545454545  44.60239955357143 9.624171401515149  44.761439732142854 9.781605113636362  Z M 44.761439732142854 0.23615056818181712  C 44.92047991071429 0.39358428030302983  45 0.5800189393939365  45 0.7954545454545447  L 45 5.5681818181818175  C 45 5.783617424242421  44.92047991071429 5.970052083333329  44.761439732142854 6.127485795454545  C 44.60239955357143 6.284919507575758  44.41406250000001 6.3636363636363615  44.19642857142857 7  L 0.8035714285714285 7  C 0.5859375 6.3636363636363615  0.3976004464285714 6.284919507575758  0.23856026785714288 6.127485795454545  C 0.07952008928571429 5.970052083333329  0 5.783617424242421  0 5.5681818181818175  L 0 0.7954545454545447  C 0 0.5800189393939365  0.07952008928571429 0.39358428030302983  0.23856026785714288 0.23615056818181712  C 0.3976004464285714 0.07871685606060053  0.5859375 0  0.8035714285714285 0  L 44.19642857142857 0  C 44.41406250000001 0  44.60239955357143 0.07871685606060053  44.761439732142854 0.23615056818181712  Z " fill-rule="nonzero" fill="#d7d7d7" stroke="none" transform="matrix(1 0 0 1 31 160 )" />
  </g>
</svg>