<?xml version="1.0" encoding="utf-8"?>
<svg version="1.1" xmlns:xlink="http://www.w3.org/1999/xlink" width="24px" height="24px" xmlns="http://www.w3.org/2000/svg">
  <g transform="matrix(1 0 0 1 -282 -4389 )">
    <path d="M 294 4389  C 300.72 4389  306 4394.28  306 4401  C 306 4407.72  300.72 4413  294 4413  C 287.28 4413  282 4407.72  282 4401  C 282 4394.28  287.28 4389  294 4389  Z " fill-rule="nonzero" fill="#ffffff" stroke="none" fill-opacity="0" />
    <path d="M 294 4389.5  C 300.44 4389.5  305.5 4394.56  305.5 4401  C 305.5 4407.44  300.44 4412.5  294 4412.5  C 287.56 4412.5  282.5 4407.44  282.5 4401  C 282.5 4394.56  287.56 4389.5  294 4389.5  Z " stroke-width="1" stroke="#f2f2f2" fill="none" />
  </g>
</svg>