<?xml version="1.0" encoding="utf-8"?>
<svg version="1.1" xmlns:xlink="http://www.w3.org/1999/xlink" width="12px" height="12px" viewBox="121 1153  12 12" xmlns="http://www.w3.org/2000/svg">
  <path d="M 127 1153  C 130.36 1153  133 1155.64  133 1159  C 133 1162.36  130.36 1165  127 1165  C 123.64 1165  121 1162.36  121 1159  C 121 1155.64  123.64 1153  127 1153  Z " fill-rule="nonzero" fill="#f0f0f0" stroke="none" />
  <path d="M 127 1153.5  C 130.08 1153.5  132.5 1155.92  132.5 1159  C 132.5 1162.08  130.08 1164.5  127 1164.5  C 123.92 1164.5  121.5 1162.08  121.5 1159  C 121.5 1155.92  123.92 1153.5  127 1153.5  Z " stroke-width="1" stroke="#797979" fill="none" />
  <path d="M 127 1162  C 125.32 1162  124 1160.68  124 1159  C 124 1157.32  125.32 1156  127 1156  C 128.68 1156  130 1157.32  130 1159  C 130 1160.68  128.68 1162  127 1162  " fill-rule="nonzero" fill="#797979" stroke="none" />
</svg>