<?xml version="1.0" encoding="utf-8"?>
<svg version="1.1" xmlns:xlink="http://www.w3.org/1999/xlink" width="12px" height="12px" viewBox="24 2191.5  12 12" xmlns="http://www.w3.org/2000/svg">
  <path d="M 30 2191.5  C 33.36 2191.5  36 2194.14  36 2197.5  C 36 2200.86  33.36 2203.5  30 2203.5  C 26.64 2203.5  24 2200.86  24 2197.5  C 24 2194.14  26.64 2191.5  30 2191.5  Z " fill-rule="nonzero" fill="#ffffff" stroke="none" />
  <path d="M 30 2192  C 33.08 2192  35.5 2194.42  35.5 2197.5  C 35.5 2200.58  33.08 2203  30 2203  C 26.92 2203  24.5 2200.58  24.5 2197.5  C 24.5 2194.42  26.92 2192  30 2192  Z " stroke-width="1" stroke="#797979" fill="none" />
  <path d="M 30 2200.5  C 28.32 2200.5  27 2199.18  27 2197.5  C 27 2195.82  28.32 2194.5  30 2194.5  C 31.68 2194.5  33 2195.82  33 2197.5  C 33 2199.18  31.68 2200.5  30 2200.5  " fill-rule="nonzero" fill="#797979" stroke="none" />
</svg>