<?xml version="1.0" encoding="utf-8"?>
<svg version="1.1" xmlns:xlink="http://www.w3.org/1999/xlink" width="12px" height="12px" viewBox="182 2191.5  12 12" xmlns="http://www.w3.org/2000/svg">
  <path d="M 188 2191.5  C 191.36 2191.5  194 2194.14  194 2197.5  C 194 2200.86  191.36 2203.5  188 2203.5  C 184.64 2203.5  182 2200.86  182 2197.5  C 182 2194.14  184.64 2191.5  188 2191.5  Z " fill-rule="nonzero" fill="#f0f0f0" stroke="none" />
  <path d="M 188 2192  C 191.08 2192  193.5 2194.42  193.5 2197.5  C 193.5 2200.58  191.08 2203  188 2203  C 184.92 2203  182.5 2200.58  182.5 2197.5  C 182.5 2194.42  184.92 2192  188 2192  Z " stroke-width="1" stroke="#797979" fill="none" />
  <path d="M 188 2200.5  C 186.32 2200.5  185 2199.18  185 2197.5  C 185 2195.82  186.32 2194.5  188 2194.5  C 189.68 2194.5  191 2195.82  191 2197.5  C 191 2199.18  189.68 2200.5  188 2200.5  " fill-rule="nonzero" fill="#797979" stroke="none" />
</svg>