<?xml version="1.0" encoding="utf-8"?>
<svg version="1.1" xmlns:xlink="http://www.w3.org/1999/xlink" width="26px" height="20px" xmlns="http://www.w3.org/2000/svg">
  <g transform="matrix(1 0 0 1 -676 -2879 )">
    <path d="M 25.530322580645162 2.7609427609427617  C 25.843440860215058 3.075196408529741  26.000000000000007 3.45679012345679  26 3.9057239057239057  C 26.000000000000007 4.354657687991019  25.843440860215058 4.736251402918068  25.530322580645162 5.05050505050505  L 13.385806451612904 17.23905723905724  L 11.104516129032259 19.52861952861953  C 10.791397849462367 19.84287317620651  10.411182795698927 20  9.963870967741936 20  C 9.516559139784947 20  9.136344086021506 19.84287317620651  8.823225806451614 19.52861952861953  L 6.541935483870967 17.23905723905724  L 0.46967741935483875 11.144781144781145  C 0.1565591397849464 10.830527497194161  0 10.448933782267114  0 10  C 0 9.551066217732885  0.1565591397849464 9.169472502805835  0.46967741935483875 8.855218855218856  L 2.750967741935484 6.565656565656566  C 3.0640860215053767 6.251402918069584  3.444301075268818 6.094276094276092  3.891612903225807 6.094276094276094  C 4.3389247311827965 6.094276094276092  4.719139784946237 6.251402918069584  5.032258064516129 6.565656565656566  L 9.963870967741936 11.531986531986531  L 20.96774193548387 0.47138047138047146  C 21.280860215053767 0.15712682379348974  21.661075268817207 0  22.108387096774194 0  C 22.555698924731182 0  22.935913978494625 0.15712682379348974  23.249032258064517 0.47138047138047146  L 25.530322580645162 2.7609427609427617  Z " fill-rule="nonzero" fill="#70b603" stroke="none" transform="matrix(1 0 0 1 676 2879 )" />
  </g>
</svg>