<?xml version="1.0" encoding="utf-8"?>
<svg version="1.1" xmlns:xlink="http://www.w3.org/1999/xlink" width="15px" height="15px" xmlns="http://www.w3.org/2000/svg">
  <g transform="matrix(1 0 0 1 -669 -5095 )">
    <path d="M 12.392578125 9.563595068137573  C 12.672526041666668 8.904931862426995  12.8125 8.215444516547695  12.8125 7.495133030499675  C 12.8125 6.45035691109669  12.529296875 5.4931862426995455  11.962890625 4.623621025308243  L 4.599609375 11.953277092796885  C 5.491536458333334 12.530824140168722  6.458333333333334 12.81959766385464  7.5 12.81959766385464  C 8.22265625 12.81959766385464  8.9111328125 12.67845554834523  9.5654296875 12.396171317326413  C 10.2197265625 12.113887086307592  10.784505208333334 11.73588578844906  11.259765625 11.262167423750812  C 11.735026041666668 10.788449059052562  12.112630208333336 10.222258273848148  12.392578125 9.563595068137573  Z M 2.1875 7.495133030499675  C 2.1875 8.546398442569759  2.4772135416666665 9.516547696301101  3.056640625 10.405580791693705  L 10.4296875 3.0661907852044132  C 9.550781250000002 2.4756651524983777  8.57421875 2.1804023361453595  7.5 2.1804023361453595  C 6.536458333333333 2.1804023361453595  5.647786458333334 2.4172615184944837  4.833984375 2.890979883192731  C 4.020182291666667 3.3646982478909777  3.375651041666667 4.010382868267358  2.900390625 4.8280337443218695  C 2.4251302083333335 5.64568462037638  2.1875 6.5347177157689815  2.1875 7.495133030499675  Z M 14.404296875 4.579818299805321  C 14.801432291666664 5.504542504866969  15 6.4763140817650875  15 7.495133030499675  C 15 8.513951979234262  14.801432291666664 9.487345879299156  14.404296875 10.415314730694355  C 14.007161458333334 11.343283582089551  13.474934895833336 12.141466580142763  12.8076171875 12.80986372485399  C 12.140299479166668 13.478260869565217  11.3427734375 14.010382868267358  10.4150390625 14.406229720960415  C 9.487304687500002 14.802076573653473  8.515625 15  7.5 15  C 6.484375 15  5.5126953125 14.802076573653473  4.5849609375 14.406229720960415  C 3.6572265625 14.010382868267358  2.859700520833334 13.478260869565217  2.1923828125 12.80986372485399  C 1.525065104166667 12.141466580142763  0.9928385416666667 11.343283582089551  0.5957031250000001 10.415314730694355  C 0.19856770833333337 9.487345879299156  0 8.513951979234262  0 7.495133030499675  C 0 6.4763140817650875  0.19856770833333337 5.504542504866969  0.5957031250000001 4.579818299805321  C 0.9928385416666667 3.655094094743672  1.525065104166667 2.8585334198572347  2.1923828125 2.19013627514601  C 2.859700520833334 1.521739130434781  3.6572265625 0.9896171317326391  4.5849609375 0.5937702790395855  C 5.5126953125 0.19792342634652682  6.484375 0  7.5 0  C 8.515625 0  9.487304687500002 0.19792342634652682  10.4150390625 0.5937702790395855  C 11.3427734375 0.9896171317326391  12.140299479166668 1.521739130434781  12.8076171875 2.19013627514601  C 13.474934895833336 2.8585334198572347  14.007161458333334 3.655094094743672  14.404296875 4.579818299805321  Z " fill-rule="nonzero" fill="#3f9eff" stroke="none" transform="matrix(1 0 0 1 669 5095 )" />
  </g>
</svg>