<?xml version="1.0" encoding="utf-8"?>
<svg version="1.1" xmlns:xlink="http://www.w3.org/1999/xlink" width="15px" height="15px" xmlns="http://www.w3.org/2000/svg">
  <g transform="matrix(1 0 0 1 -669 -5460 )">
    <path d="M 14.619140625 0.673828125  C 14.873046875 0.7845052083333331  15 0.9765624999999994  15 1.2500000000000004  L 15 5.625  C 15 5.794270833333333  14.938151041666666 5.940755208333333  14.814453125 6.064453125  C 14.690755208333336 6.188151041666667  14.544270833333336 6.249999999999999  14.375 6.249999999999999  L 10 6.249999999999999  C 9.7265625 6.249999999999999  9.534505208333334 6.119791666666668  9.423828125 5.859375  C 9.313151041666668 5.605468749999999  9.358723958333336 5.380859375000001  9.560546875 5.185546875  L 10.908203125 3.837890625  C 9.944661458333336 2.9459635416666647  8.80859375 2.4999999999999996  7.5 2.4999999999999996  C 6.822916666666668 2.4999999999999996  6.1767578125 2.6318359374999996  5.5615234375 2.8955078124999996  C 4.9462890625 3.1591796874999996  4.4140625 3.515625  3.9648437500000004 3.9648437499999996  C 3.515625 4.414062500000001  3.1591796875 4.946289062499999  2.8955078125 5.561523437499999  C 2.6318359375 6.176757812499999  2.5 6.822916666666666  2.5 7.5  C 2.5 8.177083333333332  2.6318359375 8.823242187499998  2.8955078125 9.438476562499998  C 3.1591796875 10.053710937499998  3.515625 10.585937500000002  3.9648437500000004 11.035156249999998  C 4.4140625 11.484375  4.9462890625 11.8408203125  5.5615234375 12.1044921875  C 6.1767578125 12.3681640625  6.822916666666668 12.5  7.5 12.5  C 8.274739583333334 12.5  9.007161458333334 12.330729166666668  9.697265625 11.9921875  C 10.387369791666668 11.653645833333334  10.970052083333336 11.175130208333334  11.4453125 10.556640625000002  C 11.490885416666666 10.491536458333332  11.565755208333336 10.452473958333332  11.669921875 10.439453125000002  C 11.767578125 10.439453125000002  11.848958333333336 10.468750000000002  11.9140625 10.527343750000002  L 13.251953125 11.875  C 13.310546875 11.927083333333332  13.341471354166668 11.993815104166668  13.3447265625 12.0751953125  C 13.347981770833334 12.156575520833332  13.323567708333336 12.229817708333332  13.271484375 12.294921875  C 12.561848958333336 13.154296875  11.702473958333336 13.819986979166666  10.693359375 14.2919921875  C 9.684244791666668 14.763997395833332  8.619791666666666 15  7.5 15  C 6.484375 15  5.514322916666668 14.801432291666666  4.58984375 14.404296875  C 3.665364583333334 14.007161458333332  2.867838541666667 13.473307291666668  2.197265625 12.802734375  C 1.5266927083333335 12.132161458333332  0.9928385416666667 11.334635416666668  0.5957031250000001 10.410156250000002  C 0.19856770833333337 9.485677083333332  0 8.515624999999998  0 7.5  C 0 6.484374999999999  0.19856770833333337 5.514322916666667  0.5957031250000001 4.589843750000001  C 0.9928385416666667 3.6653645833333326  1.5266927083333335 2.8678385416666656  2.197265625 2.197265625  C 2.867838541666667 1.5266927083333326  3.665364583333334 0.9928385416666657  4.58984375 0.5957031249999994  C 5.514322916666668 0.19856770833333315  6.484375 0  7.5 0  C 8.45703125 0  9.383138020833336 0.18066406250000056  10.2783203125 0.5419921875  C 11.173502604166668 0.9033203124999994  11.969401041666668 1.4127604166666652  12.666015625 2.0703125000000004  L 13.935546875 0.8105468750000006  C 14.124348958333334 0.6087239583333331  14.352213541666668 0.5631510416666652  14.619140625 0.673828125  Z " fill-rule="nonzero" fill="#3f9eff" stroke="none" transform="matrix(1 0 0 1 669 5460 )" />
  </g>
</svg>