<?xml version="1.0" encoding="utf-8"?>
<svg version="1.1" xmlns:xlink="http://www.w3.org/1999/xlink" width="13px" height="15px" xmlns="http://www.w3.org/2000/svg">
  <g transform="matrix(1 0 0 1 -675 -4599 )">
    <path d="M 12.729166666666666 1.071428571428571  L 11.916666666666666 1.071428571428571  C 11.916666666666666 2.5279017857142856  11.6162109375 3.8155691964285716  11.015299479166666 4.934430803571429  C 10.414388020833334 6.053292410714285  9.662543402777779 6.908482142857142  8.759765625 7.5  C 9.662543402777779 8.091517857142856  10.414388020833334 8.946707589285714  11.015299479166666 10.065569196428571  C 11.6162109375 11.18443080357143  11.916666666666666 12.472098214285715  11.916666666666666 13.928571428571429  L 12.729166666666666 13.928571428571429  C 12.808159722222223 13.928571428571429  12.873046875 13.953683035714285  12.923828125 14.00390625  C 12.974609375 14.054129464285715  13 14.118303571428573  13 14.196428571428571  L 13 14.732142857142856  C 13 14.810267857142858  12.974609375 14.874441964285715  12.923828125 14.924665178571429  C 12.873046875 14.974888392857144  12.808159722222223 15  12.729166666666666 15  L 0.2708333333333333 15  C 0.1918402777777778 15  0.12695312500000003 14.974888392857144  0.076171875 14.924665178571429  C 0.025390625 14.874441964285715  0 14.810267857142858  0 14.732142857142856  L 0 14.196428571428571  C 0 14.118303571428573  0.025390625 14.054129464285715  0.076171875 14.00390625  C 0.12695312500000003 13.953683035714285  0.1918402777777778 13.928571428571429  0.2708333333333333 13.928571428571429  L 1.0833333333333333 13.928571428571429  C 1.0833333333333333 12.472098214285715  1.3837890625 11.18443080357143  1.9847005208333335 10.065569196428571  C 2.5856119791666665 8.946707589285714  3.3374565972222223 8.091517857142856  4.240234375 7.5  C 3.3374565972222223 6.908482142857142  2.5856119791666665 6.053292410714285  1.9847005208333335 4.934430803571429  C 1.3837890625 3.8155691964285716  1.0833333333333333 2.5279017857142856  1.0833333333333333 1.071428571428571  L 0.2708333333333333 1.071428571428571  C 0.1918402777777778 1.071428571428571  0.12695312500000003 1.0463169642857144  0.076171875 0.99609375  C 0.025390625 0.9458705357142855  0 0.8816964285714279  0 0.803571428571429  L 0 0.26785714285714357  C 0 0.18973214285714135  0.025390625 0.12555803571428548  0.076171875 0.07533482142857095  C 0.12695312500000003 0.02511160714285643  0.1918402777777778 0  0.2708333333333333 0  L 12.729166666666666 0  C 12.808159722222223 0  12.873046875 0.02511160714285643  12.923828125 0.07533482142857095  C 12.974609375 0.12555803571428548  13 0.18973214285714135  13 0.26785714285714357  L 13 0.803571428571429  C 13 0.8816964285714279  12.974609375 0.9458705357142855  12.923828125 0.99609375  C 12.873046875 1.0463169642857144  12.808159722222223 1.071428571428571  12.729166666666666 1.071428571428571  Z M 7.138997395833334 7.194475446428571  C 7.203884548611112 7.102399553571429  7.289930555555556 7.036830357142858  7.397135416666666 6.997767857142857  C 7.831597222222224 6.835937499999999  8.251953125000002 6.577845982142857  8.658203125 6.223493303571429  C 9.064453125 5.869140624999999  9.429796006944445 5.443638392857142  9.754231770833334 4.946986607142857  C 10.078667534722223 4.45033482142857  10.33962673611111 3.8643973214285703  10.537109375 3.1891741071428563  C 10.73459201388889 2.5139508928571423  10.833333333333334 1.8080357142857144  10.833333333333334 1.071428571428571  L 2.1666666666666665 1.071428571428571  C 2.1666666666666665 1.8080357142857144  2.265407986111111 2.5139508928571423  2.462890625 3.1891741071428563  C 2.6603732638888893 3.8643973214285703  2.9213324652777777 4.45033482142857  3.2457682291666665 4.946986607142857  C 3.570203993055556 5.443638392857142  3.935546875000001 5.869140624999999  4.341796875 6.223493303571429  C 4.748046875 6.577845982142857  5.168402777777779 6.835937499999999  5.602864583333333 6.997767857142857  C 5.710069444444445 7.036830357142858  5.796115451388889 7.102399553571429  5.861002604166667 7.194475446428571  C 5.925889756944445 7.286551339285714  5.958333333333333 7.388392857142858  5.958333333333333 7.5  C 5.958333333333333 7.611607142857142  5.925889756944445 7.713448660714286  5.861002604166667 7.805524553571429  C 5.796115451388889 7.897600446428571  5.710069444444445 7.963169642857142  5.602864583333333 8.002232142857142  C 4.829861111111112 8.286830357142858  4.141493055555555 8.833705357142858  3.537760416666667 9.642857142857142  L 9.462239583333334 9.642857142857142  C 8.858506944444445 8.833705357142858  8.17013888888889 8.286830357142858  7.397135416666666 8.002232142857142  C 7.289930555555556 7.963169642857142  7.203884548611112 7.897600446428571  7.138997395833334 7.805524553571429  C 7.074110243055556 7.713448660714286  7.041666666666666 7.611607142857142  7.041666666666666 7.5  C 7.041666666666666 7.388392857142858  7.074110243055556 7.286551339285714  7.138997395833334 7.194475446428571  Z " fill-rule="nonzero" fill="#d7d7d7" stroke="none" transform="matrix(1 0 0 1 675 4599 )" />
  </g>
</svg>