<?xml version="1.0" encoding="utf-8"?>
<svg version="1.1" xmlns:xlink="http://www.w3.org/1999/xlink" width="11px" height="5px" xmlns="http://www.w3.org/2000/svg">
  <g transform="matrix(1 0 0 1 -119 -624 )">
    <path d="M 10.7958984375 0.1649305555555558  C 10.931966145833334 0.27488425925925875  11 0.40509259259259134  11 0.5555555555555558  C 11 0.706018518518518  10.931966145833334 0.8362268518518512  10.7958984375 0.9461805555555558  L 5.9833984375 4.835069444444445  C 5.847330729166667 4.945023148148149  5.686197916666667 5  5.5 5  C 5.313802083333334 5  5.152669270833334 4.945023148148149  5.0166015625 4.835069444444445  L 0.2041015625 0.9461805555555558  C 0.06803385416666666 0.8362268518518512  0 0.706018518518518  0 0.5555555555555558  C 0 0.40509259259259134  0.06803385416666666 0.27488425925925875  0.2041015625 0.1649305555555558  C 0.34016927083333337 0.054976851851851194  0.5013020833333334 0  0.6875 0  L 10.3125 0  C 10.498697916666668 0  10.659830729166668 0.054976851851851194  10.7958984375 0.1649305555555558  Z " fill-rule="nonzero" fill="#7f7f7f" stroke="none" fill-opacity="0.996078431372549" transform="matrix(1 0 0 1 119 624 )" />
  </g>
</svg>