<?xml version="1.0" encoding="utf-8"?>
<svg version="1.1" xmlns:xlink="http://www.w3.org/1999/xlink" width="28px" height="15px" xmlns="http://www.w3.org/2000/svg">
  <g transform="matrix(1 0 0 1 -748 -591 )">
    <path d="M 15.1962890625 9.826171875  C 15.5654296875 9.087890625  15.75 8.312499999999998  15.75 7.5  C 15.75 6.6875  15.5654296875 5.912109375  15.1962890625 5.173828125000001  C 14.8271484375 4.435546874999999  14.328125 3.796874999999999  13.69921875 3.2578124999999996  C 13.070312500000002 2.7187500000000004  12.325195312500002 2.2910156249999996  11.4638671875 1.9746093749999993  C 10.6025390625 1.6582031250000007  9.697916666666668 1.4999999999999996  8.75 1.4999999999999996  C 7.802083333333334 1.4999999999999996  6.8974609375 1.6582031250000007  6.0361328125 1.9746093749999993  C 5.1748046875 2.2910156249999996  4.4296875 2.7187500000000004  3.80078125 3.2578124999999996  C 3.171875 3.796874999999999  2.6728515625 4.435546874999999  2.3037109375 5.173828125000001  C 1.9345703125 5.912109375  1.75 6.6875  1.75 7.5  C 1.75 8.312499999999998  1.9345703125 9.087890625  2.3037109375 9.826171875  C 2.6728515625 10.564453125  3.171875 11.203125  3.80078125 11.7421875  C 4.4296875 12.28125  5.1748046875 12.708984375  6.0361328125 13.025390625  C 6.8974609375 13.341796875  7.802083333333334 13.5  8.75 13.5  C 9.697916666666668 13.5  10.6025390625 13.341796875  11.4638671875 13.025390625  C 12.325195312500002 12.708984375  13.070312500000002 12.28125  13.69921875 11.7421875  C 14.328125 11.203125  14.8271484375 10.564453125  15.1962890625 9.826171875  Z M 25.6962890625 9.826171875  C 26.065429687500004 9.087890625  26.250000000000004 8.312499999999998  26.25 7.5  C 26.250000000000004 6.6875  26.065429687500004 5.912109375  25.6962890625 5.173828125000001  C 25.327148437500004 4.435546874999999  24.828125000000004 3.796874999999999  24.19921875 3.2578124999999996  C 23.570312500000004 2.7187500000000004  22.825195312500004 2.2910156249999996  21.9638671875 1.9746093749999993  C 21.1025390625 1.6582031250000007  20.197916666666668 1.4999999999999996  19.25 1.4999999999999996  L 13.97265625 1.4999999999999996  C 15.057291666666668 2.2031249999999996  15.916341145833334 3.0781249999999982  16.5498046875 4.125  C 17.183268229166668 5.171874999999999  17.5 6.296874999999998  17.5 7.5  C 17.5 8.703125  17.183268229166668 9.828124999999998  16.5498046875 10.875  C 15.916341145833334 11.921874999999998  15.057291666666668 12.796875  13.97265625 13.5  L 19.25 13.5  C 20.197916666666668 13.5  21.1025390625 13.341796875  21.9638671875 13.025390625  C 22.825195312500004 12.708984375  23.570312500000004 12.28125  24.19921875 11.7421875  C 24.828125000000004 11.203125  25.327148437500004 10.564453125  25.6962890625 9.826171875  Z M 27.302734375 4.587890625000001  C 27.767578125 5.513671875  28 6.484374999999999  28 7.5  C 28 8.515624999999998  27.767578125 9.486328125  27.302734375 10.412109375  C 26.837890625 11.337890625  26.2158203125 12.134765625  25.4365234375 12.802734375  C 24.6572265625 13.470703125  23.7275390625 14.00390625  22.6474609375 14.40234375  C 21.5673828125 14.80078125  20.434895833333336 15  19.25 15  L 8.75 15  C 7.565104166666667 15  6.432617187500001 14.80078125  5.3525390625 14.40234375  C 4.2724609375 14.00390625  3.3427734375000004 13.470703125  2.5634765625 12.802734375  C 1.7841796875 12.134765625  1.1621093750000002 11.337890625  0.697265625 10.412109375  C 0.232421875 9.486328125  0 8.515624999999998  0 7.5  C 0 6.484374999999999  0.232421875 5.513671875  0.697265625 4.587890625000001  C 1.1621093750000002 3.662109375  1.7841796875 2.8652343750000004  2.5634765625 2.197265625  C 3.3427734375000004 1.5292968749999996  4.2724609375 0.99609375  5.3525390625 0.5976562499999993  C 6.432617187500001 0.19921875000000033  7.565104166666667 0  8.75 0  L 19.25 0  C 20.434895833333336 0  21.5673828125 0.19921875000000033  22.6474609375 0.5976562499999993  C 23.7275390625 0.99609375  24.6572265625 1.5292968749999996  25.4365234375 2.197265625  C 26.2158203125 2.8652343750000004  26.837890625 3.662109375  27.302734375 4.587890625000001  Z " fill-rule="nonzero" fill="#d9001b" stroke="none" transform="matrix(1 0 0 1 748 591 )" />
  </g>
</svg>