<?xml version="1.0" encoding="utf-8"?>
<svg version="1.1" xmlns:xlink="http://www.w3.org/1999/xlink" width="5px" height="10px" xmlns="http://www.w3.org/2000/svg">
  <g transform="matrix(1 0 0 1 -894 -791 )">
    <path d="M 4.914089347079037 4.769539078156313  C 4.971363115693014 4.836339345357381  5 4.91315965263861  5 5  C 5 5.086840347361389  4.971363115693014 5.163660654642618  4.914089347079037 5.230460921843687  L 0.9106529209621993 9.899799599198397  C 0.8533791523482246 9.966599866399466  0.7875143184421535 10  0.7130584192439862 10  C 0.6386025200458191 10  0.5727376861397481 9.966599866399466  0.5154639175257731 9.899799599198397  L 0.0859106529209622 9.39879759519038  C 0.02863688430698742 9.331997327989312  0 9.255177020708082  0 9.168336673346694  C 0 9.081496325985302  0.02863688430698742 9.004676018704075  0.0859106529209622 8.937875751503006  L 3.4621993127147768 5  L 0.0859106529209622 1.062124248496994  C 0.02863688430698742 0.9953239812959247  0 0.9185036740146957  0 0.8316633266533069  C 0 0.7448229792919159  0.02863688430698742 0.6680026720106869  0.0859106529209622 0.6012024048096187  L 0.5154639175257731 0.1002004008016033  C 0.5727376861397481 0.033400133600534065  0.6386025200458191 0  0.7130584192439862 0  C 0.7875143184421535 0  0.8533791523482246 0.033400133600534065  0.9106529209621993 0.1002004008016033  L 4.914089347079037 4.769539078156313  Z " fill-rule="nonzero" fill="#7f7f7f" stroke="none" transform="matrix(1 0 0 1 894 791 )" />
  </g>
</svg>