<?xml version="1.0" encoding="utf-8"?>
<svg version="1.1" xmlns:xlink="http://www.w3.org/1999/xlink" width="20px" height="20px" xmlns="http://www.w3.org/2000/svg">
  <g transform="matrix(1 0 0 1 -940 -158 )">
    <path d="M 19.4921875 0.8984375  C 19.830729166666668 1.0460069444444442  20 1.3020833333333326  20 1.6666666666666674  L 20 7.5  C 20 7.725694444444445  19.91753472222222 7.921006944444445  19.752604166666668 8.0859375  C 19.587673611111114 8.250868055555555  19.392361111111114 8.333333333333332  19.166666666666668 8.333333333333332  L 13.333333333333332 8.333333333333332  C 12.96875 8.333333333333332  12.71267361111111 8.159722222222223  12.565104166666668 7.8125  C 12.417534722222223 7.473958333333332  12.478298611111114 7.174479166666668  12.747395833333332 6.9140625  L 14.544270833333332 5.1171875  C 13.259548611111114 3.927951388888886  11.744791666666668 3.3333333333333326  10 3.3333333333333326  C 9.097222222222223 3.3333333333333326  8.235677083333334 3.5091145833333326  7.415364583333334 3.8606770833333326  C 6.595052083333334 4.212239583333332  5.885416666666666 4.6875  5.286458333333334 5.286458333333332  C 4.6875 5.885416666666668  4.212239583333333 6.595052083333332  3.860677083333333 7.415364583333332  C 3.509114583333333 8.235677083333332  3.333333333333333 9.097222222222221  3.333333333333333 10  C 3.333333333333333 10.902777777777777  3.509114583333333 11.764322916666664  3.860677083333333 12.584635416666664  C 4.212239583333333 13.404947916666664  4.6875 14.114583333333336  5.286458333333334 14.713541666666664  C 5.885416666666666 15.3125  6.595052083333334 15.787760416666668  7.415364583333334 16.139322916666668  C 8.235677083333334 16.490885416666668  9.097222222222223 16.666666666666668  10 16.666666666666668  C 11.03298611111111 16.666666666666668  12.00954861111111 16.44097222222222  12.9296875 15.989583333333332  C 13.849826388888891 15.538194444444445  14.626736111111114 14.90017361111111  15.260416666666668 14.075520833333336  C 15.321180555555555 13.988715277777777  15.421006944444446 13.936631944444443  15.559895833333332 13.919270833333336  C 15.690104166666668 13.919270833333336  15.798611111111114 13.958333333333336  15.885416666666668 14.036458333333336  L 17.669270833333332 15.833333333333332  C 17.747395833333332 15.902777777777777  17.78862847222222 15.991753472222223  17.79296875 16.100260416666668  C 17.79730902777778 16.20876736111111  17.764756944444446 16.30642361111111  17.6953125 16.393229166666668  C 16.749131944444446 17.5390625  15.603298611111114 18.426649305555557  14.2578125 19.055989583333332  C 12.912326388888891 19.68532986111111  11.493055555555555 20  10 20  C 8.645833333333334 20  7.352430555555557 19.735243055555557  6.119791666666666 19.205729166666668  C 4.887152777777779 18.67621527777778  3.8237847222222228 17.96440972222222  2.9296875 17.0703125  C 2.0355902777777777 16.17621527777778  1.3237847222222223 15.112847222222223  0.7942708333333335 13.880208333333336  C 0.26475694444444453 12.647569444444443  0 11.354166666666664  0 10  C 0 8.645833333333332  0.26475694444444453 7.352430555555555  0.7942708333333335 6.119791666666668  C 1.3237847222222223 4.887152777777777  2.0355902777777777 3.823784722222221  2.9296875 2.9296875  C 3.8237847222222228 2.035590277777777  4.887152777777779 1.323784722222221  6.119791666666666 0.7942708333333326  C 7.352430555555557 0.2647569444444442  8.645833333333334 0  10 0  C 11.276041666666668 0  12.510850694444446 0.2408854166666674  13.704427083333332 0.72265625  C 14.898003472222223 1.2044270833333326  15.959201388888891 1.8836805555555536  16.888020833333332 2.7604166666666674  L 18.580729166666668 1.0807291666666674  C 18.83246527777778 0.8116319444444442  19.13628472222222 0.7508680555555536  19.4921875 0.8984375  Z " fill-rule="nonzero" fill="#aaaaaa" stroke="none" transform="matrix(1 0 0 1 940 158 )" />
  </g>
</svg>