<?xml version="1.0" encoding="utf-8"?>
<svg version="1.1" xmlns:xlink="http://www.w3.org/1999/xlink" width="10px" height="10px" xmlns="http://www.w3.org/2000/svg">
  <g transform="matrix(1 0 0 1 -332 -1462 )">
    <path d="M 5.774739583333334 8.274739583333334  C 5.813802083333334 8.235677083333334  5.833333333333334 8.18576388888889  5.833333333333334 8.125  L 5.833333333333334 6.875  C 5.833333333333334 6.814236111111109  5.813802083333334 6.764322916666668  5.774739583333334 6.725260416666668  C 5.735677083333334 6.686197916666668  5.685763888888889 6.666666666666668  5.625 6.666666666666668  L 4.375 6.666666666666668  C 4.314236111111112 6.666666666666668  4.264322916666667 6.686197916666668  4.225260416666667 6.725260416666668  C 4.186197916666667 6.764322916666668  4.166666666666667 6.814236111111109  4.166666666666667 6.875  L 4.166666666666667 8.125  C 4.166666666666667 8.18576388888889  4.186197916666667 8.235677083333334  4.225260416666667 8.274739583333334  C 4.264322916666667 8.313802083333334  4.314236111111112 8.333333333333334  4.375 8.333333333333334  L 5.625 8.333333333333334  C 5.685763888888889 8.333333333333334  5.735677083333334 8.313802083333334  5.774739583333334 8.274739583333334  Z M 7.418619791666666 4.27734375  C 7.472873263888889 4.116753472222222  7.5 3.9409722222222223  7.5 3.75  C 7.5 3.3680555555555545  7.379557291666666 3.014322916666666  7.138671875 2.688802083333334  C 6.897786458333334 2.36328125  6.597222222222223 2.1115451388888884  6.236979166666666 1.93359375  C 5.876736111111112 1.7556423611111105  5.5078125 1.6666666666666663  5.130208333333334 1.6666666666666663  C 4.075520833333333 1.6666666666666663  3.270399305555556 2.12890625  2.71484375 3.053385416666666  C 2.649739583333334 3.157552083333334  2.6671006944444446 3.248697916666666  2.766927083333333 3.326822916666666  L 3.626302083333333 3.977864583333334  C 3.6566840277777786 4.00390625  3.697916666666667 4.016927083333334  3.75 4.016927083333334  C 3.8194444444444446 4.016927083333334  3.873697916666667 3.990885416666666  3.912760416666667 3.938802083333334  C 4.142795138888889 3.643663194444444  4.329427083333333 3.444010416666666  4.47265625 3.33984375  C 4.620225694444445 3.235677083333334  4.806857638888889 3.18359375  5.032552083333334 3.18359375  C 5.240885416666666 3.18359375  5.426432291666666 3.2400173611111107  5.589192708333334 3.352864583333334  C 5.751953125 3.4657118055555545  5.833333333333334 3.593749999999999  5.833333333333334 3.736979166666666  C 5.833333333333334 3.9019097222222223  5.789930555555555 4.034288194444445  5.703125 4.134114583333334  C 5.6163194444444455 4.233940972222222  5.46875 4.331597222222222  5.260416666666666 4.427083333333334  C 4.986979166666667 4.548611111111111  4.736328125 4.736328125  4.508463541666667 4.990234375  C 4.280598958333333 5.244140625  4.166666666666667 5.516493055555555  4.166666666666667 5.807291666666668  L 4.166666666666667 6.041666666666668  C 4.166666666666667 6.102430555555555  4.186197916666667 6.15234375  4.225260416666667 6.19140625  C 4.264322916666667 6.23046875  4.314236111111112 6.25  4.375 6.25  L 5.625 6.25  C 5.685763888888889 6.25  5.735677083333334 6.23046875  5.774739583333334 6.19140625  C 5.813802083333334 6.15234375  5.833333333333334 6.102430555555555  5.833333333333334 6.041666666666668  C 5.833333333333334 5.959201388888888  5.8799913194444455 5.851779513888888  5.973307291666666 5.719401041666668  C 6.066623263888889 5.587022569444445  6.184895833333334 5.479600694444445  6.328125 5.397135416666668  C 6.467013888888889 5.319010416666668  6.5733506944444455 5.257161458333332  6.647135416666666 5.211588541666668  C 6.720920138888889 5.166015625  6.820746527777778 5.090060763888888  6.946614583333334 4.983723958333334  C 7.072482638888889 4.877387152777778  7.1690538194444455 4.773220486111111  7.236328125 4.671223958333334  C 7.303602430555557 4.5692274305555545  7.3643663194444455 4.437934027777778  7.418619791666666 4.27734375  Z M 9.329427083333334 2.490234375  C 9.776475694444443 3.256293402777777  10 4.092881944444443  10 5  C 10 5.907118055555555  9.776475694444443 6.743706597222221  9.329427083333334 7.509765625  C 8.882378472222223 8.275824652777779  8.275824652777779 8.882378472222221  7.509765625 9.329427083333334  C 6.743706597222223 9.776475694444445  5.907118055555555 10  5 10  C 4.092881944444445 10  3.2562934027777777 9.776475694444445  2.490234375 9.329427083333334  C 1.7241753472222223 8.882378472222221  1.117621527777778 8.275824652777779  0.6705729166666667 7.509765625  C 0.22352430555555552 6.743706597222221  0 5.907118055555555  0 5  C 0 4.092881944444443  0.22352430555555552 3.256293402777777  0.6705729166666667 2.490234375  C 1.117621527777778 1.724175347222222  1.7241753472222223 1.1176215277777768  2.490234375 0.6705729166666663  C 3.2562934027777777 0.2235243055555547  4.092881944444445 0  5 0  C 5.907118055555555 0  6.743706597222223 0.2235243055555547  7.509765625 0.6705729166666663  C 8.275824652777779 1.1176215277777768  8.882378472222223 1.724175347222222  9.329427083333334 2.490234375  Z " fill-rule="nonzero" fill="#555555" stroke="none" transform="matrix(1 0 0 1 332 1462 )" />
  </g>
</svg>