<?xml version="1.0" encoding="utf-8"?>
<svg version="1.1" xmlns:xlink="http://www.w3.org/1999/xlink" width="12px" height="12px" viewBox="169 1494  12 12" xmlns="http://www.w3.org/2000/svg">
  <path d="M 175 1494  C 178.36 1494  181 1496.64  181 1500  C 181 1503.36  178.36 1506  175 1506  C 171.64 1506  169 1503.36  169 1500  C 169 1496.64  171.64 1494  175 1494  Z " fill-rule="nonzero" fill="#ffffff" stroke="none" />
  <path d="M 175 1494.5  C 178.08 1494.5  180.5 1496.92  180.5 1500  C 180.5 1503.08  178.08 1505.5  175 1505.5  C 171.92 1505.5  169.5 1503.08  169.5 1500  C 169.5 1496.92  171.92 1494.5  175 1494.5  Z " stroke-width="1" stroke="#797979" fill="none" />
  <path d="M 175 1503  C 173.32 1503  172 1501.68  172 1500  C 172 1498.32  173.32 1497  175 1497  C 176.68 1497  178 1498.32  178 1500  C 178 1501.68  176.68 1503  175 1503  " fill-rule="nonzero" fill="#797979" stroke="none" />
</svg>