<?xml version="1.0" encoding="utf-8"?>
<svg version="1.1" xmlns:xlink="http://www.w3.org/1999/xlink" width="12px" height="12px" viewBox="269 1494  12 12" xmlns="http://www.w3.org/2000/svg">
  <path d="M 275 1494  C 278.36 1494  281 1496.64  281 1500  C 281 1503.36  278.36 1506  275 1506  C 271.64 1506  269 1503.36  269 1500  C 269 1496.64  271.64 1494  275 1494  Z " fill-rule="nonzero" fill="#f0f0f0" stroke="none" />
  <path d="M 275 1494.5  C 278.08 1494.5  280.5 1496.92  280.5 1500  C 280.5 1503.08  278.08 1505.5  275 1505.5  C 271.92 1505.5  269.5 1503.08  269.5 1500  C 269.5 1496.92  271.92 1494.5  275 1494.5  Z " stroke-width="1" stroke="#797979" fill="none" />
  <path d="M 275 1503  C 273.32 1503  272 1501.68  272 1500  C 272 1498.32  273.32 1497  275 1497  C 276.68 1497  278 1498.32  278 1500  C 278 1501.68  276.68 1503  275 1503  " fill-rule="nonzero" fill="#797979" stroke="none" />
</svg>