<?xml version="1.0" encoding="utf-8"?>
<svg version="1.1" xmlns:xlink="http://www.w3.org/1999/xlink" width="12px" height="12px" viewBox="169 2246  12 12" xmlns="http://www.w3.org/2000/svg">
  <path d="M 175 2246  C 178.36 2246  181 2248.64  181 2252  C 181 2255.36  178.36 2258  175 2258  C 171.64 2258  169 2255.36  169 2252  C 169 2248.64  171.64 2246  175 2246  Z " fill-rule="nonzero" fill="#f0f0f0" stroke="none" />
  <path d="M 175 2246.5  C 178.08 2246.5  180.5 2248.92  180.5 2252  C 180.5 2255.08  178.08 2257.5  175 2257.5  C 171.92 2257.5  169.5 2255.08  169.5 2252  C 169.5 2248.92  171.92 2246.5  175 2246.5  Z " stroke-width="1" stroke="#797979" fill="none" />
  <path d="M 175 2255  C 173.32 2255  172 2253.68  172 2252  C 172 2250.32  173.32 2249  175 2249  C 176.68 2249  178 2250.32  178 2252  C 178 2253.68  176.68 2255  175 2255  " fill-rule="nonzero" fill="#797979" stroke="none" />
</svg>