<?xml version="1.0" encoding="utf-8"?>
<svg version="1.1" xmlns:xlink="http://www.w3.org/1999/xlink" width="12px" height="12px" viewBox="169 2824  12 12" xmlns="http://www.w3.org/2000/svg">
  <path d="M 175 2824  C 178.36 2824  181 2826.64  181 2830  C 181 2833.36  178.36 2836  175 2836  C 171.64 2836  169 2833.36  169 2830  C 169 2826.64  171.64 2824  175 2824  Z " fill-rule="nonzero" fill="#f0f0f0" stroke="none" />
  <path d="M 175 2824.5  C 178.08 2824.5  180.5 2826.92  180.5 2830  C 180.5 2833.08  178.08 2835.5  175 2835.5  C 171.92 2835.5  169.5 2833.08  169.5 2830  C 169.5 2826.92  171.92 2824.5  175 2824.5  Z " stroke-width="1" stroke="#797979" fill="none" />
  <path d="M 175 2833  C 173.32 2833  172 2831.68  172 2830  C 172 2828.32  173.32 2827  175 2827  C 176.68 2827  178 2828.32  178 2830  C 178 2831.68  176.68 2833  175 2833  " fill-rule="nonzero" fill="#797979" stroke="none" />
</svg>