<?xml version="1.0" encoding="utf-8"?>
<svg version="1.1" xmlns:xlink="http://www.w3.org/1999/xlink" width="12px" height="12px" viewBox="281 2824  12 12" xmlns="http://www.w3.org/2000/svg">
  <path d="M 287 2824  C 290.36 2824  293 2826.64  293 2830  C 293 2833.36  290.36 2836  287 2836  C 283.64 2836  281 2833.36  281 2830  C 281 2826.64  283.64 2824  287 2824  Z " fill-rule="nonzero" fill="#ffffff" stroke="none" />
  <path d="M 287 2824.5  C 290.08 2824.5  292.5 2826.92  292.5 2830  C 292.5 2833.08  290.08 2835.5  287 2835.5  C 283.92 2835.5  281.5 2833.08  281.5 2830  C 281.5 2826.92  283.92 2824.5  287 2824.5  Z " stroke-width="1" stroke="#797979" fill="none" />
  <path d="M 287 2833  C 285.32 2833  284 2831.68  284 2830  C 284 2828.32  285.32 2827  287 2827  C 288.68 2827  290 2828.32  290 2830  C 290 2831.68  288.68 2833  287 2833  " fill-rule="nonzero" fill="#797979" stroke="none" />
</svg>