<?xml version="1.0" encoding="utf-8"?>
<svg version="1.1" xmlns:xlink="http://www.w3.org/1999/xlink" width="12px" height="12px" viewBox="269 1932  12 12" xmlns="http://www.w3.org/2000/svg">
  <path d="M 275 1932  C 278.36 1932  281 1934.64  281 1938  C 281 1941.36  278.36 1944  275 1944  C 271.64 1944  269 1941.36  269 1938  C 269 1934.64  271.64 1932  275 1932  Z " fill-rule="nonzero" fill="#f0f0f0" stroke="none" />
  <path d="M 275 1932.5  C 278.08 1932.5  280.5 1934.92  280.5 1938  C 280.5 1941.08  278.08 1943.5  275 1943.5  C 271.92 1943.5  269.5 1941.08  269.5 1938  C 269.5 1934.92  271.92 1932.5  275 1932.5  Z " stroke-width="1" stroke="#797979" fill="none" />
  <path d="M 275 1941  C 273.32 1941  272 1939.68  272 1938  C 272 1936.32  273.32 1935  275 1935  C 276.68 1935  278 1936.32  278 1938  C 278 1939.68  276.68 1941  275 1941  " fill-rule="nonzero" fill="#797979" stroke="none" />
</svg>