<?xml version="1.0" encoding="utf-8"?>
<svg version="1.1" xmlns:xlink="http://www.w3.org/1999/xlink" width="5px" height="10px" xmlns="http://www.w3.org/2000/svg">
  <g transform="matrix(1 0 0 1 -865 -390 )">
    <path d="M 4.914089347079037 0.6012024048096187  C 4.971363115693014 0.6680026720106869  5 0.7448229792919159  5 0.8316633266533069  C 5 0.9185036740146957  4.971363115693014 0.9953239812959247  4.914089347079037 1.062124248496994  L 1.5378006872852235 5  L 4.914089347079037 8.937875751503006  C 4.971363115693014 9.004676018704075  5 9.081496325985302  5 9.168336673346694  C 5 9.255177020708082  4.971363115693014 9.331997327989312  4.914089347079037 9.39879759519038  L 4.484536082474227 9.899799599198397  C 4.427262313860252 9.966599866399466  4.3613974799541815 10  4.286941580756014 10  C 4.2124856815578475 10  4.146620847651777 9.966599866399466  4.0893470790378 9.899799599198397  L 0.0859106529209622 5.230460921843687  C 0.02863688430698742 5.163660654642618  0 5.086840347361389  0 5  C 0 4.91315965263861  0.02863688430698742 4.836339345357381  0.0859106529209622 4.769539078156313  L 4.0893470790378 0.1002004008016033  C 4.146620847651777 0.033400133600534065  4.2124856815578475 0  4.286941580756014 0  C 4.3613974799541815 0  4.427262313860252 0.033400133600534065  4.484536082474227 0.1002004008016033  L 4.914089347079037 0.6012024048096187  Z " fill-rule="nonzero" fill="#aaaaaa" stroke="none" transform="matrix(1 0 0 1 865 390 )" />
  </g>
</svg>