<?xml version="1.0" encoding="utf-8"?>
<svg version="1.1" xmlns:xlink="http://www.w3.org/1999/xlink" width="28px" height="15px" xmlns="http://www.w3.org/2000/svg">
  <g transform="matrix(1 0 0 1 -748 -510 )">
    <path d="M 0.697265625 10.412109375  C 0.232421875 9.486328125  0 8.515624999999998  0 7.5  C 0 6.484374999999999  0.232421875 5.513671875  0.697265625 4.587890625000001  C 1.1621093750000002 3.662109375  1.7841796875 2.8652343750000004  2.5634765625 2.197265625  C 3.3427734375000004 1.5292968749999996  4.2724609375 0.99609375  5.3525390625 0.5976562499999993  C 6.432617187500001 0.19921875000000033  7.565104166666667 0  8.75 0  L 19.25 0  C 20.434895833333336 0  21.5673828125 0.19921875000000033  22.6474609375 0.5976562499999993  C 23.7275390625 0.99609375  24.6572265625 1.5292968749999996  25.4365234375 2.197265625  C 26.2158203125 2.8652343750000004  26.837890625 3.662109375  27.302734375 4.587890625000001  C 27.767578125 5.513671875  28 6.484374999999999  28 7.5  C 28 8.515624999999998  27.767578125 9.486328125  27.302734375 10.412109375  C 26.837890625 11.337890625  26.2158203125 12.134765625  25.4365234375 12.802734375  C 24.6572265625 13.470703125  23.7275390625 14.00390625  22.6474609375 14.40234375  C 21.5673828125 14.80078125  20.434895833333336 15  19.25 15  L 8.75 15  C 7.565104166666667 15  6.432617187500001 14.80078125  5.3525390625 14.40234375  C 4.2724609375 14.00390625  3.3427734375000004 13.470703125  2.5634765625 12.802734375  C 1.7841796875 12.134765625  1.1621093750000002 11.337890625  0.697265625 10.412109375  Z M 16.5361328125 13.025390625  C 17.3974609375 13.341796875  18.302083333333336 13.5  19.25 13.5  C 20.197916666666668 13.5  21.1025390625 13.341796875  21.9638671875 13.025390625  C 22.825195312500004 12.708984375  23.570312500000004 12.28125  24.19921875 11.7421875  C 24.828125000000004 11.203125  25.327148437500004 10.564453125  25.6962890625 9.826171875  C 26.065429687500004 9.087890625  26.250000000000004 8.312499999999998  26.25 7.5  C 26.250000000000004 6.6875  26.065429687500004 5.912109375  25.6962890625 5.173828125000001  C 25.327148437500004 4.435546874999999  24.828125000000004 3.796874999999999  24.19921875 3.2578124999999996  C 23.570312500000004 2.7187500000000004  22.825195312500004 2.2910156249999996  21.9638671875 1.9746093749999993  C 21.1025390625 1.6582031250000007  20.197916666666668 1.4999999999999996  19.25 1.4999999999999996  C 18.302083333333336 1.4999999999999996  17.3974609375 1.6582031250000007  16.5361328125 1.9746093749999993  C 15.6748046875 2.2910156249999996  14.9296875 2.7187500000000004  14.30078125 3.2578124999999996  C 13.671875 3.796874999999999  13.1728515625 4.435546874999999  12.8037109375 5.173828125000001  C 12.4345703125 5.912109375  12.25 6.6875  12.25 7.5  C 12.25 8.312499999999998  12.4345703125 9.087890625  12.8037109375 9.826171875  C 13.1728515625 10.564453125  13.671875 11.203125  14.30078125 11.7421875  C 14.9296875 12.28125  15.6748046875 12.708984375  16.5361328125 13.025390625  Z " fill-rule="nonzero" fill="#04d919" stroke="none" transform="matrix(1 0 0 1 748 510 )" />
  </g>
</svg>