<?xml version="1.0" encoding="utf-8"?>
<svg version="1.1" xmlns:xlink="http://www.w3.org/1999/xlink" width="12px" height="12px" viewBox="566 681  12 12" xmlns="http://www.w3.org/2000/svg">
  <path d="M 572 681  C 575.36 681  578 683.64  578 687  C 578 690.36  575.36 693  572 693  C 568.64 693  566 690.36  566 687  C 566 683.64  568.64 681  572 681  Z " fill-rule="nonzero" fill="#f0f0f0" stroke="none" />
  <path d="M 572 681.5  C 575.08 681.5  577.5 683.92  577.5 687  C 577.5 690.08  575.08 692.5  572 692.5  C 568.92 692.5  566.5 690.08  566.5 687  C 566.5 683.92  568.92 681.5  572 681.5  Z " stroke-width="1" stroke="#797979" fill="none" />
  <path d="M 572 690  C 570.32 690  569 688.68  569 687  C 569 685.32  570.32 684  572 684  C 573.68 684  575 685.32  575 687  C 575 688.68  573.68 690  572 690  " fill-rule="nonzero" fill="#797979" stroke="none" />
</svg>