<?xml version="1.0" encoding="utf-8"?>
<svg version="1.1" xmlns:xlink="http://www.w3.org/1999/xlink" width="12px" height="12px" viewBox="516 681  12 12" xmlns="http://www.w3.org/2000/svg">
  <path d="M 522 681  C 525.36 681  528 683.64  528 687  C 528 690.36  525.36 693  522 693  C 518.64 693  516 690.36  516 687  C 516 683.64  518.64 681  522 681  Z " fill-rule="nonzero" fill="#f0f0f0" stroke="none" />
  <path d="M 522 681.5  C 525.08 681.5  527.5 683.92  527.5 687  C 527.5 690.08  525.08 692.5  522 692.5  C 518.92 692.5  516.5 690.08  516.5 687  C 516.5 683.92  518.92 681.5  522 681.5  Z " stroke-width="1" stroke="#797979" fill="none" />
  <path d="M 522 690  C 520.32 690  519 688.68  519 687  C 519 685.32  520.32 684  522 684  C 523.68 684  525 685.32  525 687  C 525 688.68  523.68 690  522 690  " fill-rule="nonzero" fill="#797979" stroke="none" />
</svg>