<?xml version="1.0" encoding="utf-8"?>
<svg version="1.1" xmlns:xlink="http://www.w3.org/1999/xlink" width="50px" height="50px" xmlns="http://www.w3.org/2000/svg">
  <g transform="matrix(1 0 0 1 -347 -608 )">
    <path d="M 372 609  C 385.44 609  396 619.56  396 633  C 396 646.44  385.44 657  372 657  C 358.56 657  348 646.44  348 633  C 348 619.56  358.56 609  372 609  Z " fill-rule="nonzero" fill="#ffffff" stroke="none" fill-opacity="0" />
    <path d="M 372 609  C 385.44 609  396 619.56  396 633  C 396 646.44  385.44 657  372 657  C 358.56 657  348 646.44  348 633  C 348 619.56  358.56 609  372 609  Z " stroke-width="2" stroke="#d9001b" fill="none" />
  </g>
</svg>