<?xml version="1.0" encoding="utf-8"?>
<svg version="1.1" xmlns:xlink="http://www.w3.org/1999/xlink" width="12px" height="12px" viewBox="407 1745  12 12" xmlns="http://www.w3.org/2000/svg">
  <path d="M 413 1745  C 416.36 1745  419 1747.64  419 1751  C 419 1754.36  416.36 1757  413 1757  C 409.64 1757  407 1754.36  407 1751  C 407 1747.64  409.64 1745  413 1745  Z " fill-rule="nonzero" fill="#f0f0f0" stroke="none" />
  <path d="M 413 1745.5  C 416.08 1745.5  418.5 1747.92  418.5 1751  C 418.5 1754.08  416.08 1756.5  413 1756.5  C 409.92 1756.5  407.5 1754.08  407.5 1751  C 407.5 1747.92  409.92 1745.5  413 1745.5  Z " stroke-width="1" stroke="#797979" fill="none" />
  <path d="M 413 1754  C 411.32 1754  410 1752.68  410 1751  C 410 1749.32  411.32 1748  413 1748  C 414.68 1748  416 1749.32  416 1751  C 416 1752.68  414.68 1754  413 1754  " fill-rule="nonzero" fill="#797979" stroke="none" />
</svg>