<?xml version="1.0" encoding="utf-8"?>
<svg version="1.1" xmlns:xlink="http://www.w3.org/1999/xlink" width="12px" height="12px" viewBox="288 1220  12 12" xmlns="http://www.w3.org/2000/svg">
  <path d="M 294 1220  C 297.36 1220  300 1222.64  300 1226  C 300 1229.36  297.36 1232  294 1232  C 290.64 1232  288 1229.36  288 1226  C 288 1222.64  290.64 1220  294 1220  Z " fill-rule="nonzero" fill="#ffffff" stroke="none" />
  <path d="M 294 1220.5  C 297.08 1220.5  299.5 1222.92  299.5 1226  C 299.5 1229.08  297.08 1231.5  294 1231.5  C 290.92 1231.5  288.5 1229.08  288.5 1226  C 288.5 1222.92  290.92 1220.5  294 1220.5  Z " stroke-width="1" stroke="#797979" fill="none" />
  <path d="M 294 1229  C 292.32 1229  291 1227.68  291 1226  C 291 1224.32  292.32 1223  294 1223  C 295.68 1223  297 1224.32  297 1226  C 297 1227.68  295.68 1229  294 1229  " fill-rule="nonzero" fill="#797979" stroke="none" />
</svg>