<?xml version="1.0" encoding="utf-8"?>
<svg version="1.1" xmlns:xlink="http://www.w3.org/1999/xlink" width="12px" height="12px" viewBox="295 1745  12 12" xmlns="http://www.w3.org/2000/svg">
  <path d="M 301 1745  C 304.36 1745  307 1747.64  307 1751  C 307 1754.36  304.36 1757  301 1757  C 297.64 1757  295 1754.36  295 1751  C 295 1747.64  297.64 1745  301 1745  Z " fill-rule="nonzero" fill="#f0f0f0" stroke="none" />
  <path d="M 301 1745.5  C 304.08 1745.5  306.5 1747.92  306.5 1751  C 306.5 1754.08  304.08 1756.5  301 1756.5  C 297.92 1756.5  295.5 1754.08  295.5 1751  C 295.5 1747.92  297.92 1745.5  301 1745.5  Z " stroke-width="1" stroke="#797979" fill="none" />
  <path d="M 301 1754  C 299.32 1754  298 1752.68  298 1751  C 298 1749.32  299.32 1748  301 1748  C 302.68 1748  304 1749.32  304 1751  C 304 1752.68  302.68 1754  301 1754  " fill-rule="nonzero" fill="#797979" stroke="none" />
</svg>