<?xml version="1.0" encoding="utf-8"?>
<svg version="1.1" xmlns:xlink="http://www.w3.org/1999/xlink" width="12px" height="12px" viewBox="407 2739  12 12" xmlns="http://www.w3.org/2000/svg">
  <path d="M 413 2739  C 416.36 2739  419 2741.64  419 2745  C 419 2748.36  416.36 2751  413 2751  C 409.64 2751  407 2748.36  407 2745  C 407 2741.64  409.64 2739  413 2739  Z " fill-rule="nonzero" fill="#f0f0f0" stroke="none" />
  <path d="M 413 2739.5  C 416.08 2739.5  418.5 2741.92  418.5 2745  C 418.5 2748.08  416.08 2750.5  413 2750.5  C 409.92 2750.5  407.5 2748.08  407.5 2745  C 407.5 2741.92  409.92 2739.5  413 2739.5  Z " stroke-width="1" stroke="#797979" fill="none" />
  <path d="M 413 2748  C 411.32 2748  410 2746.68  410 2745  C 410 2743.32  411.32 2742  413 2742  C 414.68 2742  416 2743.32  416 2745  C 416 2746.68  414.68 2748  413 2748  " fill-rule="nonzero" fill="#797979" stroke="none" />
</svg>