<?xml version="1.0" encoding="utf-8"?>
<svg version="1.1" xmlns:xlink="http://www.w3.org/1999/xlink" width="12px" height="12px" viewBox="295 2739  12 12" xmlns="http://www.w3.org/2000/svg">
  <path d="M 301 2739  C 304.36 2739  307 2741.64  307 2745  C 307 2748.36  304.36 2751  301 2751  C 297.64 2751  295 2748.36  295 2745  C 295 2741.64  297.64 2739  301 2739  Z " fill-rule="nonzero" fill="#ffffff" stroke="none" />
  <path d="M 301 2739.5  C 304.08 2739.5  306.5 2741.92  306.5 2745  C 306.5 2748.08  304.08 2750.5  301 2750.5  C 297.92 2750.5  295.5 2748.08  295.5 2745  C 295.5 2741.92  297.92 2739.5  301 2739.5  Z " stroke-width="1" stroke="#797979" fill="none" />
  <path d="M 301 2748  C 299.32 2748  298 2746.68  298 2745  C 298 2743.32  299.32 2742  301 2742  C 302.68 2742  304 2743.32  304 2745  C 304 2746.68  302.68 2748  301 2748  " fill-rule="nonzero" fill="#797979" stroke="none" />
</svg>