<?xml version="1.0" encoding="utf-8"?>
<svg version="1.1" xmlns:xlink="http://www.w3.org/1999/xlink" width="78px" height="39px" xmlns="http://www.w3.org/2000/svg">
  <g transform="matrix(1 0 0 1 -618 -5972 )">
    <path d="M 619.5 5993.86  C 619.5 5993.86  619.5 5979  619.5 5979  C 619.5 5975.96243387593  621.9624338759306 5973.5  625 5973.5  C 625 5973.5  689 5973.5  689 5973.5  C 692.0375661240694 5973.5  694.5 5975.96243387593  694.5 5979  C 694.5 5979  694.5 5993.86  694.5 5993.86  C 694.5 5996.897566124069  692.0375661240694 5999.36  689 5999.36  C 689 5999.36  659.4493541283036 5999.36  659.4493541283036 5999.36  C 659.4493541283036 5999.36  649.0977662003344 6008.577746649225  649.0977662003344 6008.577746649225  C 649.0977662003344 6008.577746649225  641.2111242243029 5999.36  641.2111242243029 5999.36  C 641.2111242243029 5999.36  625 5999.36  625 5999.36  C 621.9624338759306 5999.36  619.5 5996.897566124069  619.5 5993.86  Z " fill-rule="nonzero" fill="#000000" stroke="none" fill-opacity="0.5411764705882353" />
    <path d="M 618 5993.86  C 618 5993.86  618 5979  618 5979  C 618 5975.134006751185  621.1340067511844 5972  625 5972  C 625 5972  689 5972  689 5972  C 692.8659932488156 5972  696 5975.134006751185  696 5979  C 696 5979  696 5993.86  696 5993.86  C 696 5997.725993248816  692.8659932488156 6000.86  689 6000.86  C 689 6000.86  660.0204093567252 6000.86  660.0204093567252 6000.86  C 660.0204093567252 6000.86  648.9526705653021 6010.7154553049295  648.9526705653021 6010.7154553049295  C 648.9526705653021 6010.7154553049295  640.5204093567252 6000.86  640.5204093567252 6000.86  C 640.5204093567252 6000.86  625 6000.86  625 6000.86  C 621.1340067511844 6000.86  618 5997.725993248816  618 5993.86  Z M 620 5993.86  C 620 5996.621423749154  622.238576250846 5998.86  625 5998.86  C 625 5998.86  641.4413625134955 5998.86  641.4413625134955 5998.86  C 641.4413625134955 5998.86  649.1461314120118 6007.865177097325  649.1461314120118 6007.865177097325  C 649.1461314120118 6007.865177097325  659.2590023854965 5998.86  659.2590023854965 5998.86  C 659.2590023854965 5998.86  689 5998.86  689 5998.86  C 691.761423749154 5998.86  694 5996.621423749154  694 5993.86  C 694 5993.86  694 5979  694 5979  C 694 5976.238576250846  691.761423749154 5974  689 5974  C 689 5974  625 5974  625 5974  C 622.238576250846 5974  620 5976.238576250846  620 5979  C 620 5979  620 5993.86  620 5993.86  Z " fill-rule="nonzero" fill="#fcb040" stroke="none" />
  </g>
</svg>