<?xml version="1.0" encoding="utf-8"?>
<svg version="1.1" xmlns:xlink="http://www.w3.org/1999/xlink" width="69px" height="34px" xmlns="http://www.w3.org/2000/svg">
  <g transform="matrix(1 0 0 1 -450 -6109 )">
    <path d="M 451.5 6127.16  C 451.5 6127.16  451.5 6116  451.5 6116  C 451.5 6112.96243387593  453.9624338759306 6110.5  457 6110.5  C 457 6110.5  512 6110.5  512 6110.5  C 515.0375661240694 6110.5  517.5 6112.96243387593  517.5 6116  C 517.5 6116  517.5 6127.16  517.5 6127.16  C 517.5 6130.197566124069  515.0375661240694 6132.66  512 6132.66  C 512 6132.66  486.47659122441587 6132.66  486.47659122441587 6132.66  C 486.47659122441587 6132.66  477.5284673774093 6140.614081500769  477.5284673774093 6140.614081500769  C 477.5284673774093 6140.614081500769  470.73864868741 6132.66  470.73864868741 6132.66  C 470.73864868741 6132.66  457 6132.66  457 6132.66  C 453.9624338759306 6132.66  451.5 6130.197566124069  451.5 6127.16  Z " fill-rule="nonzero" fill="#000000" stroke="none" fill-opacity="0.5411764705882353" />
    <path d="M 450 6127.16  C 450 6127.16  450 6116  450 6116  C 450 6112.134006751185  453.1340067511845 6109  457 6109  C 457 6109  512 6109  512 6109  C 515.8659932488156 6109  519 6112.134006751185  519 6116  C 519 6116  519 6127.16  519 6127.16  C 519 6131.025993248815  515.8659932488156 6134.16  512 6134.16  C 512 6134.16  487.04690058479537 6134.16  487.04690058479537 6134.16  C 487.04690058479537 6134.16  477.38120857699806 6142.751935394041  477.38120857699806 6142.751935394041  C 477.38120857699806 6142.751935394041  470.04690058479537 6134.16  470.04690058479537 6134.16  C 470.04690058479537 6134.16  457 6134.16  457 6134.16  C 453.1340067511845 6134.16  450 6131.025993248815  450 6127.16  Z M 452 6127.16  C 452 6129.921423749154  454.23857625084605 6132.16  457 6132.16  C 457 6132.16  470.96923138828146 6132.16  470.96923138828146 6132.16  C 470.96923138828146 6132.16  477.577553644213 6139.901463536346  477.577553644213 6139.901463536346  C 477.577553644213 6139.901463536346  486.28648810428933 6132.16  486.28648810428933 6132.16  C 486.28648810428933 6132.16  512 6132.16  512 6132.16  C 514.761423749154 6132.16  517 6129.921423749154  517 6127.16  C 517 6127.16  517 6116  517 6116  C 517 6113.238576250846  514.761423749154 6111  512 6111  C 512 6111  457 6111  457 6111  C 454.23857625084605 6111  452 6113.238576250846  452 6116  C 452 6116  452 6127.16  452 6127.16  Z " fill-rule="nonzero" fill="#fcb040" stroke="none" />
  </g>
</svg>