<?xml version="1.0" encoding="utf-8"?>
<svg version="1.1" xmlns:xlink="http://www.w3.org/1999/xlink" width="21px" height="21px" xmlns="http://www.w3.org/2000/svg">
  <g transform="matrix(1 0 0 1 -198 -4456 )">
    <path d="M 208.5 4456  C 214.38 4456  219 4460.62  219 4466.5  C 219 4472.38  214.38 4477  208.5 4477  C 202.62 4477  198 4472.38  198 4466.5  C 198 4460.62  202.62 4456  208.5 4456  Z " fill-rule="nonzero" fill="#ffffff" stroke="none" fill-opacity="0" />
    <path d="M 208.5 4456.5  C 214.1 4456.5  218.5 4460.9  218.5 4466.5  C 218.5 4472.1  214.1 4476.5  208.5 4476.5  C 202.9 4476.5  198.5 4472.1  198.5 4466.5  C 198.5 4460.9  202.9 4456.5  208.5 4456.5  Z " stroke-width="1" stroke="#ffffff" fill="none" />
  </g>
</svg>