<?xml version="1.0" encoding="utf-8"?>
<svg version="1.1" xmlns:xlink="http://www.w3.org/1999/xlink" width="149px" height="85px" xmlns="http://www.w3.org/2000/svg">
  <g transform="matrix(1 0 0 1 -312 -5832 )">
    <path d="M 312.5 5883  C 312.5 5883  312.5 5841  312.5 5841  C 312.5 5836.305579626438  316.30557962643826 5832.5  321 5832.5  C 321 5832.5  452 5832.5  452 5832.5  C 456.69442037356174 5832.5  460.5 5836.305579626438  460.5 5841  C 460.5 5841  460.5 5883  460.5 5883  C 460.5 5887.694420373562  456.69442037356174 5891.5  452 5891.5  C 452 5891.5  353.96051582627274 5891.5  353.96051582627274 5891.5  C 353.96051582627274 5891.5  343.18392250316225 5915.362406630603  343.18392250316225 5915.362406630603  C 343.18392250316225 5915.362406630603  334.635327357827 5891.5  334.635327357827 5891.5  C 334.635327357827 5891.5  321 5891.5  321 5891.5  C 316.30557962643826 5891.5  312.5 5887.694420373562  312.5 5883  Z " fill-rule="nonzero" fill="#ffffff" stroke="none" />
    <path d="M 312 5883  C 312 5883  312 5841  312 5841  C 312 5836.029437251523  316.02943725152284 5832  321 5832  C 321 5832  452 5832  452 5832  C 456.97056274847716 5832  461 5836.029437251523  461 5841  C 461 5841  461 5883  461 5883  C 461 5887.970562748477  456.97056274847716 5892  452 5892  C 452 5892  354.2833333333333 5892  354.2833333333333 5892  C 354.2833333333333 5892  343.13043478260863 5916.695652173913  343.13043478260863 5916.695652173913  C 343.13043478260863 5916.695652173913  334.2833333333333 5892  334.2833333333333 5892  C 334.2833333333333 5892  321 5892  321 5892  C 316.02943725152284 5892  312 5887.970562748477  312 5883  Z M 313 5883  C 313 5887.418277998647  316.5817220013536 5891  321 5891  C 321 5891  334.98732138232066 5891  334.98732138232066 5891  C 334.98732138232066 5891  343.23741022371587 5914.029161087292  343.23741022371587 5914.029161087292  C 343.23741022371587 5914.029161087292  353.63769831921223 5891  353.63769831921223 5891  C 353.63769831921223 5891  452 5891  452 5891  C 456.4182779986463 5891  460 5887.418277998647  460 5883  C 460 5883  460 5841  460 5841  C 460 5836.581722001353  456.4182779986463 5833  452 5833  C 452 5833  321 5833  321 5833  C 316.5817220013536 5833  313 5836.581722001353  313 5841  C 313 5841  313 5883  313 5883  Z " fill-rule="nonzero" fill="#d9001b" stroke="none" />
  </g>
</svg>