<?xml version="1.0" encoding="utf-8"?>
<svg version="1.1" xmlns:xlink="http://www.w3.org/1999/xlink" width="19px" height="15px" xmlns="http://www.w3.org/2000/svg">
  <g transform="matrix(1 0 0 1 -42 -320 )">
    <path d="M 3.970703125 4.192116477272727  C 4.0378534226190474 4.2595880681818175  4.071428571428571 4.339488636363635  4.071428571428571 4.431818181818182  L 4.071428571428571 10.568181818181818  C 4.071428571428571 10.660511363636362  4.0378534226190474 10.74041193181818  3.970703125 10.807883522727272  C 3.9035528273809526 10.875355113636365  3.824032738095238 10.90909090909091  3.732142857142857 10.90909090909091  C 3.633184523809524 10.90909090909091  3.551897321428571 10.877130681818182  3.48828125 10.813210227272728  L 0.4347098214285714 7.745028409090909  C 0.37109375 7.681107954545455  0.33928571428571425 7.5994318181818175  0.33928571428571425 7.5  C 0.33928571428571425 7.400568181818181  0.37109375 7.318892045454545  0.4347098214285714 7.254971590909091  L 3.48828125 4.186789772727273  C 3.551897321428571 4.122869318181818  3.633184523809524 4.090909090909091  3.732142857142857 4.090909090909091  C 3.824032738095238 4.090909090909091  3.9035528273809526 4.124644886363635  3.970703125 4.192116477272727  Z M 18.899274553571427 12.37393465909091  C 18.966424851190478 12.441406249999998  19 12.521306818181818  19 12.613636363636363  L 19 14.65909090909091  C 19 14.751420454545455  18.966424851190478 14.831321022727273  18.899274553571427 14.898792613636363  C 18.832124255952383 14.966264204545453  18.75260416666667 15  18.660714285714285 15  L 0.33928571428571425 15  C 0.24739583333333334 15  0.16787574404761904 14.966264204545453  0.10072544642857144 14.898792613636363  C 0.03357514880952381 14.831321022727273  0 14.751420454545455  0 14.65909090909091  L 0 12.613636363636363  C 0 12.521306818181818  0.03357514880952381 12.441406249999998  0.10072544642857144 12.37393465909091  C 0.16787574404761904 12.30646306818182  0.24739583333333334 12.272727272727272  0.33928571428571425 12  L 18.660714285714285 12  C 18.75260416666667 12.272727272727272  18.832124255952383 12.30646306818182  18.899274553571427 12.37393465909091  Z M 18.899274553571427 8.283025568181818  C 18.966424851190478 8.350497159090908  19 8.430397727272727  19 8.522727272727272  L 19 10.568181818181818  C 19 10.660511363636362  18.966424851190478 10.74041193181818  18.899274553571427 10.807883522727272  C 18.832124255952383 10.875355113636365  18.75260416666667 10.90909090909091  18.660714285714285 11  L 7.125 11  C 7.0331101190476195 10.90909090909091  6.953590029761905 10.875355113636365  6.886439732142858 10.807883522727272  C 6.81928943452381 10.74041193181818  6.785714285714286 10.660511363636362  6.785714285714286 10.568181818181818  L 6.785714285714286 8.522727272727272  C 6.785714285714286 8.430397727272727  6.81928943452381 8.350497159090908  6.886439732142858 8.283025568181818  C 6.953590029761905 8.215553977272727  7.0331101190476195 8.181818181818182  7.125 8  L 18.660714285714285 8  C 18.75260416666667 8.181818181818182  18.832124255952383 8.215553977272727  18.899274553571427 8.283025568181818  Z M 18.899274553571427 4.192116477272727  C 18.966424851190478 4.2595880681818175  19 4.339488636363635  19 4.431818181818182  L 19 6.477272727272727  C 19 6.569602272727273  18.966424851190478 6.64950284090909  18.899274553571427 6.716974431818182  C 18.832124255952383 6.7844460227272725  18.75260416666667 6.818181818181818  18.660714285714285 7  L 7.125 7  C 7.0331101190476195 6.818181818181818  6.953590029761905 6.7844460227272725  6.886439732142858 6.716974431818182  C 6.81928943452381 6.64950284090909  6.785714285714286 6.569602272727273  6.785714285714286 6.477272727272727  L 6.785714285714286 4.431818181818182  C 6.785714285714286 4.339488636363635  6.81928943452381 4.2595880681818175  6.886439732142858 4.192116477272727  C 6.953590029761905 4.124644886363635  7.0331101190476195 4.090909090909091  7.125 4  L 18.660714285714285 4  C 18.75260416666667 4.090909090909091  18.832124255952383 4.124644886363635  18.899274553571427 4.192116477272727  Z M 18.899274553571427 0.10120738636363591  C 18.966424851190478 0.16867897727272707  19 0.2485795454545442  19 0.3409090909090906  L 19 2.386363636363636  C 19 2.4786931818181808  18.966424851190478 2.558593749999998  18.899274553571427 2.626065340909091  C 18.832124255952383 2.6935369318181817  18.75260416666667 2.7272727272727266  18.660714285714285 3  L 0.33928571428571425 3  C 0.24739583333333334 2.7272727272727266  0.16787574404761904 2.6935369318181817  0.10072544642857144 2.626065340909091  C 0.03357514880952381 2.558593749999998  0 2.4786931818181808  0 2.386363636363636  L 0 0.3409090909090906  C 0 0.2485795454545442  0.03357514880952381 0.16867897727272707  0.10072544642857144 0.10120738636363591  C 0.16787574404761904 0.03373579545454308  0.24739583333333334 0  0.33928571428571425 0  L 18.660714285714285 0  C 18.75260416666667 0  18.832124255952383 0.03373579545454308  18.899274553571427 0.10120738636363591  Z " fill-rule="nonzero" fill="#aaaaaa" stroke="none" transform="matrix(1 0 0 1 42 320 )" />
  </g>
</svg>