<?xml version="1.0" encoding="utf-8"?>
<svg version="1.1" xmlns:xlink="http://www.w3.org/1999/xlink" width="12px" height="12px" viewBox="507 125.5  12 12" xmlns="http://www.w3.org/2000/svg">
  <path d="M 513 125.5  C 516.36 125.5  519 128.14  519 131.5  C 519 134.86  516.36 137.5  513 137.5  C 509.64 137.5  507 134.86  507 131.5  C 507 128.14  509.64 125.5  513 125.5  Z " fill-rule="nonzero" fill="#f0f0f0" stroke="none" />
  <path d="M 513 126  C 516.08 126  518.5 128.42  518.5 131.5  C 518.5 134.58  516.08 137  513 137  C 509.92 137  507.5 134.58  507.5 131.5  C 507.5 128.42  509.92 126  513 126  Z " stroke-width="1" stroke="#797979" fill="none" />
  <path d="M 513 134.5  C 511.32 134.5  510 133.18  510 131.5  C 510 129.82  511.32 128.5  513 128.5  C 514.68 128.5  516 129.82  516 131.5  C 516 133.18  514.68 134.5  513 134.5  " fill-rule="nonzero" fill="#797979" stroke="none" />
</svg>