<?xml version="1.0" encoding="utf-8"?>
<svg version="1.1" xmlns:xlink="http://www.w3.org/1999/xlink" width="12px" height="12px" viewBox="895 125.5  12 12" xmlns="http://www.w3.org/2000/svg">
  <path d="M 901 125.5  C 904.36 125.5  907 128.14  907 131.5  C 907 134.86  904.36 137.5  901 137.5  C 897.64 137.5  895 134.86  895 131.5  C 895 128.14  897.64 125.5  901 125.5  Z " fill-rule="nonzero" fill="#ffffff" stroke="none" />
  <path d="M 901 126  C 904.08 126  906.5 128.42  906.5 131.5  C 906.5 134.58  904.08 137  901 137  C 897.92 137  895.5 134.58  895.5 131.5  C 895.5 128.42  897.92 126  901 126  Z " stroke-width="1" stroke="#797979" fill="none" />
  <path d="M 901 134.5  C 899.32 134.5  898 133.18  898 131.5  C 898 129.82  899.32 128.5  901 128.5  C 902.68 128.5  904 129.82  904 131.5  C 904 133.18  902.68 134.5  901 134.5  " fill-rule="nonzero" fill="#797979" stroke="none" />
</svg>