<?xml version="1.0" encoding="utf-8"?>
<svg version="1.1" xmlns:xlink="http://www.w3.org/1999/xlink" width="12px" height="12px" viewBox="585 125.5  12 12" xmlns="http://www.w3.org/2000/svg">
  <path d="M 591 125.5  C 594.36 125.5  597 128.14  597 131.5  C 597 134.86  594.36 137.5  591 137.5  C 587.64 137.5  585 134.86  585 131.5  C 585 128.14  587.64 125.5  591 125.5  Z " fill-rule="nonzero" fill="#f0f0f0" stroke="none" />
  <path d="M 591 126  C 594.08 126  596.5 128.42  596.5 131.5  C 596.5 134.58  594.08 137  591 137  C 587.92 137  585.5 134.58  585.5 131.5  C 585.5 128.42  587.92 126  591 126  Z " stroke-width="1" stroke="#797979" fill="none" />
  <path d="M 591 134.5  C 589.32 134.5  588 133.18  588 131.5  C 588 129.82  589.32 128.5  591 128.5  C 592.68 128.5  594 129.82  594 131.5  C 594 133.18  592.68 134.5  591 134.5  " fill-rule="nonzero" fill="#797979" stroke="none" />
</svg>