<?xml version="1.0" encoding="utf-8"?>
<svg version="1.1" xmlns:xlink="http://www.w3.org/1999/xlink" width="29px" height="30px" xmlns="http://www.w3.org/2000/svg">
  <g transform="matrix(1 0 0 1 -163 -945 )">
    <path d="M 7.398137019230769 22.630208333333332  C 7.833834134615385 23.06423611111111  8.051682692307693 23.58796296296296  8.051682692307693 24.20138888888889  C 8.051682692307693 24.814814814814813  7.833834134615385 25.338541666666668  7.398137019230769 25.772569444444443  C 6.962439903846153 26.20659722222222  6.436698717948718 26.42361111111111  5.820913461538462 26.42361111111111  C 5.216746794871796 26.42361111111111  4.693910256410257 26.203703703703702  4.252403846153847 25.76388888888889  C 3.810897435897436 25.324074074074076  3.590144230769231 24.80324074074074  3.590144230769231 24.20138888888889  C 3.590144230769231 23.58796296296296  3.8079927884615383 23.06423611111111  4.243689903846153 22.630208333333332  C 4.679387019230769 22.196180555555554  5.205128205128205 21.979166666666664  5.820913461538462 21.979166666666664  C 6.436698717948718 21.979166666666664  6.962439903846153 22.196180555555554  7.398137019230769 22.630208333333332  Z M 16.07722355769231 26.20659722222222  C 16.512920673076923 26.640625  16.73076923076923 27.164351851851855  16.73076923076923 27.77777777777778  C 16.73076923076923 28.391203703703702  16.512920673076923 28.914930555555554  16.07722355769231 29.348958333333336  C 15.641526442307692 29.78298611111111  15.115785256410255 30  14.5 30  C 13.884214743589745 30  13.358473557692308 29.78298611111111  12.922776442307693 29.348958333333336  C 12.487079326923077 28.914930555555554  12.269230769230768 28.391203703703702  12.269230769230768 27.77777777777778  C 12.269230769230768 27.164351851851855  12.487079326923077 26.640625  12.922776442307693 26.20659722222222  C 13.358473557692308 25.772569444444443  13.884214743589745 25.555555555555557  14.5 25.555555555555557  C 15.115785256410255 25.555555555555557  15.641526442307692 25.772569444444443  16.07722355769231 26.20659722222222  Z M 3.8079927884615383 13.984375000000002  C 4.243689903846153 14.418402777777779  4.461538461538462 14.94212962962963  4.461538461538462 15.555555555555557  C 4.461538461538462 16.16898148148148  4.243689903846153 16.692708333333336  3.8079927884615383 17.12673611111111  C 3.3722956730769234 17.56076388888889  2.8465544871794877 17.77777777777778  2.230769230769231 17.77777777777778  C 1.6149839743589747 17.77777777777778  1.0892427884615383 17.56076388888889  0.653545673076923 17.12673611111111  C 0.2178485576923077 16.692708333333336  0 16.16898148148148  0 15.555555555555557  C 0 14.94212962962963  0.2178485576923077 14.418402777777779  0.653545673076923 13.984375000000002  C 1.0892427884615383 13.550347222222221  1.6149839743589747 13.333333333333332  2.230769230769231 13.333333333333332  C 2.8465544871794877 13.333333333333332  3.3722956730769234 13.550347222222221  3.8079927884615383 13.984375000000002  Z M 24.756310096153847 22.630208333333332  C 25.192007211538463 23.06423611111111  25.40985576923077 23.58796296296296  25.40985576923077 24.20138888888889  C 25.40985576923077 24.80324074074074  25.18910256410257 25.324074074074076  24.747596153846153 25.76388888888889  C 24.306089743589745 26.203703703703702  23.783253205128204 26.42361111111111  23.179086538461537 26.42361111111111  C 22.56330128205128 26.42361111111111  22.037560096153847 26.20659722222222  21.60186298076923 25.772569444444443  C 21.166165865384613 25.338541666666668  20.94831730769231 24.814814814814813  20.94831730769231 24.20138888888889  C 20.94831730769231 23.58796296296296  21.166165865384613 23.06423611111111  21.60186298076923 22.630208333333332  C 22.037560096153847 22.196180555555554  22.56330128205128 21.979166666666664  23.179086538461537 21.979166666666664  C 23.794871794871796 21.979166666666664  24.32061298076923 22.196180555555554  24.756310096153847 22.630208333333332  Z M 7.790264423076923 4.947916666666668  C 8.33633814102564 5.491898148148145  8.609375 6.145833333333335  8.609375 6.909722222222222  C 8.609375 7.6736111111111125  8.33633814102564 8.327546296296292  7.790264423076923 8.871527777777777  C 7.244190705128205 9.415509259259258  6.587740384615384 9.687499999999998  5.820913461538462 9.687499999999998  C 5.054086538461538 9.687499999999998  4.397636217948718 9.415509259259258  3.8515625 8.871527777777777  C 3.3054887820512824 8.327546296296292  3.0324519230769234 7.6736111111111125  3.0324519230769234 6.909722222222222  C 3.0324519230769234 6.145833333333335  3.3054887820512824 5.491898148148145  3.8515625 4.947916666666668  C 4.397636217948718 4.4039351851851825  5.054086538461538 4.1319444444444455  5.820913461538462 4.1319444444444455  C 6.587740384615384 4.1319444444444455  7.244190705128205 4.4039351851851825  7.790264423076923 4.947916666666668  Z M 28.346454326923077 13.984375000000002  C 28.782151442307697 14.418402777777779  29.000000000000007 14.94212962962963  29 15.555555555555557  C 29.000000000000007 16.16898148148148  28.782151442307697 16.692708333333336  28.346454326923077 17.12673611111111  C 27.910757211538463 17.56076388888889  27.38501602564103 17.77777777777778  26.76923076923077 17.77777777777778  C 26.153445512820515 17.77777777777778  25.627704326923077 17.56076388888889  25.192007211538463 17.12673611111111  C 24.756310096153847 16.692708333333336  24.538461538461537 16.16898148148148  24.538461538461537 15.555555555555557  C 24.538461538461537 14.94212962962963  24.756310096153847 14.418402777777779  25.192007211538463 13.984375000000002  C 25.627704326923077 13.550347222222221  26.153445512820515 13.333333333333332  26.76923076923077 13.333333333333332  C 27.38501602564103 13.333333333333332  27.910757211538463 13.550347222222221  28.346454326923077 13.984375000000002  Z M 16.87019230769231 0.9722222222222232  C 17.520833333333336 1.6203703703703676  17.846153846153847 2.4074074074074048  17.846153846153847 3.333333333333335  C 17.846153846153847 4.259259259259258  17.520833333333336 5.046296296296292  16.87019230769231 5.694444444444443  C 16.21955128205128 6.342592592592591  15.429487179487179 6.666666666666666  14.5 6.666666666666666  C 13.570512820512823 6.666666666666666  12.78044871794872 6.342592592592591  12.129807692307693 5.694444444444443  C 11.479166666666668 5.046296296296292  11.153846153846155 4.259259259259258  11.153846153846155 3.333333333333335  C 11.153846153846155 2.4074074074074048  11.479166666666668 1.6203703703703676  12.129807692307693 0.9722222222222232  C 12.78044871794872 0.3240740740740755  13.570512820512823 0  14.5 0  C 15.429487179487179 0  16.21955128205128 0.3240740740740755  16.87019230769231 0.9722222222222232  Z M 25.93269230769231 4.166666666666665  C 26.69951923076923 4.930555555555555  27.08293269230769 5.844907407407406  27.08293269230769 6.909722222222222  C 27.08293269230769 7.986111111111112  26.69951923076923 8.90335648148148  25.93269230769231 9.661458333333336  C 25.165865384615387 10.419560185185183  24.247996794871796 10.79861111111111  23.179086538461537 10.79861111111111  C 22.09855769230769 10.79861111111111  21.177784455128204 10.419560185185183  20.416766826923077 9.661458333333336  C 19.65574919871795 8.90335648148148  19.275240384615387 7.986111111111112  19.275240384615387 6.909722222222222  C 19.275240384615387 5.844907407407406  19.65574919871795 4.930555555555555  20.416766826923077 4.166666666666665  C 21.177784455128204 3.4027777777777777  22.09855769230769 3.0208333333333326  23.179086538461537 3.0208333333333326  C 24.247996794871796 3.0208333333333326  25.165865384615387 3.4027777777777777  25.93269230769231 4.166666666666665  Z " fill-rule="nonzero" fill="#f2f2f2" stroke="none" transform="matrix(1 0 0 1 163 945 )" />
  </g>
</svg>