<?xml version="1.0" encoding="utf-8"?>
<svg version="1.1" xmlns:xlink="http://www.w3.org/1999/xlink" width="20px" height="20px" xmlns="http://www.w3.org/2000/svg">
  <g transform="matrix(1 0 0 1 -850 -224 )">
    <path d="M 16.5234375 12.751460090850097  C 16.89670138888889 11.873242483235993  17.083333333333332 10.953926022063595  17.083333333333332 9.9935107073329  C 17.083333333333332 8.600475881462252  16.705729166666668 7.324248323599393  15.950520833333332 6.164828033744323  L 6.1328125 15.937702790395846  C 7.322048611111112 16.70776552022496  8.61111111111111 17.09279688513952  10 17.09279688513952  C 10.963541666666668 17.09279688513952  11.881510416666668 16.90460739779364  12.75390625 16.528228423101883  C 13.626302083333332 16.151849448410122  14.379340277777779 15.64784771793208  15.013020833333332 15.016223231667748  C 15.646701388888891 14.384598745403416  16.150173611111114 13.629677698464198  16.5234375 12.751460090850097  Z M 2.916666666666667 9.9935107073329  C 2.916666666666667 11.395197923426345  3.302951388888889 12.688730261734802  4.075520833333333 13.874107722258273  L 13.90625 4.088254380272551  C 12.734375000000002 3.3008868699978366  11.432291666666668 2.9072031148604793  10 2.9072031148604793  C 8.715277777777779 2.9072031148604793  7.5303819444444455 3.2230153579926446  6.4453125 3.854639844256975  C 5.360243055555555 4.486264330521303  4.500868055555555 5.347177157689811  3.8671875 6.437378325762493  C 3.2335069444444446 7.527579493835173  2.916666666666667 8.712956954358642  2.916666666666667 9.9935107073329  Z M 19.205729166666668 6.106424399740429  C 19.735243055555554 7.3393900064892925  20 8.63508544235345  20 9.9935107073329  C 20 11.35193597231235  19.735243055555554 12.649794505732208  19.205729166666668 13.887086307592472  C 18.67621527777778 15.124378109452735  17.966579861111114 16.188622106857018  17.076822916666668 17.07981829980532  C 16.18706597222222 17.971014492753625  15.123697916666668 18.680510491023142  13.88671875 19.208306294613887  C 12.649739583333336 19.736102098204633  11.354166666666668 20  10 20  C 8.645833333333334 20  7.350260416666666 19.736102098204633  6.11328125 19.208306294613887  C 4.876302083333333 18.680510491023142  3.8129340277777786 17.971014492753625  2.923177083333333 17.07981829980532  C 2.0334201388888893 16.188622106857018  1.3237847222222223 15.124378109452735  0.7942708333333335 13.887086307592472  C 0.26475694444444453 12.649794505732208  0 11.35193597231235  0 9.9935107073329  C 0 8.63508544235345  0.26475694444444453 7.3393900064892925  0.7942708333333335 6.106424399740429  C 1.3237847222222223 4.873458792991563  2.0334201388888893 3.81137789314298  2.923177083333333 2.9201817001946795  C 3.8129340277777786 2.0289855072463747  4.876302083333333 1.3194895089768521  6.11328125 0.7916937053861139  C 7.350260416666666 0.2638979017953691  8.645833333333334 0  10 0  C 11.354166666666668 0  12.649739583333336 0.2638979017953691  13.88671875 0.7916937053861139  C 15.123697916666668 1.3194895089768521  16.18706597222222 2.0289855072463747  17.076822916666668 2.9201817001946795  C 17.966579861111114 3.81137789314298  18.67621527777778 4.873458792991563  19.205729166666668 6.106424399740429  Z " fill-rule="nonzero" fill="#7f7f7f" stroke="none" transform="matrix(1 0 0 1 850 224 )" />
  </g>
</svg>