<?xml version="1.0" encoding="utf-8"?>
<svg version="1.1" xmlns:xlink="http://www.w3.org/1999/xlink" width="17px" height="20px" xmlns="http://www.w3.org/2000/svg">
  <g transform="matrix(1 0 0 1 -958 -224 )">
    <path d="M 12.794270833333332 0.7589285714285721  L 16.247395833333332 4.241071428571428  C 16.453993055555557 4.449404761904761  16.63107638888889 4.732142857142858  16.778645833333332 5.0892857142857135  C 16.92621527777778 5.446428571428572  17 5.773809523809524  17 6.071428571428572  L 17 18.928571428571427  C 17 19.226190476190478  16.89670138888889 19.479166666666664  16.690104166666668 19.6875  C 16.483506944444446 19.895833333333336  16.23263888888889 20  15.9375 20  L 1.0625 20  C 0.7673611111111112 20  0.5164930555555556 19.895833333333336  0.30989583333333337 19.6875  C 0.1032986111111111 19.479166666666664  0 19.226190476190478  0 18.928571428571427  L 0 1.071428571428572  C 0 0.7738095238095233  0.1032986111111111 0.5208333333333326  0.30989583333333337 0.3125  C 0.5164930555555556 0.1041666666666674  0.7673611111111112 0  1.0625 0  L 10.979166666666668 0  C 11.274305555555557 0  11.598958333333332 0.07440476190476275  11.953125 0.22321428571428603  C 12.307291666666668 0.3720238095238093  12.587673611111112 0.5505952380952372  12.794270833333332 0.7589285714285721  Z M 11.787109375 1.763392857142858  C 11.698567708333332 1.674107142857142  11.547309027777779 1.5922619047619024  11.333333333333332 1.517857142857142  L 11.333333333333332 5.7142857142857135  L 15.494791666666668 5.7142857142857135  C 15.421006944444446 5.498511904761902  15.33984375 5.345982142857142  15.251302083333332 5.256696428571428  L 11.787109375 1.763392857142858  Z M 1.4166666666666665 18.571428571428573  L 15.583333333333332 18.571428571428573  L 15.583333333333332 7.142857142857142  L 10.979166666666668 7.142857142857142  C 10.684027777777777 7.142857142857142  10.433159722222223 7.0386904761904745  10.2265625 6.830357142857142  C 10.019965277777777 6.622023809523809  9.916666666666668 6.369047619047617  9.916666666666668 6.071428571428572  L 9.916666666666668 1.428571428571428  L 1.4166666666666665 1.428571428571428  L 1.4166666666666665 18.571428571428573  Z " fill-rule="nonzero" fill="#7f7f7f" stroke="none" transform="matrix(1 0 0 1 958 224 )" />
  </g>
</svg>