<?xml version="1.0" encoding="utf-8"?>
<svg version="1.1" xmlns:xlink="http://www.w3.org/1999/xlink" width="7px" height="10px" xmlns="http://www.w3.org/2000/svg">
  <g transform="matrix(1 0 0 1 -963 -229 )">
    <path d="M 4.263388510223953 9.93252840909091  C 4.22022070756248 9.977509469696969  4.16910094125284 10  4.110029211295035 10  L 2.937682570593963 10  C 2.8786108406361572 10  2.8274910743265176 9.978693181818182  2.784323271665044 9.936079545454547  C 2.7411554690035707 9.89346590909091  2.719571567672834 9.839015151515152  2.7195715676728334 9.772727272727273  L 2.7195715676728334 7.428977272727273  L 0.7565725413826679 7.428977272727273  C 0.6975008114248621 7.428977272727273  0.6463810451152224 7.407670454545454  0.6032132424537489 7.365056818181818  C 0.5600454397922753 7.322443181818182  0.5384615384615385 7.267992424242424  0.5384615384615385 7.201704545454546  L 0.5384615384615385 6.470170454545454  C 0.5384615384615385 6.408617424242424  0.5600454397922753 6.355350378787879  0.6032132424537489 6.310369318181818  C 0.6463810451152224 6.265388257575757  0.6975008114248621 6.242897727272727  0.7565725413826679 6.242897727272727  L 2.7195715676728334 6.242897727272727  L 2.7195715676728334 5.639204545454546  L 0.7565725413826679 5.639204545454546  C 0.6975008114248621 5.639204545454546  0.6463810451152224 5.617897727272727  0.6032132424537489 5.575284090909092  C 0.5600454397922753 5.532670454545454  0.5384615384615385 5.478219696969697  0.5384615384615385 5.411931818181818  L 0.5384615384615385 4.673295454545454  C 0.5384615384615385 4.611742424242423  0.5600454397922753 4.558475378787879  0.6032132424537489 4.5134943181818175  C 0.6463810451152224 4.468513257575757  0.6975008114248621 4.446022727272727  0.7565725413826679 4.446022727272727  L 2.2151898734177218 4.446022727272727  L 0.027263875365141188 0.3409090909090906  C -0.009087958455047066 0.2651515151515149  -0.009087958455047066 0.18939393939393812  0.027263875365141188 0.11363636363636354  C 0.07270366764037652 0.037878787878787845  0.13631937682570594 0  0.2181110029211295 0  L 1.5404089581304772 0  C 1.6267445634534243 0  1.6926322622525156 0.042613636363636465  1.7380720545277506 0.1278409090909094  L 3.2035053554040895 3.1463068181818175  C 3.2898409607270374 3.3262310606060597  3.4170723790976956 3.622159090909091  3.585199610516066 4.034090909090909  C 3.630639402791302 3.920454545454545  3.699935086011035 3.7594696969696964  3.793086660175268 3.5511363636363633  C 3.8862382343395008 3.34280303030303  3.948717948717949 3.1983901515151514  3.9805258033106137 3.117897727272727  L 5.282375851996105 0.13494318181818232  C 5.318727685816294 0.044981060606059664  5.384615384615386 0  5.4800389483933785 0  L 6.7818889970788705 0  C 6.859136643946771 0  6.9204803635183385 0.037878787878787845  6.965920155793573 0.11363636363636354  C 7.006815968841285 0.179924242424242  7.009087958455049 0.25331439393939337  6.972736124634859 0.3338068181818177  L 4.839337877312561 4.446022727272727  L 6.3047711781889 4.446022727272727  C 6.363842908146706 4.446022727272727  6.414962674456346 4.468513257575757  6.458130477117819 4.5134943181818175  C 6.501298279779293 4.558475378787879  6.522882181110029 4.611742424242423  6.522882181110029 4.673295454545454  L 6.522882181110029 5.411931818181818  C 6.522882181110029 5.478219696969697  6.501298279779293 5.532670454545454  6.458130477117819 5.575284090909092  C 6.414962674456346 5.617897727272727  6.363842908146706 5.639204545454546  6.3047711781889 5.639204545454546  L 4.328140214216163 5.639204545454546  L 4.328140214216163 6.242897727272727  L 6.3047711781889 6.242897727272727  C 6.363842908146706 6.242897727272727  6.414962674456346 6.265388257575757  6.458130477117819 6.310369318181818  C 6.501298279779293 6.355350378787879  6.522882181110029 6.408617424242424  6.522882181110029 6.470170454545454  L 6.522882181110029 7.201704545454546  C 6.522882181110029 7.267992424242424  6.501298279779293 7.322443181818182  6.458130477117819 7.365056818181818  C 6.414962674456346 7.407670454545454  6.363842908146706 7.428977272727273  6.3047711781889 7.428977272727273  L 4.328140214216163 7.428977272727273  L 4.328140214216163 9.772727272727273  C 4.328140214216163 9.834280303030305  4.306556312885427 9.887547348484848  4.263388510223953 9.93252840909091  Z " fill-rule="nonzero" fill="#7f7f7f" stroke="none" transform="matrix(1 0 0 1 963 229 )" />
  </g>
</svg>