<?xml version="1.0" encoding="utf-8"?>
<svg version="1.1" xmlns:xlink="http://www.w3.org/1999/xlink" width="21px" height="20px" xmlns="http://www.w3.org/2000/svg">
  <g transform="matrix(1 0 0 1 -850 -252 )">
    <path d="M 9.68270944741533 6.532663316582914  C 10.148544266191326 6.06365159128978  10.381461675579322 5.4941373534338345  10.381461675579322 4.824120603015077  C 10.381461675579322 4.154103852596314  10.148544266191326 3.5845896147403677  9.68270944741533 3.1155778894472363  C 9.216874628639337 2.6465661641541027  8.65121806298277 2.412060301507537  7.9857397504456324 2.412060301507537  C 7.320261437908497 2.412060301507537  6.754604872251932 2.6465661641541027  6.288770053475935 3.1155778894472363  C 5.8229352346999415 3.5845896147403677  5.590017825311943 4.154103852596314  5.590017825311943 4.824120603015077  C 5.590017825311943 5.175879396984923  5.669043374925728 5.523450586264655  5.827094474153299 5.866834170854272  C 5.486036838978016 5.707705192629815  5.140819964349377 5.628140703517587  4.791443850267379 5.628140703517587  C 4.125965537730244 5.628140703517587  3.5603089720736785 5.862646566164152  3.0944741532976825 6.331658291457288  C 2.628639334521688 6.800670016750418  2.3957219251336896 7.3701842546063645  2.3957219251336896 8.040201005025125  C 2.3957219251336896 8.710217755443885  2.628639334521688 9.279731993299832  3.0944741532976825 9.748743718592966  C 3.5603089720736785 10.217755443886096  4.125965537730244 10.452261306532664  4.791443850267379 10.452261306532664  C 5.456922162804516 10.452261306532664  6.022578728461082 10.217755443886096  6.4884135472370765 9.748743718592966  C 6.954248366013072 9.279731993299832  7.187165775401069 8.710217755443885  7.187165775401069 8.040201005025125  C 7.187165775401069 7.688442211055275  7.108140225787286 7.340871021775543  6.950089126559715 6.99748743718593  C 7.291146761734997 7.156616415410384  7.636363636363637 7.236180904522613  7.9857397504456324 7.236180904522613  C 8.65121806298277 7.236180904522613  9.216874628639337 7.001675041876045  9.68270944741533 6.532663316582914  Z M 20.644385026737968 13.15326633165829  C 20.881461675579324 13.429648241206031  21.000000000000004 13.601340033500836  21 13.668341708542716  C 21.000000000000004 13.810720268006698  20.796197266785505 14.087102177554438  20.388591800356505 14.49748743718593  C 19.98098633392751 14.90787269681742  19.706476530005943 15.113065326633166  19.5650623885918 15.113065326633166  C 19.490196078431374 15.113065326633166  19.371657754010695 15.04606365159129  19.20944741532977 14.91206030150754  C 19.04723707664884 14.778056951423784  18.895424836601308 14.639865996649917  18.754010695187166 14.49748743718593  C 18.612596553773024 14.355108877721943  18.452465834818778 14.187604690117253  18.27361853832442 13.99497487437186  C 18.094771241830067 13.802345058626464  17.992869875222816 13.693467336683419  17.967914438502675 13.668341708542716  L 16.77005347593583 14.874371859296483  L 19.515151515151516 17.63819095477387  C 19.748068924539513 17.872696817420437  19.864527629233514 18.15745393634841  19.864527629233514 18.492462311557787  C 19.864527629233514 18.844221105527637  19.702317290552585 19.183417085427134  19.37789661319073 19.51005025125628  C 19.053475935828878 19.83668341708543  18.71657754010695 20  18.367201426024955 20  C 18.03446226975639 20  17.751633986928105 19.882747068676718  17.518716577540108 19.64824120603015  L 9.146167557932264 11.218592964824122  C 7.6821152703505655 12.315745393634842  6.163992869875222 12.864321608040202  4.591800356506239 12.864321608040202  C 3.2358882947118244 12.864321608040202  2.1316102198455145 12.435092127303184  1.2789661319073087 11.576633165829143  C 0.42632204396910295 10.718174204355108  0 9.606365159128977  0 8.241206030150753  C 0 6.90117252931323  0.3951277480689247 5.590452261306533  1.1853832442067738 4.309045226130652  C 1.9756387403446232 3.0276381909547734  3.0071301247771838 1.9891122278056939  4.279857397504457 1.193467336683418  C 5.552584670231729 0.3978224455611379  6.854426619132502 0  8.185383244206774 0  C 9.541295306001189 0  10.6455733808675 0.4292294807370167  11.498217468805704 1.2876884422110546  C 12.35086155674391 2.1461474036850903  12.777183600713013 3.257956448911221  12.777183600713013 4.623115577889447  C 12.777183600713013 6.20603015075377  12.232323232323232 7.734505862646566  11.142602495543672 9.20854271356784  L 15.572192513368984 13.668341708542716  L 16.77005347593583 12.462311557788945  C 16.745098039215687 12.437185929648242  16.636957813428406 12.334589614740368  16.445632798573975 12.154522613065327  C 16.25430778371955 11.974455611390283  16.087938205585267 11.813232830820768  15.946524064171124 11.670854271356784  C 15.805109922756984 11.5284757118928  15.6678550207962 11.375628140703517  15.53475935828877 11.212311557788945  C 15.401663695781345 11.048994974874372  15.33511586452763 10.929648241206031  15.33511586452763 10.85427135678392  C 15.33511586452763 10.711892797319933  15.538918597742128 10.435510887772192  15.946524064171124 10.025125628140703  C 16.35412953060012 9.614740368509212  16.628639334521687 9.409547738693467  16.77005347593583 9.409547738693467  C 16.878193701723113 9.409547738693467  16.973856209150327 9.451423785594638  17.05704099821747 9.535175879396984  C 17.106951871657753 9.585427135678392  17.29827688651218 9.771775544388607  17.63101604278075 10.09422110552764  C 17.96375519904932 10.416666666666664  18.3048128342246 10.749581239530988  18.654188948306594 11.092964824120601  C 19.003565062388592 11.436348408710217  19.363339275103982 11.7964824120603  19.733511586452764 12.173366834170857  C 20.10368389780155 12.550251256281406  20.407308377896616 12.876884422110553  20.644385026737968 13.15326633165829  Z " fill-rule="nonzero" fill="#7f7f7f" stroke="none" transform="matrix(1 0 0 1 850 252 )" />
  </g>
</svg>