<?xml version="1.0" encoding="utf-8"?>
<svg version="1.1" xmlns:xlink="http://www.w3.org/1999/xlink" width="926px" height="42px" xmlns="http://www.w3.org/2000/svg">
  <g transform="matrix(1 0 0 1 -80 -1654 )">
    <path d="M 0.5 41  L 0.5 0.9228295819935646  C 0 0.4060450160771367  2.7341650671784787 0  6.214011516314763 0.5  L 918.785988483685 0.5  C 922.2658349328215 0  925 0.4060450160771367  925.5 0.9228295819935646  L 925.5 41  L 0.5 41  Z " fill-rule="nonzero" fill="#ffffff" stroke="none" transform="matrix(1 0 0 1 80 1654 )" />
    <path d="M 0.5 41  L 0.5 0.9228295819935646  C 0 0.4060450160771367  2.7341650671784787 0  6.214011516314763 0.5  L 918.785988483685 0.5  C 922.2658349328215 0  925 0.4060450160771367  925.5 0.9228295819935646  L 925.5 41  " stroke-width="1" stroke="#d8d8d8" fill="none" transform="matrix(1 0 0 1 80 1654 )" />
  </g>
</svg>