<?xml version="1.0" encoding="utf-8"?>
<svg version="1.1" xmlns:xlink="http://www.w3.org/1999/xlink" width="881px" height="42px" xmlns="http://www.w3.org/2000/svg">
  <g transform="matrix(1 0 0 1 -80 -4624 )">
    <path d="M 0.5 41  L 0.5 0.9228295819935646  C 0 0.4060450160771367  2.601151631477904 0  5.911708253358909 0.5  L 874.0882917466408 0.5  C 877.398848368522 0  880 0.4060450160771367  880.5 0.9228295819935646  L 880.5 41  L 0.5 41  Z " fill-rule="nonzero" fill="#ffffff" stroke="none" transform="matrix(1 0 0 1 80 4624 )" />
    <path d="M 0.5 41  L 0.5 0.9228295819935646  C 0 0.4060450160771367  2.601151631477904 0  5.911708253358909 0.5  L 874.0882917466408 0.5  C 877.398848368522 0  880 0.4060450160771367  880.5 0.9228295819935646  L 880.5 41  " stroke-width="1" stroke="#d8d8d8" fill="none" transform="matrix(1 0 0 1 80 4624 )" />
  </g>
</svg>