<?xml version="1.0" encoding="utf-8"?>
<svg version="1.1" xmlns:xlink="http://www.w3.org/1999/xlink" width="12px" height="12px" xmlns="http://www.w3.org/2000/svg">
  <g transform="matrix(1 0 0 1 -779 -5295 )">
    <path d="M 6.9296875 9.9296875  C 6.9765625 9.8828125  7 9.822916666666666  7 9.75  L 7 8.25  C 7 8.177083333333332  6.9765625 8.1171875  6.9296875 8.0703125  C 6.8828125 8.0234375  6.822916666666668 8  6.75 8  L 5.25 8  C 5.177083333333334 8  5.1171875 8.0234375  5.0703125 8.0703125  C 5.0234375 8.1171875  5 8.177083333333332  5 8.25  L 5 9.75  C 5 9.822916666666666  5.0234375 9.8828125  5.0703125 9.9296875  C 5.1171875 9.9765625  5.177083333333334 10  5.25 10  L 6.75 10  C 6.822916666666668 10  6.8828125 9.9765625  6.9296875 9.9296875  Z M 8.90234375 5.1328125  C 8.967447916666668 4.940104166666666  9 4.729166666666666  9 4.5  C 9 4.041666666666666  8.85546875 3.6171874999999996  8.56640625 3.2265625000000004  C 8.27734375 2.8359375  7.916666666666668 2.533854166666666  7.484375 2.3203125  C 7.052083333333334 2.1067708333333326  6.609375 1.9999999999999996  6.15625 1.9999999999999996  C 4.890625 1.9999999999999996  3.924479166666667 2.5546875  3.2578125 3.6640624999999996  C 3.1796875000000004 3.7890625000000004  3.200520833333334 3.8984374999999996  3.3203125 3.9921874999999996  L 4.3515625 4.7734375  C 4.388020833333334 4.8046875  4.4375 4.8203125  4.5 4.8203125  C 4.583333333333334 4.8203125  4.6484375 4.7890625  4.6953125 4.7265625  C 4.971354166666667 4.372395833333333  5.1953125 4.1328125  5.3671875 4.0078125  C 5.544270833333334 3.8828125000000004  5.768229166666667 3.8203125  6.0390625 3.8203125  C 6.2890625 3.8203125  6.51171875 3.8880208333333326  6.70703125 4.0234375  C 6.90234375 4.158854166666666  7 4.312499999999998  7 4.484375  C 7 4.682291666666666  6.947916666666667 4.841145833333333  6.84375 4.9609375  C 6.739583333333334 5.080729166666666  6.5625 5.197916666666666  6.3125 5.3125  C 5.984375 5.458333333333332  5.68359375 5.68359375  5.41015625 5.98828125  C 5.13671875 6.29296875  5 6.619791666666667  5 6.968750000000001  L 5 7.250000000000001  C 5 7.322916666666667  5.0234375 7.3828125  5.0703125 7.4296875  C 5.1171875 7.4765625  5.177083333333334 7.5  5.25 7.5  L 6.75 7.5  C 6.822916666666668 7.5  6.8828125 7.4765625  6.9296875 7.4296875  C 6.9765625 7.3828125  7 7.322916666666667  7 7.250000000000001  C 7 7.151041666666666  7.055989583333334 7.022135416666666  7.16796875 6.863281250000001  C 7.279947916666668 6.704427083333333  7.421875 6.575520833333333  7.59375 6.476562500000001  C 7.760416666666668 6.382812500000001  7.888020833333334 6.308593749999999  7.9765625 6.253906250000001  C 8.065104166666668 6.19921875  8.184895833333334 6.108072916666666  8.3359375 5.98046875  C 8.486979166666668 5.852864583333334  8.602864583333334 5.727864583333332  8.68359375 5.60546875  C 8.764322916666668 5.483072916666666  8.837239583333334 5.325520833333334  8.90234375 5.1328125  Z M 11.1953125 2.98828125  C 11.731770833333332 3.907552083333332  12 4.911458333333332  12 6  C 12 7.088541666666667  11.731770833333332 8.092447916666664  11.1953125 9.01171875  C 10.658854166666668 9.930989583333334  9.930989583333334 10.658854166666666  9.01171875 11.1953125  C 8.092447916666668 11.731770833333334  7.088541666666667 12  6 12  C 4.911458333333334 12  3.9075520833333335 11.731770833333334  2.98828125 11.1953125  C 2.069010416666667 10.658854166666666  1.3411458333333335 9.930989583333334  0.8046875 9.01171875  C 0.26822916666666663 8.092447916666664  0 7.088541666666667  0 6  C 0 4.911458333333332  0.26822916666666663 3.907552083333332  0.8046875 2.98828125  C 1.3411458333333335 2.0690104166666665  2.069010416666667 1.3411458333333321  2.98828125 0.8046874999999996  C 3.9075520833333335 0.26822916666666563  4.911458333333334 0  6 0  C 7.088541666666667 0  8.092447916666668 0.26822916666666563  9.01171875 0.8046874999999996  C 9.930989583333334 1.3411458333333321  10.658854166666668 2.0690104166666665  11.1953125 2.98828125  Z " fill-rule="nonzero" fill="#000000" stroke="none" transform="matrix(1 0 0 1 779 5295 )" />
  </g>
</svg>