<?xml version="1.0" encoding="utf-8"?>
<svg version="1.1" xmlns:xlink="http://www.w3.org/1999/xlink" width="881px" height="55px" xmlns="http://www.w3.org/2000/svg">
  <g transform="matrix(1 0 0 1 -80 -5609 )">
    <path d="M 0.5 0  L 0.5 52.78456591639883  C 0 53.46520900321548  2.6011516314779017 54  5.911708253358938 54.5  L 874.0882917466411 54.5  C 877.3988483685221 54  880 53.46520900321548  880.5 52.78456591639883  L 880.5 0  L 0.5 0  Z " fill-rule="nonzero" fill="#ffffff" stroke="none" transform="matrix(1 0 0 1 80 5609 )" />
    <path d="M 0.5 0  L 0.5 52.78456591639883  C 0 53.46520900321548  2.6011516314779017 54  5.911708253358938 54.5  L 874.0882917466411 54.5  C 877.3988483685221 54  880 53.46520900321548  880.5 52.78456591639883  L 880.5 0  " stroke-width="1" stroke="#ebebeb" fill="none" transform="matrix(1 0 0 1 80 5609 )" />
  </g>
</svg>