<?xml version="1.0" encoding="utf-8"?>
<svg version="1.1" xmlns:xlink="http://www.w3.org/1999/xlink" width="750px" height="55px" xmlns="http://www.w3.org/2000/svg">
  <g transform="matrix(1 0 0 1 -74 -6834 )">
    <path d="M 0.5 0  L 0.5 52.78456591639883  C 0 53.46520900321548  2.213934740882896 54  5.031669865643005 54.5  L 743.9683301343571 54.5  C 746.7860652591171 54  749 53.46520900321548  749.5 52.78456591639883  L 749.5 0  L 0.5 0  Z " fill-rule="nonzero" fill="#ffffff" stroke="none" transform="matrix(1 0 0 1 74 6834 )" />
    <path d="M 0.5 0  L 0.5 52.78456591639883  C 0 53.46520900321548  2.213934740882896 54  5.031669865643005 54.5  L 743.9683301343571 54.5  C 746.7860652591171 54  749 53.46520900321548  749.5 52.78456591639883  L 749.5 0  " stroke-width="1" stroke="#ebebeb" fill="none" transform="matrix(1 0 0 1 74 6834 )" />
  </g>
</svg>