<?xml version="1.0" encoding="utf-8"?>
<svg version="1.1" xmlns:xlink="http://www.w3.org/1999/xlink" width="18px" height="18px" xmlns="http://www.w3.org/2000/svg">
  <g transform="matrix(1 0 0 1 -655 -6538 )">
    <path d="M 14.77734375 10.277343750000002  C 14.925781250000002 10.12890625  15 9.953125  15 9.750000000000002  L 15 8.25  C 15 8.046874999999998  14.925781250000002 7.871093749999999  14.77734375 7.722656250000001  C 14.628906250000002 7.57421875  14.453125000000002 7.499999999999999  14.25 7.499999999999999  L 3.75 7.499999999999999  C 3.5468750000000004 7.499999999999999  3.3710937500000004 7.57421875  3.22265625 7.722656250000001  C 3.0742187500000004 7.871093749999999  3 8.046874999999998  3 8.25  L 3 9.750000000000002  C 3 9.953125  3.0742187500000004 10.12890625  3.22265625 10.277343750000002  C 3.3710937500000004 10.42578125  3.5468750000000004 10.499999999999998  3.75 10.499999999999998  L 14.25 10.499999999999998  C 14.453125000000002 10.499999999999998  14.628906250000002 10.42578125  14.77734375 10.277343750000002  Z M 17.009765625 0.9902343750000007  C 17.669921875 1.6503906249999984  18 2.4453124999999973  18 3.375  L 18 14.625  C 18 15.554687499999998  17.669921875 16.349609375  17.009765625 17.009765625  C 16.349609375 17.669921875  15.554687500000002 18  14.625 18  L 3.375 18  C 2.4453125 18  1.6503906250000002 17.669921875  0.990234375 17.009765625  C 0.33007812499999994 16.349609375  0 15.554687499999998  0 14.625  L 0 3.375  C 0 2.4453124999999973  0.33007812499999994 1.6503906249999984  0.990234375 0.9902343750000007  C 1.6503906250000002 0.3300781249999989  2.4453125 0  3.375 0  L 14.625 0  C 15.554687500000002 0  16.349609375 0.3300781249999989  17.009765625 0.9902343750000007  Z " fill-rule="nonzero" fill="#ff0000" stroke="none" transform="matrix(1 0 0 1 655 6538 )" />
  </g>
</svg>