<?xml version="1.0" encoding="utf-8"?>
<svg version="1.1" xmlns:xlink="http://www.w3.org/1999/xlink" width="12px" height="12px" viewBox="87 4131  12 12" xmlns="http://www.w3.org/2000/svg">
  <path d="M 93 4131  C 96.36 4131  99 4133.64  99 4137  C 99 4140.36  96.36 4143  93 4143  C 89.64 4143  87 4140.36  87 4137  C 87 4133.64  89.64 4131  93 4131  Z " fill-rule="nonzero" fill="#ffffff" stroke="none" />
  <path d="M 93 4131.5  C 96.08 4131.5  98.5 4133.92  98.5 4137  C 98.5 4140.08  96.08 4142.5  93 4142.5  C 89.92 4142.5  87.5 4140.08  87.5 4137  C 87.5 4133.92  89.92 4131.5  93 4131.5  Z " stroke-width="1" stroke="#797979" fill="none" />
  <path d="M 93 4140  C 91.32 4140  90 4138.68  90 4137  C 90 4135.32  91.32 4134  93 4134  C 94.68 4134  96 4135.32  96 4137  C 96 4138.68  94.68 4140  93 4140  " fill-rule="nonzero" fill="#797979" stroke="none" />
</svg>