<?xml version="1.0" encoding="utf-8"?>
<svg version="1.1" xmlns:xlink="http://www.w3.org/1999/xlink" width="12px" height="12px" viewBox="293 4131  12 12" xmlns="http://www.w3.org/2000/svg">
  <path d="M 299 4131  C 302.36 4131  305 4133.64  305 4137  C 305 4140.36  302.36 4143  299 4143  C 295.64 4143  293 4140.36  293 4137  C 293 4133.64  295.64 4131  299 4131  Z " fill-rule="nonzero" fill="#ffffff" stroke="none" />
  <path d="M 299 4131.5  C 302.08 4131.5  304.5 4133.92  304.5 4137  C 304.5 4140.08  302.08 4142.5  299 4142.5  C 295.92 4142.5  293.5 4140.08  293.5 4137  C 293.5 4133.92  295.92 4131.5  299 4131.5  Z " stroke-width="1" stroke="#797979" fill="none" />
  <path d="M 299 4140  C 297.32 4140  296 4138.68  296 4137  C 296 4135.32  297.32 4134  299 4134  C 300.68 4134  302 4135.32  302 4137  C 302 4138.68  300.68 4140  299 4140  " fill-rule="nonzero" fill="#797979" stroke="none" />
</svg>