<?xml version="1.0" encoding="utf-8"?>
<svg version="1.1" xmlns:xlink="http://www.w3.org/1999/xlink" width="12px" height="12px" viewBox="156 4131  12 12" xmlns="http://www.w3.org/2000/svg">
  <path d="M 162 4131  C 165.36 4131  168 4133.64  168 4137  C 168 4140.36  165.36 4143  162 4143  C 158.64 4143  156 4140.36  156 4137  C 156 4133.64  158.64 4131  162 4131  Z " fill-rule="nonzero" fill="#f0f0f0" stroke="none" />
  <path d="M 162 4131.5  C 165.08 4131.5  167.5 4133.92  167.5 4137  C 167.5 4140.08  165.08 4142.5  162 4142.5  C 158.92 4142.5  156.5 4140.08  156.5 4137  C 156.5 4133.92  158.92 4131.5  162 4131.5  Z " stroke-width="1" stroke="#797979" fill="none" />
  <path d="M 162 4140  C 160.32 4140  159 4138.68  159 4137  C 159 4135.32  160.32 4134  162 4134  C 163.68 4134  165 4135.32  165 4137  C 165 4138.68  163.68 4140  162 4140  " fill-rule="nonzero" fill="#797979" stroke="none" />
</svg>