<?xml version="1.0" encoding="utf-8"?>
<svg version="1.1" xmlns:xlink="http://www.w3.org/1999/xlink" width="12px" height="12px" viewBox="431 4131  12 12" xmlns="http://www.w3.org/2000/svg">
  <path d="M 437 4131  C 440.36 4131  443 4133.64  443 4137  C 443 4140.36  440.36 4143  437 4143  C 433.64 4143  431 4140.36  431 4137  C 431 4133.64  433.64 4131  437 4131  Z " fill-rule="nonzero" fill="#f0f0f0" stroke="none" />
  <path d="M 437 4131.5  C 440.08 4131.5  442.5 4133.92  442.5 4137  C 442.5 4140.08  440.08 4142.5  437 4142.5  C 433.92 4142.5  431.5 4140.08  431.5 4137  C 431.5 4133.92  433.92 4131.5  437 4131.5  Z " stroke-width="1" stroke="#797979" fill="none" />
  <path d="M 437 4140  C 435.32 4140  434 4138.68  434 4137  C 434 4135.32  435.32 4134  437 4134  C 438.68 4134  440 4135.32  440 4137  C 440 4138.68  438.68 4140  437 4140  " fill-rule="nonzero" fill="#797979" stroke="none" />
</svg>