<?xml version="1.0" encoding="utf-8"?>
<svg version="1.1" xmlns:xlink="http://www.w3.org/1999/xlink" width="12px" height="12px" viewBox="362 4131  12 12" xmlns="http://www.w3.org/2000/svg">
  <path d="M 368 4131  C 371.36 4131  374 4133.64  374 4137  C 374 4140.36  371.36 4143  368 4143  C 364.64 4143  362 4140.36  362 4137  C 362 4133.64  364.64 4131  368 4131  Z " fill-rule="nonzero" fill="#ffffff" stroke="none" />
  <path d="M 368 4131.5  C 371.08 4131.5  373.5 4133.92  373.5 4137  C 373.5 4140.08  371.08 4142.5  368 4142.5  C 364.92 4142.5  362.5 4140.08  362.5 4137  C 362.5 4133.92  364.92 4131.5  368 4131.5  Z " stroke-width="1" stroke="#797979" fill="none" />
  <path d="M 368 4140  C 366.32 4140  365 4138.68  365 4137  C 365 4135.32  366.32 4134  368 4134  C 369.68 4134  371 4135.32  371 4137  C 371 4138.68  369.68 4140  368 4140  " fill-rule="nonzero" fill="#797979" stroke="none" />
</svg>