<?xml version="1.0" encoding="utf-8"?>
<svg version="1.1" xmlns:xlink="http://www.w3.org/1999/xlink" width="11px" height="15px" xmlns="http://www.w3.org/2000/svg">
  <g transform="matrix(1 0 0 1 -478 -8068 )">
    <path d="M 10.7958984375 9.066051136363637  C 10.931966145833334 9.200994318181817  11 9.360795454545453  11 9.545454545454545  C 11 9.730113636363637  10.931966145833334 9.88991477272727  10.7958984375 10.024857954545455  L 5.9833984375 14.797585227272727  C 5.847330729166667 14.93252840909091  5.686197916666667 15  5.5 15  C 5.313802083333334 15  5.152669270833334 14.93252840909091  5.0166015625 14.797585227272727  L 0.2041015625 10.024857954545455  C 0.06803385416666666 9.88991477272727  0 9.730113636363637  0 9.545454545454545  C 0 9.360795454545453  0.06803385416666666 9.200994318181817  0.2041015625 9.066051136363637  C 0.34016927083333337 8.931107954545453  0.5013020833333334 8.863636363636363  0.6875 8.863636363636363  L 10.3125 8.863636363636363  C 10.498697916666668 8.863636363636363  10.659830729166668 8.931107954545453  10.7958984375 9.066051136363637  Z M 10.7958984375 4.975142045454545  C 10.931966145833334 5.110085227272726  11 5.2698863636363615  11 5.454545454545455  C 11 5.639204545454544  10.931966145833334 5.799005681818182  10.7958984375 5.933948863636364  C 10.659830729166668 6.068892045454547  10.498697916666668 6.136363636363636  10.3125 6.136363636363636  L 0.6875 6.136363636363636  C 0.5013020833333334 6.136363636363636  0.34016927083333337 6.068892045454547  0.2041015625 5.933948863636364  C 0.06803385416666666 5.799005681818182  0 5.639204545454544  0 5.454545454545455  C 0 5.2698863636363615  0.06803385416666666 5.110085227272726  0.2041015625 4.975142045454545  L 5.0166015625 0.20241477272727348  C 5.152669270833334 0.0674715909090895  5.313802083333334 0  5.5 0  C 5.686197916666667 0  5.847330729166667 0.0674715909090895  5.9833984375 0.20241477272727348  L 10.7958984375 4.975142045454545  Z " fill-rule="nonzero" fill="#000000" stroke="none" transform="matrix(1 0 0 1 478 8068 )" />
  </g>
</svg>