<?xml version="1.0" encoding="utf-8"?>
<svg version="1.1" xmlns:xlink="http://www.w3.org/1999/xlink" width="30px" height="32px" xmlns="http://www.w3.org/2000/svg">
  <g transform="matrix(1 0 0 1 -545 -5205 )">
    <path d="M 29.245923913043477 14.15147625160462  C 29.748641304347828 14.630723149336756  30 15.246897732135213  30 16  C 30 16.739409499358153  29.748641304347828 17.362430466409926  29.245923913043477 17.869062901155328  L 15.978260869565219 31.2400513478819  C 15.448369565217392 31.7466837826273  14.830163043478262 32  14.123641304347826 32  C 13.430706521739129 32  12.819293478260871 31.7466837826273  12.289402173913043 31.2400513478819  L 10.76086956521739 29.69961489088575  C 10.244565217391305 29.17928968763372  9.986413043478262 28.55626872058194  9.986413043478262 27.830551989730424  C 9.986413043478262 27.104835258878907  10.244565217391305 26.481814291827128  10.76086956521739 25.961489088575096  L 16.732336956521742 20  L 2.3845108695652177 20  C 1.6779891304347827 19.943517329910144  1.1039402173913044 19.686777920410783  0.6623641304347826 19.173299101412066  C 0.22078804347826084 18.65982028241335  0 18.04022250748823  0 17.314505776636715  L 0 14.685494223363285  C 0 13.959777492511765  0.22078804347826084 13.34017971758665  0.6623641304347826 12.826700898587934  C 1.1039402173913044 12.313222079589217  1.6779891304347827 12.05648267008986  2.3845108695652177 12  L 16.732336956521742 12  L 10.76086956521739 6.017971758664956  C 10.244565217391305 5.525032092426187  9.986413043478262 4.90885750962773  9.986413043478262 4.169448010269576  C 9.986413043478262 3.4300385109114266  10.244565217391305 2.8138639281129656  10.76086956521739 2.3209242618741968  L 12.289402173913043 0.7804878048780495  C 12.805706521739133 0.2601626016260141  13.41711956521739 0  14.123641304347826 0  C 14.84375 0  15.46195652173913 0.2601626016260141  15.978260869565219 0.7804878048780495  L 29.245923913043477 14.15147625160462  Z " fill-rule="nonzero" fill="#d9001b" stroke="none" fill-opacity="0.43529411764705883" transform="matrix(1 0 0 1 545 5205 )" />
  </g>
</svg>