<?xml version="1.0" encoding="utf-8"?>
<svg version="1.1" xmlns:xlink="http://www.w3.org/1999/xlink" width="25px" height="23px" xmlns="http://www.w3.org/2000/svg">
  <g transform="matrix(1 0 0 1 -88 -1852 )">
    <path d="M 98.04708493262854 1860.446304564688  L 100.5 1853.500951949425  L 102.95291506737146 1860.446304564688  L 110.74110823793298 1860.446304564688  L 104.4403276074738 1864.6578668453362  L 106.87558399570217 1871.5532194605994  L 100.5 1867.2916571799512  L 94.12441600429783 1871.5532194605994  L 96.5596723925262 1864.6578668453362  L 90.25889176206702 1860.446304564688  L 98.04708493262854 1860.446304564688  Z " fill-rule="nonzero" fill="#ffffff" stroke="none" />
    <path d="M 97.69357514637758 1859.946304564688  L 100.5 1852  L 103.3064248536224 1859.946304564688  L 112.38820645368942 1859.946304564688  L 105.04089080003351 1864.8573908706237  L 107.84731565365591 1872.803695435312  L 100.5 1867.8926091293763  L 93.15268434634409 1872.803695435312  L 95.95910919996649 1864.8573908706237  L 88.61179354631058 1859.946304564688  L 97.69357514637758 1859.946304564688  Z M 100.5 1855.0019038988498  L 98.40059471887949 1860.946304564688  L 91.90598997782347 1860.946304564688  L 97.1602355850859 1864.4583428200488  L 95.09614766225158 1870.302743485887  L 100.5 1866.6907052305264  L 105.90385233774842 1870.302743485887  L 103.8397644149141 1864.4583428200488  L 109.09401002217653 1860.946304564688  L 102.59940528112051 1860.946304564688  L 100.5 1855.0019038988498  Z " fill-rule="nonzero" fill="#797979" stroke="none" />
  </g>
</svg>