<?xml version="1.0" encoding="utf-8"?>
<svg version="1.1" xmlns:xlink="http://www.w3.org/1999/xlink" width="25px" height="23px" xmlns="http://www.w3.org/2000/svg">
  <g transform="matrix(1 0 0 1 -952 -2591 )">
    <path d="M 962.0470849326285 2599.446304564688  L 964.5 2592.5009519494247  L 966.9529150673715 2599.446304564688  L 974.741108237933 2599.446304564688  L 968.4403276074738 2603.6578668453362  L 970.8755839957022 2610.5532194605994  L 964.5 2606.2916571799515  L 958.1244160042978 2610.5532194605994  L 960.5596723925262 2603.6578668453362  L 954.258891762067 2599.446304564688  L 962.0470849326285 2599.446304564688  Z " fill-rule="nonzero" fill="#ec808d" stroke="none" />
    <path d="M 961.6935751463776 2598.946304564688  L 964.5 2591  L 967.3064248536224 2598.946304564688  L 976.3882064536895 2598.946304564688  L 969.0408908000335 2603.857390870624  L 971.8473156536559 2611.803695435312  L 964.5 2606.892609129376  L 957.1526843463441 2611.803695435312  L 959.9591091999665 2603.857390870624  L 952.6117935463105 2598.946304564688  L 961.6935751463776 2598.946304564688  Z M 964.5 2594.00190389885  L 962.4005947188795 2599.946304564688  L 955.9059899778234 2599.946304564688  L 961.1602355850858 2603.4583428200485  L 959.0961476622516 2609.302743485887  L 964.5 2605.6907052305264  L 969.9038523377484 2609.302743485887  L 967.8397644149142 2603.4583428200485  L 973.0940100221766 2599.946304564688  L 966.5994052811205 2599.946304564688  L 964.5 2594.00190389885  Z " fill-rule="nonzero" fill="#797979" stroke="none" />
  </g>
</svg>