<?xml version="1.0" encoding="utf-8"?>
<svg version="1.1" xmlns:xlink="http://www.w3.org/1999/xlink" width="44px" height="16px" xmlns="http://www.w3.org/2000/svg">
  <g transform="matrix(1 0 0 1 -1375 -4503 )">
    <path d="M 0.40566037735849053 0  L 0.40566037735849053 12  C 0.40566037735849053 13.4  1.2981132075471697 14.5  2.4339622641509435 14.5  L 40.56603773584906 14.5  C 41.70188679245283 14.5  42.594339622641506 13.4  42.5 12  L 42.5 0  L 0.40566037735849053 0  Z " fill-rule="nonzero" fill="#ff6533" stroke="none" transform="matrix(1 0 0 1 1375 4503 )" />
    <path d="M 0.40566037735849053 0  L 0.40566037735849053 12  C 0.40566037735849053 13.4  1.2981132075471697 14.5  2.4339622641509435 14.5  L 40.56603773584906 14.5  C 41.70188679245283 14.5  42.594339622641506 13.4  42.5 12  L 42.5 0  " stroke-width="1" stroke="#ffffff" fill="none" transform="matrix(1 0 0 1 1375 4503 )" />
  </g>
</svg>