<?xml version="1.0" encoding="utf-8"?>
<svg version="1.1" xmlns:xlink="http://www.w3.org/1999/xlink" width="31px" height="31px" xmlns="http://www.w3.org/2000/svg">
  <g transform="matrix(1 0 0 1 -818 -4503 )">
    <path d="M 833.5 4504  C 841.62 4504  848 4510.38  848 4518.5  C 848 4526.62  841.62 4533  833.5 4533  C 825.38 4533  819 4526.62  819 4518.5  C 819 4510.38  825.38 4504  833.5 4504  Z " fill-rule="nonzero" fill="#ffffff" stroke="none" />
    <path d="M 833.5 4504  C 841.62 4504  848 4510.38  848 4518.5  C 848 4526.62  841.62 4533  833.5 4533  C 825.38 4533  819 4526.62  819 4518.5  C 819 4510.38  825.38 4504  833.5 4504  Z " stroke-width="2" stroke="#d9001b" fill="none" />
  </g>
</svg>