<?xml version="1.0" encoding="utf-8"?>
<svg version="1.1" xmlns:xlink="http://www.w3.org/1999/xlink" width="15px" height="10px" xmlns="http://www.w3.org/2000/svg">
  <g transform="matrix(1 0 0 1 -1176 -4251 )">
    <path d="M 15 2.2173913043478266  C 15 2.388083735909823  14.941066997518611 2.5346215780998382  14.823200992555831 2.6570048309178738  L 7.918734491315136 9.816425120772948  C 7.800868486352358 9.938808373590982  7.661290322580645 10  7.5 10  C 7.338709677419356 10  7.199131513647644 9.938808373590982  7.081265508684863 9.816425120772948  L 0.17679900744416874 2.6570048309178738  C 0.05893300248138966 2.5346215780998382  0 2.388083735909823  0 2.2173913043478266  C 0 2.046698872785828  0.05893300248138966 1.9001610305958128  0.17679900744416874 1.7777777777777781  L 1.7214640198511166 0.18357487922705307  C 1.839330024813896 0.06119162640901732  1.9789081885856084 0  2.1401985111662527 0  C 2.3014888337468986 0  2.441066997518611 0.06119162640901732  2.5589330024813894 0.18357487922705307  L 7.5 5.3140096618357475  L 12.44106699751861 0.18357487922705307  C 12.55893300248139 0.06119162640901732  12.698511166253102 0  12.859801488833748 0  C 13.021091811414394 0  13.160669975186106 0.06119162640901732  13.278535980148883 0.18357487922705307  L 14.823200992555831 1.7777777777777781  C 14.941066997518611 1.9001610305958128  15 2.046698872785828  15 2.2173913043478266  Z " fill-rule="nonzero" fill="#ec808d" stroke="none" transform="matrix(1 0 0 1 1176 4251 )" />
  </g>
</svg>