<?xml version="1.0" encoding="utf-8"?>
<svg version="1.1" xmlns:xlink="http://www.w3.org/1999/xlink" width="30px" height="30px" xmlns="http://www.w3.org/2000/svg">
  <g transform="matrix(1 0 0 1 -478 -1010 )">
    <path d="M 17.32421875 24.82421875  C 17.44140625 24.70703125  17.5 24.557291666666664  17.5 24.375  L 17.5 20.625  C 17.5 20.44270833333333  17.44140625 20.292968750000004  17.32421875 20.175781250000004  C 17.20703125 20.058593750000004  17.057291666666668 20.000000000000004  16.875 20.000000000000004  L 13.125 20.000000000000004  C 12.942708333333336 20.000000000000004  12.79296875 20.058593750000004  12.67578125 20.175781250000004  C 12.55859375 20.292968750000004  12.5 20.44270833333333  12.5 20.625  L 12.5 24.375  C 12.5 24.557291666666664  12.55859375 24.70703125  12.67578125 24.82421875  C 12.79296875 24.94140625  12.942708333333336 25  13.125 25  L 16.875 25  C 17.057291666666668 25  17.20703125 24.94140625  17.32421875 24.82421875  Z M 22.255859375 12.83203125  C 22.418619791666668 12.350260416666666  22.5 11.822916666666666  22.5 11.25  C 22.5 10.104166666666664  22.138671875 9.042968749999998  21.416015625 8.066406250000002  C 20.693359375 7.08984375  19.79166666666667 6.334635416666665  18.7109375 5.80078125  C 17.630208333333336 5.266927083333331  16.5234375 4.999999999999999  15.390625000000002 4.999999999999999  C 12.2265625 4.999999999999999  9.811197916666668 6.38671875  8.14453125 9.160156249999998  C 7.949218750000001 9.472656250000002  8.001302083333334 9.746093749999998  8.30078125 9.980468749999998  L 10.87890625 11.933593750000002  C 10.970052083333336 12.01171875  11.09375 12.050781250000002  11.25 12.050781250000002  C 11.458333333333334 12.050781250000002  11.62109375 11.972656249999998  11.73828125 11.816406250000002  C 12.428385416666666 10.930989583333332  12.98828125 10.332031249999998  13.41796875 10.01953125  C 13.860677083333334 9.707031250000002  14.420572916666666 9.55078125  15.097656250000002 9.55078125  C 15.722656249999998 9.55078125  16.279296875 9.720052083333332  16.767578125 10.058593750000002  C 17.255859375 10.397135416666664  17.5 10.781249999999996  17.5 11.210937499999998  C 17.5 11.705729166666666  17.369791666666668 12.102864583333332  17.109375 12.402343750000002  C 16.848958333333336 12.701822916666666  16.40625 12.994791666666666  15.781249999999998 13.281250000000002  C 14.9609375 13.645833333333332  14.208984375 14.208984375  13.525390625 14.970703125  C 12.841796875 15.732421875  12.5 16.549479166666668  12.5 17.421875000000004  L 12.5 18.125000000000004  C 12.5 18.307291666666668  12.55859375 18.45703125  12.67578125 18.57421875  C 12.79296875 18.69140625  12.942708333333336 18.75  13.125 18.75  L 16.875 18.75  C 17.057291666666668 18.75  17.20703125 18.69140625  17.32421875 18.57421875  C 17.44140625 18.45703125  17.5 18.307291666666668  17.5 18.125000000000004  C 17.5 17.877604166666664  17.639973958333336 17.555338541666664  17.919921875 17.158203125000004  C 18.199869791666668 16.761067708333332  18.5546875 16.438802083333332  18.984375 16.191406250000004  C 19.401041666666668 15.957031250000002  19.720052083333336 15.771484374999998  19.94140625 15.634765625000002  C 20.162760416666668 15.498046875  20.462239583333332 15.270182291666664  20.83984375 14.951171875000002  C 21.217447916666668 14.632161458333334  21.507161458333336 14.319661458333332  21.708984375 14.013671875000002  C 21.91080729166667 13.707682291666664  22.093098958333336 13.313802083333334  22.255859375 12.83203125  Z M 27.98828125 7.470703125  C 29.32942708333333 9.76888020833333  30 12.278645833333329  30 15  C 30 17.721354166666668  29.32942708333333 20.231119791666664  27.98828125 22.529296875  C 26.64713541666667 24.827473958333332  24.827473958333332 26.647135416666668  22.529296875 27.98828125  C 20.23111979166667 29.329427083333336  17.721354166666668 30  15 30  C 12.278645833333334 30  9.768880208333334 29.329427083333336  7.470703125 27.98828125  C 5.172526041666667 26.647135416666668  3.352864583333334 24.827473958333332  2.01171875 22.529296875  C 0.6705729166666665 20.231119791666664  0 17.721354166666668  0 15  C 0 12.278645833333329  0.6705729166666665 9.76888020833333  2.01171875 7.470703125  C 3.352864583333334 5.172526041666666  5.172526041666667 3.3528645833333304  7.470703125 2.011718749999999  C 9.768880208333334 0.6705729166666641  12.278645833333334 0  15 0  C 17.721354166666668 0  20.23111979166667 0.6705729166666641  22.529296875 2.011718749999999  C 24.827473958333332 3.3528645833333304  26.64713541666667 5.172526041666666  27.98828125 7.470703125  Z " fill-rule="nonzero" fill="#ff4218" stroke="none" transform="matrix(1 0 0 1 478 1010 )" />
  </g>
</svg>