<?xml version="1.0" encoding="utf-8"?>
<svg version="1.1" xmlns:xlink="http://www.w3.org/1999/xlink" width="21px" height="21px" xmlns="http://www.w3.org/2000/svg">
  <g transform="matrix(1 0 0 1 -1001 -3534 )">
    <path d="M 20.166015625 6.425781250000001  C 20.722005208333332 7.720052083333334  21 9.078125  21 10.5  C 21 11.921874999999998  20.722005208333332 13.279947916666664  20.166015625 14.574218750000002  C 19.610026041666668 15.868489583333334  18.862630208333336 16.985026041666664  17.923828125 17.923828125  C 16.985026041666668 18.862630208333336  15.868489583333334 19.610026041666664  14.57421875 20.166015625  C 13.279947916666668 20.722005208333332  11.921875 21  10.5 21  C 8.932291666666668 21  7.442057291666667 20.669596354166664  6.029296875 20.0087890625  C 4.616536458333333 19.347981770833332  3.4134114583333335 18.416015625  2.419921875 17.212890625  C 2.356119791666667 17.121744791666664  2.3264973958333335 17.019205729166664  2.3310546875 16.9052734375  C 2.335611979166667 16.791341145833336  2.3743489583333335 16.697916666666664  2.447265625 16.625  L 4.3203125 14.738281250000002  C 4.411458333333333 14.656250000000002  4.525390625 14.615234375000002  4.662109375 14.615234375000002  C 4.807942708333334 14.633463541666664  4.912760416666667 14.688151041666666  4.9765625 14.779296875000002  C 5.641927083333334 15.645182291666668  6.457682291666667 16.315104166666668  7.423828125 16.7890625  C 8.389973958333334 17.263020833333336  9.415364583333334 17.5  10.5 17.5  C 11.447916666666668 17.5  12.3525390625 17.3154296875  13.2138671875 16.9462890625  C 14.0751953125 16.5771484375  14.8203125 16.078125  15.44921875 15.449218749999998  C 16.078125 14.820312500000002  16.5771484375 14.075195312499998  16.9462890625 13.213867187499998  C 17.3154296875 12.352539062499998  17.5 11.447916666666666  17.5 10.5  C 17.5 9.552083333333332  17.3154296875 8.6474609375  16.9462890625 7.786132812499999  C 16.5771484375 6.924804687499999  16.078125 6.179687500000001  15.44921875 5.550781249999999  C 14.8203125 4.921875  14.0751953125 4.422851562499999  13.2138671875 4.053710937499999  C 12.3525390625 3.684570312499999  11.447916666666668 3.499999999999999  10.5 3.499999999999999  C 9.606770833333334 3.499999999999999  8.75 3.6617838541666665  7.9296875 3.985351562500001  C 7.109375 4.30891927083333  6.380208333333334 4.771484374999999  5.7421875 5.373046875  L 7.615234375 7.259765625  C 7.897786458333334 7.533203125000001  7.961588541666667 7.847656249999999  7.806640625 8.203125  C 7.651692708333334 8.567708333333334  7.3828125 8.75  7 8.75  L 0.875 8.75  C 0.6380208333333334 8.75  0.4329427083333333 8.663411458333334  0.259765625 8.490234375  C 0.08658854166666667 8.317057291666666  0 8.111979166666666  0 7.875  L 0 1.7500000000000009  C 0 1.3671874999999991  0.18229166666666663 1.0983072916666665  0.546875 0.943359375  C 0.90234375 0.7884114583333313  1.216796875 0.8522135416666664  1.490234375 1.1347656250000009  L 3.267578125 2.898437500000001  C 4.242838541666667 1.9778645833333313  5.357096354166667 1.2646484374999991  6.6103515625 0.7587890625  C 7.863606770833335 0.2529296875000008  9.16015625 0  10.5 0  C 11.921875 0  13.279947916666668 0.2779947916666664  14.57421875 0.8339843749999992  C 15.868489583333334 1.3899739583333321  16.985026041666668 2.1373697916666656  17.923828125 3.076171875  C 18.862630208333336 4.014973958333332  19.610026041666668 5.131510416666666  20.166015625 6.425781250000001  Z " fill-rule="nonzero" fill="#f75038" stroke="none" transform="matrix(1 0 0 1 1001 3534 )" />
  </g>
</svg>