<?xml version="1.0" encoding="utf-8"?>
<svg version="1.1" xmlns:xlink="http://www.w3.org/1999/xlink" width="36px" height="36px" xmlns="http://www.w3.org/2000/svg">
  <g transform="matrix(1 0 0 1 -951 -7343 )">
    <path d="M 969 7345  C 977.96 7345  985 7352.04  985 7361  C 985 7369.96  977.96 7377  969 7377  C 960.04 7377  953 7369.96  953 7361  C 953 7352.04  960.04 7345  969 7345  Z " fill-rule="nonzero" fill="#ffffff" stroke="none" />
    <path d="M 969 7344.5  C 978.24 7344.5  985.5 7351.76  985.5 7361  C 985.5 7370.24  978.24 7377.5  969 7377.5  C 959.76 7377.5  952.5 7370.24  952.5 7361  C 952.5 7351.76  959.76 7344.5  969 7344.5  Z " stroke-width="3" stroke="#797979" fill="none" />
  </g>
</svg>