<?xml version="1.0" encoding="utf-8"?>
<svg version="1.1" xmlns:xlink="http://www.w3.org/1999/xlink" width="40px" height="40px" xmlns="http://www.w3.org/2000/svg">
  <g transform="matrix(1 0 0 1 -947 -6908 )">
    <path d="M 967 6908  C 978.2 6908  987 6916.8  987 6928  C 987 6939.2  978.2 6948  967 6948  C 955.8 6948  947 6939.2  947 6928  C 947 6916.8  955.8 6908  967 6908  Z " fill-rule="nonzero" fill="#ffffff" stroke="none" />
    <path d="M 967 6908.5  C 977.92 6908.5  986.5 6917.08  986.5 6928  C 986.5 6938.92  977.92 6947.5  967 6947.5  C 956.08 6947.5  947.5 6938.92  947.5 6928  C 947.5 6917.08  956.08 6908.5  967 6908.5  Z " stroke-width="1" stroke="#797979" fill="none" />
  </g>
</svg>