<?xml version="1.0" encoding="utf-8"?>
<svg version="1.1" xmlns:xlink="http://www.w3.org/1999/xlink" width="52px" height="52px" xmlns="http://www.w3.org/2000/svg">
  <g transform="matrix(1 0 0 1 -579 -7938 )">
    <path d="M 605 7938  C 619.56 7938  631 7949.44  631 7964  C 631 7978.56  619.56 7990  605 7990  C 590.44 7990  579 7978.56  579 7964  C 579 7949.44  590.44 7938  605 7938  Z " fill-rule="nonzero" fill="#ffffff" stroke="none" />
    <path d="M 605 7938.5  C 619.28 7938.5  630.5 7949.72  630.5 7964  C 630.5 7978.28  619.28 7989.5  605 7989.5  C 590.72 7989.5  579.5 7978.28  579.5 7964  C 579.5 7949.72  590.72 7938.5  605 7938.5  Z " stroke-width="1" stroke="#797979" fill="none" />
  </g>
</svg>