<?xml version="1.0" encoding="utf-8"?>
<svg version="1.1" xmlns:xlink="http://www.w3.org/1999/xlink" width="340px" height="36px" xmlns="http://www.w3.org/2000/svg">
  <g transform="matrix(1 0 0 1 -76 -842 )">
    <path d="M 76.5 858.1999999999999  C 76.5 858.1999999999999  76.5 851  76.5 851  C 76.5 846.3055796264382  80.30557962643826 842.5  85 842.5  C 85 842.5  407 842.5  407 842.5  C 411.69442037356174 842.5  415.5 846.3055796264382  415.5 851  C 415.5 851  415.5 858.1999999999999  415.5 858.1999999999999  C 415.5 862.8944203735617  411.69442037356174 866.6999999999999  407 866.6999999999999  C 407 866.6999999999999  334.06416343717285 866.6999999999999  334.06416343717285 866.6999999999999  C 334.06416343717285 866.6999999999999  325.9534421277156 876.7504142033666  325.9534421277156 876.7504142033666  C 325.9534421277156 876.7504142033666  316.51960151818423 866.6999999999999  316.51960151818423 866.6999999999999  C 316.51960151818423 866.6999999999999  85 866.6999999999999  85 866.6999999999999  C 80.30557962643826 866.6999999999999  76.5 862.8944203735617  76.5 858.1999999999999  Z " fill-rule="nonzero" fill="#ffffff" stroke="none" />
    <path d="M 76 858.1999999999999  C 76 858.1999999999999  76 851  76 851  C 76 846.0294372515228  80.02943725152286 842  85 842  C 85 842  407 842  407 842  C 411.97056274847716 842  416 846.0294372515228  416 851  C 416 851  416 858.1999999999999  416 858.1999999999999  C 416 863.1705627484771  411.97056274847716 867.1999999999999  407 867.1999999999999  C 407 867.1999999999999  334.3031674208145 867.1999999999999  334.3031674208145 867.1999999999999  C 334.3031674208145 867.1999999999999  325.9819004524887 877.5113122171946  325.9819004524887 877.5113122171946  C 325.9819004524887 877.5113122171946  316.3031674208145 867.1999999999999  316.3031674208145 867.1999999999999  C 316.3031674208145 867.1999999999999  85 867.1999999999999  85 867.1999999999999  C 80.02943725152286 867.1999999999999  76 863.1705627484771  76 858.1999999999999  Z M 77 858.1999999999999  C 77 862.6182779986464  80.58172200135365 866.1999999999999  85 866.1999999999999  C 85 866.1999999999999  316.73603561555325 866.1999999999999  316.73603561555325 866.1999999999999  C 316.73603561555325 866.1999999999999  325.92498380294256 875.9895161895387  325.92498380294256 875.9895161895387  C 325.92498380294256 875.9895161895387  333.8251594535313 866.1999999999999  333.8251594535313 866.1999999999999  C 333.8251594535313 866.1999999999999  407 866.1999999999999  407 866.1999999999999  C 411.4182779986464 866.1999999999999  415 862.6182779986464  415 858.1999999999999  C 415 858.1999999999999  415 851  415 851  C 415 846.5817220013537  411.4182779986464 843  407 843  C 407 843  85 843  85 843  C 80.58172200135365 843  77 846.5817220013537  77 851  C 77 851  77 858.1999999999999  77 858.1999999999999  Z " fill-rule="nonzero" fill="#797979" stroke="none" />
  </g>
</svg>