<?xml version="1.0" encoding="utf-8"?>
<svg version="1.1" xmlns:xlink="http://www.w3.org/1999/xlink" width="12px" height="12px" viewBox="150 111  12 12" xmlns="http://www.w3.org/2000/svg">
  <path d="M 156 111  C 159.36 111  162 113.64  162 117  C 162 120.36  159.36 123  156 123  C 152.64 123  150 120.36  150 117  C 150 113.64  152.64 111  156 111  Z " fill-rule="nonzero" fill="#ffffff" stroke="none" />
  <path d="M 156 111.5  C 159.08 111.5  161.5 113.92  161.5 117  C 161.5 120.08  159.08 122.5  156 122.5  C 152.92 122.5  150.5 120.08  150.5 117  C 150.5 113.92  152.92 111.5  156 111.5  Z " stroke-width="1" stroke="#797979" fill="none" />
  <path d="M 156 120  C 154.32 120  153 118.68  153 117  C 153 115.32  154.32 114  156 114  C 157.68 114  159 115.32  159 117  C 159 118.68  157.68 120  156 120  " fill-rule="nonzero" fill="#797979" stroke="none" />
</svg>