<?xml version="1.0" encoding="utf-8"?>
<svg version="1.1" xmlns:xlink="http://www.w3.org/1999/xlink" width="12px" height="12px" viewBox="81 111  12 12" xmlns="http://www.w3.org/2000/svg">
  <path d="M 87 111  C 90.36 111  93 113.64  93 117  C 93 120.36  90.36 123  87 123  C 83.64 123  81 120.36  81 117  C 81 113.64  83.64 111  87 111  Z " fill-rule="nonzero" fill="#f0f0f0" stroke="none" />
  <path d="M 87 111.5  C 90.08 111.5  92.5 113.92  92.5 117  C 92.5 120.08  90.08 122.5  87 122.5  C 83.92 122.5  81.5 120.08  81.5 117  C 81.5 113.92  83.92 111.5  87 111.5  Z " stroke-width="1" stroke="#797979" fill="none" />
  <path d="M 87 120  C 85.32 120  84 118.68  84 117  C 84 115.32  85.32 114  87 114  C 88.68 114  90 115.32  90 117  C 90 118.68  88.68 120  87 120  " fill-rule="nonzero" fill="#797979" stroke="none" />
</svg>