<?xml version="1.0" encoding="utf-8"?>
<svg version="1.1" xmlns:xlink="http://www.w3.org/1999/xlink" width="110px" height="50px" xmlns="http://www.w3.org/2000/svg">
  <g transform="matrix(1 0 0 1 -79 -1304 )">
    <path d="M 81 1309  A 3 3 0 0 1 84 1306 L 184 1306  A 3 3 0 0 1 187 1309 L 187 1349  A 3 3 0 0 1 184 1352 L 84 1352  A 3 3 0 0 1 81 1349 L 81 1309  Z " fill-rule="nonzero" fill="#169bd5" stroke="none" fill-opacity="0" />
    <path d="M 80 1309  A 4 4 0 0 1 84 1305 L 184 1305  A 4 4 0 0 1 188 1309 L 188 1349  A 4 4 0 0 1 184 1353 L 84 1353  A 4 4 0 0 1 80 1349 L 80 1309  Z " stroke-width="2" stroke-dasharray="6,2" stroke="#aaaaaa" fill="none" />
  </g>
</svg>