<?xml version="1.0" encoding="utf-8"?>
<svg version="1.1" xmlns:xlink="http://www.w3.org/1999/xlink" width="12px" height="12px" viewBox="79 2030  12 12" xmlns="http://www.w3.org/2000/svg">
  <path d="M 79.5 2033  A 2.5 2.5 0 0 1 82 2030.5 L 88 2030.5  A 2.5 2.5 0 0 1 90.5 2033 L 90.5 2039  A 2.5 2.5 0 0 1 88 2041.5 L 82 2041.5  A 2.5 2.5 0 0 1 79.5 2039 L 79.5 2033  Z " fill-rule="nonzero" fill="#f0f0f0" stroke="none" />
  <path d="M 79.5 2033  A 2.5 2.5 0 0 1 82 2030.5 L 88 2030.5  A 2.5 2.5 0 0 1 90.5 2033 L 90.5 2039  A 2.5 2.5 0 0 1 88 2041.5 L 82 2041.5  A 2.5 2.5 0 0 1 79.5 2039 L 79.5 2033  Z " stroke-width="1" stroke="#333333" fill="none" />
</svg>