<?xml version="1.0" encoding="utf-8"?>
<svg version="1.1" xmlns:xlink="http://www.w3.org/1999/xlink" width="17px" height="20px" xmlns="http://www.w3.org/2000/svg">
  <g transform="matrix(1 0 0 1 -366 -402 )">
    <path d="M 12.794270833333332 0.7589285714285721  L 16.247395833333332 4.241071428571428  C 16.453993055555557 4.449404761904761  16.63107638888889 4.732142857142858  16.778645833333332 5.0892857142857135  C 16.92621527777778 5.446428571428572  17 5.773809523809524  17 6.071428571428572  L 17 18.928571428571427  C 17 19.226190476190478  16.89670138888889 19.479166666666664  16.690104166666668 19.6875  C 16.483506944444446 19.895833333333336  16.23263888888889 20  15.9375 20  L 1.0625 20  C 0.7673611111111112 20  0.5164930555555556 19.895833333333336  0.30989583333333337 19.6875  C 0.1032986111111111 19.479166666666664  0 19.226190476190478  0 18.928571428571427  L 0 1.071428571428572  C 0 0.7738095238095233  0.1032986111111111 0.5208333333333326  0.30989583333333337 0.3125  C 0.5164930555555556 0.1041666666666674  0.7673611111111112 0  1.0625 0  L 10.979166666666668 0  C 11.274305555555557 0  11.598958333333332 0.07440476190476275  11.953125 0.22321428571428603  C 12.307291666666668 0.3720238095238093  12.587673611111112 0.5505952380952372  12.794270833333332 0.7589285714285721  Z M 11.787109375 1.763392857142858  C 11.698567708333332 1.674107142857142  11.547309027777779 1.5922619047619024  11.333333333333332 1.517857142857142  L 11.333333333333332 5.7142857142857135  L 15.494791666666668 5.7142857142857135  C 15.421006944444446 5.498511904761902  15.33984375 5.345982142857142  15.251302083333332 5.256696428571428  L 11.787109375 1.763392857142858  Z M 1.4166666666666665 18.571428571428573  L 15.583333333333332 18.571428571428573  L 15.583333333333332 7.142857142857142  L 10.979166666666668 7.142857142857142  C 10.684027777777777 7.142857142857142  10.433159722222223 7.0386904761904745  10.2265625 6.830357142857142  C 10.019965277777777 6.622023809523809  9.916666666666668 6.369047619047617  9.916666666666668 6.071428571428572  L 9.916666666666668 1.428571428571428  L 1.4166666666666665 1.428571428571428  L 1.4166666666666665 18.571428571428573  Z M 4.25 9.642857142857142  L 4.25 8.928571428571427  C 4.25 8.824404761904761  4.283203125 8.738839285714286  4.349609375 8.671875  C 4.416015625000001 8.604910714285714  4.500868055555556 8.571428571428573  4.604166666666666 8.571428571428573  L 12.395833333333332 8.571428571428573  C 12.499131944444446 8.571428571428573  12.583984375 8.604910714285714  12.650390625 8.671875  C 12.716796875 8.738839285714286  12.75 8.824404761904761  12.75 8.928571428571427  L 12.75 9.642857142857142  C 12.75 9.74702380952381  12.716796875 9.832589285714286  12.650390625 9.899553571428573  C 12.583984375 9.966517857142858  12.499131944444446 10  12.395833333333332 10  L 4.604166666666666 10  C 4.500868055555556 10  4.416015625000001 9.966517857142858  4.349609375 9.899553571428573  C 4.283203125 9.832589285714286  4.25 9.74702380952381  4.25 9.642857142857142  Z M 4.604166666666666 11.428571428571427  L 12.395833333333332 11.428571428571427  C 12.499131944444446 11.428571428571427  12.583984375 11.462053571428573  12.650390625 11.529017857142856  C 12.716796875 11.595982142857144  12.75 11.681547619047619  12.75 11.785714285714286  L 12.75 12.5  C 12.75 12.604166666666664  12.716796875 12.689732142857144  12.650390625 12.756696428571427  C 12.583984375 12.823660714285714  12.499131944444446 12.857142857142856  12.395833333333332 12.857142857142856  L 4.604166666666666 12.857142857142856  C 4.500868055555556 12.857142857142856  4.416015625000001 12.823660714285714  4.349609375 12.756696428571427  C 4.283203125 12.689732142857144  4.25 12.604166666666664  4.25 12.5  L 4.25 11.785714285714286  C 4.25 11.681547619047619  4.283203125 11.595982142857144  4.349609375 11.529017857142856  C 4.416015625000001 11.462053571428573  4.500868055555556 11.428571428571427  4.604166666666666 11.428571428571427  Z M 4.604166666666666 14.285714285714286  L 12.395833333333332 14.285714285714286  C 12.499131944444446 14.285714285714286  12.583984375 14.319196428571427  12.650390625 14.386160714285714  C 12.716796875 14.453125  12.75 14.538690476190476  12.75 14.642857142857144  L 12.75 15.357142857142856  C 12.75 15.461309523809524  12.716796875 15.546875  12.650390625 15.613839285714286  C 12.583984375 15.680803571428573  12.499131944444446 15.714285714285714  12.395833333333332 15.714285714285714  L 4.604166666666666 15.714285714285714  C 4.500868055555556 15.714285714285714  4.416015625000001 15.680803571428573  4.349609375 15.613839285714286  C 4.283203125 15.546875  4.25 15.461309523809524  4.25 15.357142857142856  L 4.25 14.642857142857144  C 4.25 14.538690476190476  4.283203125 14.453125  4.349609375 14.386160714285714  C 4.416015625000001 14.319196428571427  4.500868055555556 14.285714285714286  4.604166666666666 14.285714285714286  Z " fill-rule="nonzero" fill="#7f7f7f" stroke="none" transform="matrix(1 0 0 1 366 402 )" />
  </g>
</svg>