<?xml version="1.0" encoding="utf-8"?>
<svg version="1.1" xmlns:xlink="http://www.w3.org/1999/xlink" width="20px" height="17px" xmlns="http://www.w3.org/2000/svg">
  <g transform="matrix(1 0 0 1 -365 -1265 )">
    <path d="M 19.41176470588235 10.928571428571427  L 15.88235294117647 4.25  L 12.352941176470589 10.928571428571427  L 19.41176470588235 10.928571428571427  Z M 7.647058823529411 10.928571428571427  L 4.117647058823529 4.25  L 0.5882352941176471 10.928571428571427  L 7.647058823529411 10.928571428571427  Z M 16.176470588235293 2.4285714285714293  L 11.66360294117647 2.4285714285714293  C 11.577818627450982 2.681547619047617  11.438419117647058 2.9076450892857135  11.245404411764707 3.1068638392857135  C 11.052389705882353 3.3060825892857135  10.833333333333336 3.4499627976190466  10.588235294117647 3.5385044642857135  L 10.588235294117647 15.785714285714286  L 16.176470588235293 15.785714285714286  C 16.262254901960787 15.785714285714286  16.332720588235293 15.814174107142858  16.387867647058822 15.87109375  C 16.44301470588235 15.928013392857142  16.470588235294116 16.000744047619047  16.470588235294116 16.089285714285715  L 16.470588235294116 16.69642857142857  C 16.470588235294116 16.784970238095237  16.44301470588235 16.857700892857142  16.387867647058822 16.914620535714285  C 16.332720588235293 16.97154017857143  16.262254901960787 17  16.176470588235293 17  L 3.8235294117647056 17  C 3.737745098039216 17  3.667279411764706 16.97154017857143  3.6121323529411766 16.914620535714285  C 3.556985294117647 16.857700892857142  3.5294117647058827 16.784970238095237  3.5294117647058827 16.69642857142857  L 3.5294117647058827 16.089285714285715  C 3.5294117647058827 16.000744047619047  3.556985294117647 15.928013392857142  3.6121323529411766 15.87109375  C 3.667279411764706 15.814174107142858  3.737745098039216 15.785714285714286  3.8235294117647056 15.785714285714286  L 9.411764705882353 15.785714285714286  L 9.411764705882353 3.5385044642857135  C 9.166666666666668 3.4499627976190466  8.947610294117649 3.3060825892857135  8.754595588235293 3.1068638392857135  C 8.561580882352942 2.9076450892857135  8.422181372549021 2.681547619047617  8.336397058823529 2.4285714285714293  L 3.8235294117647056 2.4285714285714293  C 3.737745098039216 2.4285714285714293  3.667279411764706 2.4001116071428568  3.6121323529411766 2.3431919642857135  C 3.556985294117647 2.2862723214285707  3.5294117647058827 2.213541666666665  3.5294117647058827 2.125  L 3.5294117647058827 1.5178571428571432  C 3.5294117647058827 1.429315476190474  3.556985294117647 1.3565848214285707  3.6121323529411766 1.2996651785714293  C 3.667279411764706 1.2427455357142863  3.737745098039216 1.2142857142857137  3.8235294117647056 1.2142857142857137  L 8.336397058823529 1.2142857142857137  C 8.465073529411764 0.8537946428571431  8.67953431372549 0.5612909226190465  8.979779411764707 0.3367745535714294  C 9.280024509803923 0.11225818452381042  9.620098039215687 0  10 0  C 10.379901960784315 0  10.71997549019608 0.11225818452381042  11.020220588235293 0.3367745535714294  C 11.32046568627451 0.5612909226190465  11.534926470588236 0.8537946428571431  11.66360294117647 1.2142857142857137  L 16.176470588235293 1.2142857142857137  C 16.262254901960787 1.2142857142857137  16.332720588235293 1.2427455357142863  16.387867647058822 1.2996651785714293  C 16.44301470588235 1.3565848214285707  16.470588235294116 1.429315476190474  16.470588235294116 1.5178571428571432  L 16.470588235294116 2.125  C 16.470588235294116 2.213541666666665  16.44301470588235 2.2862723214285707  16.387867647058822 2.3431919642857135  C 16.332720588235293 2.4001116071428568  16.262254901960787 2.4285714285714293  16.176470588235293 2.4285714285714293  Z M 9.480698529411764 2.357421875  C 9.62469362745098 2.50604538690476  9.797794117647058 2.5803571428571432  10 2.5803571428571432  C 10.202205882352942 2.5803571428571432  10.37530637254902 2.50604538690476  10.519301470588236 2.357421875  C 10.663296568627452 2.208798363095238  10.735294117647058 2.0301339285714293  10.735294117647058 1.8214285714285707  C 10.735294117647058 1.6127232142857137  10.663296568627452 1.4340587797619033  10.519301470588236 1.2854352678571432  C 10.37530637254902 1.136811755952381  10.202205882352942 1.0625  10 1.0625  C 9.797794117647058 1.0625  9.62469362745098 1.136811755952381  9.480698529411764 1.2854352678571432  C 9.33670343137255 1.4340587797619033  9.264705882352942 1.6127232142857137  9.264705882352942 1.8214285714285707  C 9.264705882352942 2.0301339285714293  9.33670343137255 2.208798363095238  9.480698529411764 2.357421875  Z M 19.678308823529413 10.16015625  C 19.89276960784314 10.60286458333333  20 10.859002976190476  20 10.928571428571427  C 20 11.390252976190476  19.857536764705884 11.804501488095237  19.57261029411765 12.171316964285714  C 19.287683823529413 12.53813244047619  18.927696078431374 12.825892857142858  18.49264705882353 13.034598214285714  C 18.05759803921569 13.243303571428573  17.614889705882355 13.399832589285714  17.16452205882353 13.504185267857142  C 16.714154411764707 13.608537946428573  16.286764705882355 13.660714285714286  15.88235294117647 13.660714285714286  C 15.47794117647059 13.660714285714286  15.050551470588239 13.608537946428573  14.600183823529411 13.504185267857142  C 14.149816176470589 13.399832589285714  13.707107843137257 13.243303571428573  13.272058823529411 13.034598214285714  C 12.837009803921568 12.825892857142858  12.47702205882353 12.53813244047619  12.192095588235293 12.171316964285714  C 11.907169117647058 11.804501488095237  11.764705882352942 11.390252976190476  11.764705882352942 10.928571428571427  C 11.764705882352942 10.859002976190476  11.871936274509805 10.60286458333333  12.08639705882353 10.16015625  C 12.300857843137257 9.717447916666666  12.582720588235293 9.165643601190476  12.931985294117647 8.504743303571427  C 13.28125 7.843843005952381  13.609068627450982 7.22563244047619  13.915441176470589 6.650111607142857  C 14.221813725490197 6.074590773809522  14.534313725490197 5.4927455357142865  14.852941176470589 4.904575892857143  C 15.171568627450984 4.31640625  15.343137254901961 4.00018601190476  15.36764705882353 3.9559151785714293  C 15.477941176470589 3.7472098214285707  15.649509803921568 3.6428571428571432  15.88235294117647 3.6428571428571432  C 16.115196078431374 3.6428571428571432  16.28676470588235 3.7472098214285707  16.397058823529413 3.9559151785714293  C 16.421568627450984 4.00018601190476  16.59313725490196 4.31640625  16.91176470588235 4.904575892857143  C 17.230392156862745 5.4927455357142865  17.542892156862745 6.074590773809522  17.84926470588235 6.650111607142857  C 18.15563725490196 7.22563244047619  18.483455882352942 7.843843005952381  18.832720588235293 8.504743303571427  C 19.18198529411765 9.165643601190476  19.46384803921569 9.717447916666666  19.678308823529413 10.16015625  Z M 7.913602941176471 10.16015625  C 8.128063725490197 10.60286458333333  8.235294117647058 10.859002976190476  8.235294117647058 10.928571428571427  C 8.235294117647058 11.390252976190476  8.092830882352942 11.804501488095237  7.807904411764706 12.171316964285714  C 7.522977941176471 12.53813244047619  7.1629901960784315 12.825892857142858  6.727941176470589 13.034598214285714  C 6.292892156862746 13.243303571428573  5.850183823529411 13.399832589285714  5.399816176470589 13.504185267857142  C 4.9494485294117645 13.608537946428573  4.522058823529412 13.660714285714286  4.117647058823529 13.660714285714286  C 3.713235294117647 13.660714285714286  3.2858455882352944 13.608537946428573  2.835477941176471 13.504185267857142  C 2.385110294117647 13.399832589285714  1.9424019607843137 13.243303571428573  1.5073529411764706 13.034598214285714  C 1.0723039215686274 12.825892857142858  0.7123161764705882 12.53813244047619  0.4273897058823529 12.171316964285714  C 0.14246323529411764 11.804501488095237  0 11.390252976190476  0 10.928571428571427  C 0 10.859002976190476  0.10723039215686275 10.60286458333333  0.3216911764705882 10.16015625  C 0.5361519607843137 9.717447916666666  0.8180147058823529 9.165643601190476  1.1672794117647058 8.504743303571427  C 1.5165441176470587 7.843843005952381  1.8443627450980393 7.22563244047619  2.150735294117647 6.650111607142857  C 2.4571078431372553 6.074590773809522  2.769607843137255 5.4927455357142865  3.088235294117647 4.904575892857143  C 3.4068627450980395 4.31640625  3.57843137254902 4.00018601190476  3.6029411764705883 3.9559151785714293  C 3.713235294117647 3.7472098214285707  3.8848039215686274 3.6428571428571432  4.117647058823529 3.6428571428571432  C 4.3504901960784315 3.6428571428571432  4.522058823529412 3.7472098214285707  4.632352941176471 3.9559151785714293  C 4.6568627450980395 4.00018601190476  4.82843137254902 4.31640625  5.147058823529411 4.904575892857143  C 5.465686274509805 5.4927455357142865  5.778186274509805 6.074590773809522  6.084558823529411 6.650111607142857  C 6.39093137254902 7.22563244047619  6.71875 7.843843005952381  7.068014705882353 8.504743303571427  C 7.417279411764706 9.165643601190476  7.699142156862746 9.717447916666666  7.913602941176471 10.16015625  Z " fill-rule="nonzero" fill="#aaaaaa" stroke="none" transform="matrix(1 0 0 1 365 1265 )" />
  </g>
</svg>