<?xml version="1.0" encoding="utf-8"?>
<svg version="1.1" xmlns:xlink="http://www.w3.org/1999/xlink" width="17px" height="17px" xmlns="http://www.w3.org/2000/svg">
  <g transform="matrix(1 0 0 1 -536 -1924 )">
    <path d="M 544.5 1931.5  C 545.06 1931.5  545.5 1931.94  545.5 1932.5  C 545.5 1933.06  545.06 1933.5  544.5 1933.5  C 543.94 1933.5  543.5 1933.06  543.5 1932.5  C 543.5 1931.94  543.94 1931.5  544.5 1931.5  Z " fill-rule="nonzero" fill="#0000ff" stroke="none" />
    <path d="M 544.5 1928  C 547.02 1928  549 1929.98  549 1932.5  C 549 1935.02  547.02 1937  544.5 1937  C 541.98 1937  540 1935.02  540 1932.5  C 540 1929.98  541.98 1928  544.5 1928  Z " stroke-width="8" stroke="#8080ff" fill="none" stroke-opacity="0.36470588235294116" />
  </g>
</svg>