<?xml version="1.0" encoding="utf-8"?>
<svg version="1.1" xmlns:xlink="http://www.w3.org/1999/xlink" width="15px" height="13px" xmlns="http://www.w3.org/2000/svg">
  <g transform="matrix(1 0 0 1 -310 -3395 )">
    <path d="M 6.751802884615384 1.1153305203938118  C 6.865985576923077 1.2311298640412556  6.923076923076923 1.3682606657290193  6.923076923076923 1.5267229254571024  L 6.923076923076923 11.473277074542898  C 6.923076923076923 11.631739334270979  6.865985576923077 11.768870135958743  6.751802884615384 11.884669479606188  C 6.6376201923076925 12.000468823253634  6.502403846153847 12.058368495077355  6.346153846153846 12.058368495077355  C 6.189903846153847 12.058368495077355  6.054687500000001 12.000468823253634  5.9405048076923075 11.884669479606188  L 2.938701923076923 8.840365682137833  L 0.576923076923077 8.840365682137833  C 0.420673076923077 8.840365682137833  0.2854567307692308 8.782466010314112  0.17127403846153846 8.666666666666668  C 0.05709134615384615 8.55086732301922  0 8.413736521331458  0 8.255274261603375  L 0 4.744725738396625  C 0 4.586263478668541  0.05709134615384615 4.449132676980776  0.17127403846153846 4.333333333333334  C 0.2854567307692308 4.217533989685887  0.420673076923077 4.159634317862166  0.576923076923077 4.159634317862166  L 2.938701923076923 4.159634317862166  L 5.9405048076923075 1.1153305203938118  C 6.054687500000001 0.9995311767463666  6.189903846153847 0.9416315049226447  6.346153846153846 0.9416315049226447  C 6.502403846153847 0.9416315049226447  6.6376201923076925 0.9995311767463666  6.751802884615384 1.1153305203938118  Z M 10.001502403846153 5.20182841068917  C 10.256911057692308 5.60407876230661  10.384615384615385 6.036802625410219  10.384615384615385 6.5  C 10.384615384615385 6.96319737458978  10.256911057692308 7.394397562119082  10.001502403846153 7.793600562587905  C 9.74609375 8.192803563056724  9.408052884615385 8.477730895452414  8.987379807692308 8.648382559774966  C 8.927283653846155 8.678856071261134  8.852163461538463 8.69409282700422  8.762019230769232 8.69409282700422  C 8.605769230769232 8.69409282700422  8.470552884615385 8.637716830754805  8.356370192307692 8.524964838255977  C 8.242187500000002 8.412212845757148  8.185096153846153 8.273558368495078  8.185096153846153 8.10900140646976  C 8.185096153846153 7.981012658227847  8.221153846153847 7.872831692451944  8.293269230769232 7.784458509142054  C 8.365384615384615 7.69608532583216  8.45252403846154 7.619901547116737  8.5546875 7.555907172995782  C 8.656850961538463 7.491912798874824  8.759014423076923 7.421823722456632  8.861177884615385 7.345639943741211  C 8.963341346153847 7.269456165025785  9.050480769230768 7.159751523675574  9.122596153846153 7.016526019690576  C 9.194711538461538 6.873300515705578  9.230769230769232 6.70112517580872  9.230769230769232 6.5  C 9.230769230769232 6.29887482419128  9.194711538461538 6.12669948429442  9.122596153846153 5.983473980309423  C 9.050480769230768 5.840248476324425  8.963341346153847 5.730543834974214  8.861177884615385 5.654360056258791  C 8.759014423076923 5.578176277543366  8.656850961538463 5.508087201125176  8.5546875 5.44409282700422  C 8.45252403846154 5.380098452883263  8.365384615384615 5.303914674167838  8.293269230769232 5.215541490857946  C 8.221153846153847 5.127168307548054  8.185096153846153 5.018987341772151  8.185096153846153 4.890998593530239  C 8.185096153846153 4.726441631504922  8.242187500000002 4.58778715424285  8.356370192307692 4.475035161744023  C 8.470552884615385 4.362283169245194  8.605769230769232 4.30590717299578  8.762019230769232 4.30590717299578  C 8.852163461538463 4.30590717299578  8.927283653846155 4.3211439287388655  8.987379807692308 4.351617440225035  C 9.408052884615385 4.5161744022503525  9.74609375 4.799578059071731  10.001502403846153 5.20182841068917  Z M 11.926081730769232 3.9173699015471164  C 12.43689903846154 4.706633849038912  12.692307692307692 5.567510548523207  12.692307692307692 6.5  C 12.692307692307692 7.432489451476793  12.43689903846154 8.293366150961086  11.926081730769232 9.082630098452881  C 11.415264423076925 9.871894045944678  10.739182692307693 10.446319737458976  9.897836538461538 10.80590717299578  C 9.81971153846154 10.836380684481949  9.744591346153847 10.851617440225034  9.672475961538462 10.851617440225034  C 9.510216346153847 10.851617440225034  9.371995192307693 10.793717768401313  9.2578125 10.677918424753868  C 9.143629807692308 10.562119081106422  9.086538461538463 10.42498827941866  9.086538461538462 10.266526019690575  C 9.086538461538463 10.028832630098453  9.203725961538463 9.849038912330052  9.438100961538462 9.727144866385373  C 9.774639423076925 9.550398499765588  10.003004807692308 9.41631504922644  10.123197115384615 9.324894514767932  C 10.567908653846155 8.995780590717299  10.914963942307693 8.582864510079698  11.164362980769232 8.086146272855133  C 11.41376201923077 7.589428035630567  11.538461538461538 7.060712611345522  11.538461538461538 6.5  C 11.538461538461538 5.939287388654476  11.41376201923077 5.410571964369432  11.164362980769232 4.913853727144866  C 10.914963942307693 4.4171354899203  10.567908653846155 4.004219409282701  10.123197115384615 3.6751054852320673  C 10.003004807692308 3.583684950773559  9.774639423076925 3.449601500234411  9.438100961538462 3.2728551336146268  C 9.203725961538463 3.1509610876699474  9.086538461538463 2.9711673699015475  9.086538461538462 2.7334739803094226  C 9.086538461538463 2.5750117205813394  9.143629807692308 2.437880918893576  9.2578125 2.3220815752461323  C 9.371995192307693 2.2062822315986867  9.50721153846154 2.148382559774965  9.663461538461538 2.148382559774965  C 9.74158653846154 2.148382559774965  9.81971153846154 2.163619315518048  9.897836538461538 2.19409282700422  C 10.739182692307693 2.5536802625410213  11.415264423076925 3.128105954055319  11.926081730769232 3.9173699015471164  Z M 13.855168269230768 2.6374824191279886  C 14.618389423076923 3.8107126113455223  15 5.098218471636192  15 6.5  C 15 7.901781528363806  14.618389423076923 9.189287388654474  13.855168269230768 10.362517580872012  C 13.091947115384617 11.535747773089545  12.076322115384617 12.399671823722455  10.808293269230768 12.954289732770745  C 10.73016826923077 12.984763244256914  10.65204326923077 13  10.573918269230768 13  C 10.41766826923077 13  10.282451923076923 12.942100328176277  10.168269230769232 12.826300984528833  C 10.05408653846154 12.710501640881388  9.996995192307692 12.573370839193622  9.996995192307692 12.414908579465541  C 9.996995192307692 12.195499296765119  10.114182692307692 12.015705578996718  10.348557692307692 11.875527426160339  C 10.390625 11.851148616971402  10.458233173076923 11.819151429910924  10.551382211538462 11.779535864978902  C 10.644531250000002 11.739920300046883  10.712139423076925 11.707923112986405  10.754206730769232 11.683544303797468  C 11.03064903846154 11.53117674636662  11.277043269230768 11.375761837787154  11.493389423076923 11.217299578059071  C 12.232572115384615 10.662681669010782  12.809495192307692 9.97093295827473  13.224158653846153 9.142053445850914  C 13.638822115384615 8.313173933427098  13.846153846153847 7.432489451476793  13.846153846153847 6.5  C 13.846153846153847 5.567510548523207  13.638822115384615 4.686826066572903  13.224158653846153 3.857946554149086  C 12.809495192307692 3.0290670417252694  12.232572115384615 2.3373183309892163  11.493389423076923 1.7827004219409281  C 11.277043269230768 1.624238162212845  11.03064903846154 1.468823253633379  10.754206730769232 1.3164556962025316  C 10.712139423076925 1.2920768870135948  10.644531250000002 1.2600796999531165  10.551382211538462 1.2204641350210972  C 10.458233173076923 1.1808485700890752  10.390625 1.148851383028597  10.348557692307692 1.1244725738396633  C 10.114182692307692 0.9842944210032797  9.996995192307692 0.8045007032348798  9.996995192307692 0.5850914205344591  C 9.996995192307692 0.4266291608063745  10.05408653846154 0.289498359118611  10.168269230769232 0.17369901547116717  C 10.282451923076923 0.05789967182372191  10.41766826923077 0  10.573918269230768 0  C 10.65204326923077 0  10.73016826923077 0.01523675574308403  10.808293269230768 0.045710267229254975  C 12.076322115384617 0.6003281762775416  13.091947115384617 1.4642522269104532  13.855168269230768 2.6374824191279886  Z " fill-rule="nonzero" fill="#000000" stroke="none" transform="matrix(1 0 0 1 310 3395 )" />
  </g>
</svg>