<?xml version="1.0" encoding="utf-8"?>
<svg version="1.1" xmlns:xlink="http://www.w3.org/1999/xlink" width="8px" height="13px" xmlns="http://www.w3.org/2000/svg">
  <g transform="matrix(1 0 0 1 -330 -3395 )">
    <path d="M 7.802083333333333 0.203125  C 7.934027777777778 0.33854166666666474  8 0.49890350877192813  8 0.6842105263157902  L 8 12.31578947368421  C 8 12.501096491228068  7.934027777777778 12.661458333333332  7.802083333333333 12.796875  C 7.670138888888889 12.932291666666668  7.513888888888889 13  7.333333333333333 13  C 7.152777777777779 13  6.996527777777779 12.932291666666668  6.864583333333333 12.796875  L 3.3958333333333335 9.236842105263158  L 0.6666666666666666 9.236842105263158  C 0.48611111111111116 9.236842105263158  0.3298611111111111 9.169133771929825  0.19791666666666666 9.033717105263158  C 0.06597222222222222 8.89830043859649  0 8.737938596491228  0 8.55263157894737  L 0 4.447368421052631  C 0 4.2620614035087705  0.06597222222222222 4.101699561403507  0.19791666666666666 3.9662828947368425  C 0.3298611111111111 3.8308662280701746  0.48611111111111116 3.7631578947368425  0.6666666666666666 3.7631578947368425  L 3.3958333333333335 3.7631578947368425  L 6.864583333333333 0.203125  C 6.996527777777779 0.06770833333333237  7.152777777777779 0  7.333333333333333 0  C 7.513888888888889 0  7.670138888888889 0.06770833333333237  7.802083333333333 0.203125  Z " fill-rule="nonzero" fill="#000000" stroke="none" transform="matrix(1 0 0 1 330 3395 )" />
  </g>
</svg>