<?xml version="1.0" encoding="utf-8"?>
<svg version="1.1" xmlns:xlink="http://www.w3.org/1999/xlink" width="18px" height="30px" xmlns="http://www.w3.org/2000/svg">
  <g transform="matrix(1 0 0 1 -85 -3461 )">
    <path d="M 17.690721649484534 1.8036072144288562  C 17.89690721649485 2.004008016032061  18 2.2344689378757474  18 2.4949899799599207  C 18 2.755511022044087  17.89690721649485 2.9859719438877743  17.690721649484534 3.186372745490982  L 5.536082474226804 15  L 17.690721649484534 26.81362725450902  C 17.89690721649485 27.014028056112227  18 27.24448897795591  18 27.50501002004008  C 18 27.76553106212425  17.89690721649485 27.995991983967933  17.690721649484534 28.196392785571145  L 16.144329896907216 29.69939879759519  C 15.93814432989691 29.8997995991984  15.701030927835054 30  15.432989690721648 30  C 15.16494845360825 30  14.927835051546396 29.8997995991984  14.721649484536082 29.69939879759519  L 0.30927835051546393 15.691382765531062  C 0.10309278350515472 15.490981963927853  0 15.260521042084166  0 15  C 0 14.73947895791583  0.10309278350515472 14.509018036072144  0.30927835051546393 14.308617234468938  L 14.721649484536082 0.3006012024048099  C 14.927835051546396 0.1002004008016022  15.16494845360825 0  15.432989690721648 0  C 15.701030927835054 0  15.93814432989691 0.1002004008016022  16.144329896907216 0.3006012024048099  L 17.690721649484534 1.8036072144288562  Z " fill-rule="nonzero" fill="#555555" stroke="none" transform="matrix(1 0 0 1 85 3461 )" />
  </g>
</svg>