<?xml version="1.0" encoding="utf-8"?>
<svg version="1.1" xmlns:xlink="http://www.w3.org/1999/xlink" width="15px" height="15px" xmlns="http://www.w3.org/2000/svg">
  <g transform="matrix(1 0 0 1 -759 -6710 )">
    <path d="M 766.5 6710.5  C 770.42 6710.5  773.5 6713.58  773.5 6717.5  C 773.5 6721.42  770.42 6724.5  766.5 6724.5  C 762.58 6724.5  759.5 6721.42  759.5 6717.5  C 759.5 6713.58  762.58 6710.5  766.5 6710.5  Z " fill-rule="nonzero" fill="#d7d7d7" stroke="none" />
    <path d="M 766.5 6710.5  C 770.42 6710.5  773.5 6713.58  773.5 6717.5  C 773.5 6721.42  770.42 6724.5  766.5 6724.5  C 762.58 6724.5  759.5 6721.42  759.5 6717.5  C 759.5 6713.58  762.58 6710.5  766.5 6710.5  Z " stroke-width="1" stroke-dasharray="1,1" stroke="#7f7f7f" fill="none" stroke-dashoffset="0.5" />
  </g>
</svg>