<?xml version="1.0" encoding="utf-8"?>
<svg version="1.1" xmlns:xlink="http://www.w3.org/1999/xlink" width="10px" height="10px" xmlns="http://www.w3.org/2000/svg">
  <g transform="matrix(1 0 0 1 -620 -6527 )">
    <path d="M 5.670572916666666 6.829427083333332  C 5.709635416666666 6.868489583333332  5.729166666666666 6.918402777777777  5.729166666666666 6.979166666666668  L 5.729166666666666 8.020833333333334  C 5.729166666666666 8.081597222222221  5.709635416666666 8.131510416666666  5.670572916666666 8.170572916666666  C 5.631510416666666 8.209635416666666  5.581597222222222 8.229166666666666  5.520833333333334 8.229166666666666  L 4.479166666666667 8.229166666666666  C 4.418402777777779 8.229166666666666  4.368489583333333 8.209635416666666  4.329427083333333 8.170572916666666  C 4.290364583333333 8.131510416666666  4.270833333333333 8.081597222222221  4.270833333333333 8.020833333333334  L 4.270833333333333 6.979166666666668  C 4.270833333333333 6.918402777777777  4.290364583333333 6.868489583333332  4.329427083333333 6.829427083333332  C 4.368489583333333 6.790364583333332  4.418402777777779 6.770833333333332  4.479166666666667 6.770833333333332  L 5.520833333333334 6.770833333333332  C 5.581597222222222 6.770833333333332  5.631510416666666 6.790364583333332  5.670572916666666 6.829427083333332  Z M 6.682942708333334 2.353515625  C 7.158203125 2.7419704861111107  7.395833333333334 3.207465277777777  7.395833333333334 3.75  C 7.395833333333334 3.9670138888888884  7.36328125 4.162326388888888  7.298177083333334 4.3359375  C 7.233072916666666 4.509548611111111  7.134331597222223 4.659288194444445  7.001953125 4.78515625  C 6.869574652777778 4.9110243055555545  6.756727430555557 5.006510416666668  6.663411458333334 5.071614583333332  C 6.570095486111112 5.13671875  6.440972222222223 5.21484375  6.276041666666666 5.305989583333332  C 6.137152777777778 5.384114583333332  6.0362413194444455 5.444878472222221  5.973307291666666 5.48828125  C 5.910373263888889 5.531684027777777  5.853949652777778 5.583767361111112  5.804036458333334 5.64453125  C 5.754123263888889 5.705295138888888  5.729166666666666 5.768229166666668  5.729166666666666 5.833333333333332  L 5.729166666666666 6.041666666666668  C 5.729166666666666 6.102430555555555  5.709635416666666 6.15234375  5.670572916666666 6.19140625  C 5.631510416666666 6.23046875  5.581597222222222 6.25  5.520833333333334 6.25  L 4.479166666666667 6.25  C 4.418402777777779 6.25  4.368489583333333 6.23046875  4.329427083333333 6.19140625  C 4.290364583333333 6.15234375  4.270833333333333 6.102430555555555  4.270833333333333 6.041666666666668  L 4.270833333333333 5.598958333333332  C 4.270833333333333 5.447048611111112  4.293619791666667 5.307074652777777  4.339192708333333 5.179036458333332  C 4.384765625 5.050998263888888  4.436848958333333 4.947916666666666  4.495442708333333 4.869791666666666  C 4.554036458333333 4.791666666666666  4.638671875 4.714626736111111  4.749348958333333 4.638671875  C 4.860026041666667 4.562717013888888  4.949001736111112 4.507378472222222  5.016276041666666 4.47265625  C 5.083550347222223 4.437934027777778  5.180121527777778 4.392361111111111  5.305989583333334 4.3359375  C 5.536024305555555 4.2274305555555545  5.698784722222222 4.134114583333334  5.794270833333334 4.055989583333334  C 5.8897569444444455 3.977864583333334  5.937500000000001 3.8715277777777777  5.9375 3.736979166666666  C 5.937500000000001 3.554687499999999  5.843098958333334 3.399522569444443  5.654296875 3.271484375  C 5.465494791666668 3.1434461805555545  5.258246527777778 3.079427083333334  5.032552083333334 3.079427083333334  C 4.789496527777779 3.079427083333334  4.583333333333333 3.138020833333334  4.4140625 3.255208333333334  C 4.288194444444445 3.3420138888888884  4.114583333333333 3.522135416666666  3.893229166666667 3.795572916666666  C 3.854166666666667 3.847656249999999  3.7999131944444446 3.873697916666666  3.73046875 3.873697916666666  C 3.6827256944444446 3.873697916666666  3.641493055555556 3.8606770833333326  3.606770833333333 3.834635416666666  L 2.903645833333333 3.30078125  C 2.860243055555556 3.2703993055555545  2.834201388888889 3.226996527777777  2.825520833333333 3.170572916666666  C 2.8168402777777786 3.1141493055555545  2.8276909722222228 3.0642361111111107  2.858072916666667 3.020833333333334  C 3.387586805555556 2.1875  4.144965277777779 1.7708333333333337  5.130208333333334 1.7708333333333337  C 5.690104166666666 1.7708333333333337  6.207682291666666 1.9650607638888884  6.682942708333334 2.353515625  Z M 6.617838541666666 1.1653645833333337  C 6.103515625 0.9440104166666663  5.564236111111112 0.8333333333333337  5 0.8333333333333337  C 4.435763888888889 0.8333333333333337  3.896484375 0.9440104166666663  3.382161458333333 1.1653645833333337  C 2.867838541666667 1.38671875  2.4251302083333335 1.6829427083333337  2.0540364583333335 2.054036458333334  C 1.6829427083333335 2.425130208333334  1.38671875 2.867838541666666  1.1653645833333333 3.382161458333334  C 0.9440104166666667 3.896484375  0.8333333333333333 4.435763888888888  0.8333333333333333 5  C 0.8333333333333333 5.564236111111112  0.9440104166666667 6.103515625  1.1653645833333333 6.617838541666668  C 1.38671875 7.132161458333332  1.6829427083333335 7.574869791666666  2.0540364583333335 7.945963541666666  C 2.4251302083333335 8.317057291666666  2.867838541666667 8.61328125  3.382161458333333 8.834635416666666  C 3.896484375 9.055989583333334  4.435763888888889 9.166666666666666  5 9.166666666666666  C 5.564236111111112 9.166666666666666  6.103515625 9.055989583333334  6.617838541666666 8.834635416666666  C 7.132161458333334 8.61328125  7.574869791666666 8.317057291666666  7.945963541666666 7.945963541666666  C 8.317057291666666 7.574869791666666  8.61328125 7.132161458333332  8.834635416666666 6.617838541666668  C 9.055989583333334 6.103515625  9.166666666666666 5.564236111111112  9.166666666666666 5  C 9.166666666666666 4.435763888888888  9.055989583333334 3.896484375  8.834635416666666 3.382161458333334  C 8.61328125 2.867838541666666  8.317057291666666 2.425130208333334  7.945963541666666 2.054036458333334  C 7.574869791666666 1.6829427083333337  7.132161458333334 1.38671875  6.617838541666666 1.1653645833333337  Z M 9.329427083333334 2.490234375  C 9.776475694444443 3.256293402777777  10 4.092881944444443  10 5  C 10 5.907118055555555  9.776475694444443 6.743706597222221  9.329427083333334 7.509765625  C 8.882378472222223 8.275824652777779  8.275824652777779 8.882378472222221  7.509765625 9.329427083333334  C 6.743706597222223 9.776475694444445  5.907118055555555 10  5 10  C 4.092881944444445 10  3.2562934027777777 9.776475694444445  2.490234375 9.329427083333334  C 1.7241753472222223 8.882378472222221  1.117621527777778 8.275824652777779  0.6705729166666667 7.509765625  C 0.22352430555555552 6.743706597222221  0 5.907118055555555  0 5  C 0 4.092881944444443  0.22352430555555552 3.256293402777777  0.6705729166666667 2.490234375  C 1.117621527777778 1.724175347222222  1.7241753472222223 1.1176215277777768  2.490234375 0.6705729166666663  C 3.2562934027777777 0.2235243055555547  4.092881944444445 0  5 0  C 5.907118055555555 0  6.743706597222223 0.2235243055555547  7.509765625 0.6705729166666663  C 8.275824652777779 1.1176215277777768  8.882378472222223 1.724175347222222  9.329427083333334 2.490234375  Z " fill-rule="nonzero" fill="#000000" stroke="none" transform="matrix(1 0 0 1 620 6527 )" />
  </g>
</svg>