<?xml version="1.0" encoding="utf-8"?>
<svg version="1.1" xmlns:xlink="http://www.w3.org/1999/xlink" width="10px" height="6px" xmlns="http://www.w3.org/2000/svg">
  <g transform="matrix(1 0 0 1 -774 -6685 )">
    <path d="M 9.814453125 4.864583333333333  C 9.938151041666668 4.996527777777776  10 5.152777777777777  10 5.333333333333333  C 10 5.513888888888888  9.938151041666668 5.670138888888888  9.814453125 5.802083333333333  C 9.690755208333334 5.934027777777779  9.544270833333334 6  9.375 6  L 0.625 6  C 0.45572916666666674 6  0.3092447916666667 5.934027777777779  0.185546875 5.802083333333333  C 0.06184895833333333 5.670138888888888  0 5.513888888888888  0 5.333333333333333  C 0 5.152777777777777  0.06184895833333333 4.996527777777776  0.185546875 4.864583333333333  L 4.560546875 0.19791666666666696  C 4.684244791666668 0.06597222222222143  4.830729166666668 0  5 0  C 5.169270833333334 0  5.315755208333334 0.06597222222222143  5.439453125 0.19791666666666696  L 9.814453125 4.864583333333333  Z " fill-rule="nonzero" fill="#000000" stroke="none" transform="matrix(1 0 0 1 774 6685 )" />
  </g>
</svg>