<?xml version="1.0" encoding="utf-8"?>
<svg version="1.1" xmlns:xlink="http://www.w3.org/1999/xlink" width="15px" height="15px" xmlns="http://www.w3.org/2000/svg">
  <g transform="matrix(1 0 0 1 -739 -6738 )">
    <path d="M 746.5 6738.5  C 750.42 6738.5  753.5 6741.58  753.5 6745.5  C 753.5 6749.42  750.42 6752.5  746.5 6752.5  C 742.58 6752.5  739.5 6749.42  739.5 6745.5  C 739.5 6741.58  742.58 6738.5  746.5 6738.5  Z " fill-rule="nonzero" fill="#333333" stroke="none" />
    <path d="M 746.5 6738.5  C 750.42 6738.5  753.5 6741.58  753.5 6745.5  C 753.5 6749.42  750.42 6752.5  746.5 6752.5  C 742.58 6752.5  739.5 6749.42  739.5 6745.5  C 739.5 6741.58  742.58 6738.5  746.5 6738.5  Z " stroke-width="1" stroke-dasharray="1,1" stroke="#7f7f7f" fill="none" stroke-dashoffset="0.5" />
  </g>
</svg>