<?xml version="1.0" encoding="utf-8"?>
<svg version="1.1" xmlns:xlink="http://www.w3.org/1999/xlink" width="15px" height="15px" xmlns="http://www.w3.org/2000/svg">
  <g transform="matrix(1 0 0 1 -637 -6660 )">
    <path d="M 9.814453125 3.9355468749999996  C 9.938151041666666 4.059244791666664  10 4.205729166666664  10 4.374999999999999  L 10 10.624999999999998  C 10 10.794270833333334  9.938151041666666 10.940755208333334  9.814453125 11.064453124999998  C 9.690755208333334 11.188151041666664  9.544270833333334 11.25  9.375 11.25  C 9.244791666666668 11.25  9.124348958333334 11.210937499999998  9.013671875 11.1328125  L 4.638671875 8.007812500000002  C 4.462890625 7.884114583333332  4.375 7.714843750000001  4.375 7.5  C 4.375 7.285156250000001  4.462890625 7.115885416666666  4.638671875 6.992187500000001  L 9.013671875 3.8671875  C 9.124348958333334 3.7890624999999996  9.244791666666668 3.75  9.375 3.75  C 9.544270833333334 3.75  9.690755208333334 3.8118489583333326  9.814453125 3.9355468749999996  Z M 12.4072265625 12.4072265625  C 12.469075520833334 12.345377604166668  12.5 12.272135416666668  12.5 12.1875  L 12.5 2.8125  C 12.5 2.7278645833333326  12.469075520833334 2.6546223958333326  12.4072265625 2.5927734375  C 12.345377604166668 2.5309244791666656  12.272135416666668 2.4999999999999996  12.1875 2.4999999999999996  L 2.8125 2.4999999999999996  C 2.727864583333334 2.4999999999999996  2.654622395833334 2.5309244791666656  2.5927734375 2.5927734375  C 2.530924479166667 2.6546223958333326  2.5 2.7278645833333326  2.5 2.8125  L 2.5 12.1875  C 2.5 12.272135416666668  2.530924479166667 12.345377604166668  2.5927734375 12.4072265625  C 2.654622395833334 12.469075520833332  2.727864583333334 12.5  2.8125 12.5  L 12.1875 12.5  C 12.272135416666668 12.5  12.345377604166668 12.469075520833332  12.4072265625 12.4072265625  Z M 14.1748046875 0.8251953125000006  C 14.724934895833332 1.3753255208333321  15 2.0377604166666647  15 2.8125  L 15 12.1875  C 15 12.962239583333332  14.724934895833332 13.624674479166668  14.1748046875 14.1748046875  C 13.624674479166668 14.724934895833332  12.962239583333336 15  12.1875 15  L 2.8125 15  C 2.0377604166666665 15  1.3753255208333335 14.724934895833332  0.8251953125 14.1748046875  C 0.27506510416666663 13.624674479166668  0 12.962239583333332  0 12.1875  L 0 2.8125  C 0 2.0377604166666647  0.27506510416666663 1.3753255208333321  0.8251953125 0.8251953125000006  C 1.3753255208333335 0.27506510416666574  2.0377604166666665 0  2.8125 0  L 12.1875 0  C 12.962239583333336 0  13.624674479166668 0.27506510416666574  14.1748046875 0.8251953125000006  Z " fill-rule="nonzero" fill="#000000" stroke="none" transform="matrix(1 0 0 1 637 6660 )" />
  </g>
</svg>