<?xml version="1.0" encoding="utf-8"?>
<svg version="1.1" xmlns:xlink="http://www.w3.org/1999/xlink" width="33px" height="30px" xmlns="http://www.w3.org/2000/svg">
  <g transform="matrix(1 0 0 1 -334 -8070 )">
    <path d="M 4.714285714285714 4.2  C 7.783482142857143 4.2  10.300223214285715 5.60625  12.264508928571429 8.418750000000001  C 11.527901785714286 9.568749999999998  10.686941964285715 11.274999999999997  9.741629464285714 13.537500000000001  C 9.471540178571429 12.975  9.244419642857144 12.521875  9.060267857142858 12.178124999999998  C 8.876116071428571 11.834374999999998  8.627511160714286 11.4375  8.314453125 10.987499999999999  C 8.001395089285715 10.537499999999998  7.68833705357143 10.184374999999996  7.375279017857143 9.928125  C 7.062220982142857 9.671875  6.675502232142857 9.453124999999996  6.215122767857143 9.271875000000001  C 5.754743303571429 9.090625  5.2544642857142865 9.000000000000002  4.714285714285714 9.000000000000002  L 0.5892857142857143 9.000000000000002  C 0.4174107142857143 9.000000000000002  0.2762276785714286 8.94375  0.16573660714285715 8.83125  C 0.05524553571428571 8.71875  0 8.574999999999998  0 8.4  L 0 4.800000000000001  C 0 4.6249999999999964  0.05524553571428571 4.481250000000001  0.16573660714285715 4.36875  C 0.2762276785714286 4.25625  0.4174107142857143 4.2  0.5892857142857143 4.2  L 4.714285714285714 4.2  Z M 32.834263392857146 22.96875  C 32.944754464285715 23.08125  33 23.224999999999998  33 23.400000000000002  C 33 23.575  32.944754464285715 23.71875  32.834263392857146 23.83125  L 26.94140625 29.83125  C 26.830915178571427 29.94375  26.689732142857146 30  26.517857142857142 30  C 26.358258928571434 30  26.220145089285715 29.940624999999997  26.103515625 29.821875  C 25.98688616071429 29.703125  25.928571428571427 29.5625  25.928571428571427 29.4  L 25.928571428571427 25.8  C 25.53571428571429 25.8  25.013950892857146 25.803125  24.36328125 25.809375000000003  C 23.712611607142858 25.815624999999997  23.21540178571429 25.821875000000002  22.871651785714285 25.828125  C 22.52790178571429 25.834374999999998  22.079799107142858 25.828125  21.52734375 25.809375000000003  C 20.974888392857142 25.790625  20.5390625 25.759375  20.219866071428573 25.715625  C 19.900669642857142 25.671875  19.5078125 25.606250000000003  19.041294642857142 25.518749999999997  C 18.57477678571429 25.43125  18.18805803571429 25.315625  17.881138392857142 25.171875  C 17.57421875 25.028125  17.218191964285715 24.849999999999998  16.813058035714285 24.637500000000003  C 16.407924107142858 24.424999999999997  16.04575892857143 24.174999999999997  15.7265625 23.8875  C 15.407366071428573 23.6  15.069754464285717 23.265625  14.713727678571429 22.884375  C 14.357700892857144 22.503124999999997  14.013950892857142 22.068749999999998  13.682477678571429 21.58125  C 14.406808035714286 20.418750000000003  15.241629464285717 18.712500000000002  16.186941964285715 16.462500000000002  C 16.45703125 17.025  16.684151785714285 17.478125  16.868303571428573 17.821875  C 17.052455357142858 18.165625  17.301060267857142 18.5625  17.614118303571427 19.012500000000003  C 17.927176339285715 19.4625  18.240234375 19.815624999999997  18.553292410714285 20.071875  C 18.866350446428573 20.328124999999996  19.253069196428573 20.546874999999996  19.713448660714285 20.728125  C 20.173828125 20.909375  20.674107142857142 21  21.214285714285715 21  L 25.928571428571427 21  L 25.928571428571427 17.400000000000002  C 25.928571428571427 17.225  25.983816964285715 17.081249999999997  26.094308035714285 16.96875  C 26.204799107142858 16.85625  26.345982142857142 16.8  26.517857142857142 16.8  C 26.665178571428573 16.8  26.8125 16.862499999999997  26.959821428571427 16.987499999999997  L 32.834263392857146 22.96875  Z M 32.834263392857146 6.168749999999998  C 32.944754464285715 6.281249999999999  33 6.424999999999999  33 6.6  C 33 6.775  32.944754464285715 6.918749999999999  32.834263392857146 7.03125  L 26.94140625 13.031249999999998  C 26.830915178571427 13.143749999999999  26.689732142857146 13.2  26.517857142857142 13.2  C 26.358258928571434 13.2  26.220145089285715 13.140625  26.103515625 13.021875000000001  C 25.98688616071429 12.903125  25.928571428571427 12.762499999999996  25.928571428571427 12.600000000000001  L 25.928571428571427 9.000000000000002  L 21.214285714285715 9.000000000000002  C 20.625 9.000000000000002  20.090959821428573 9.09375  19.612165178571427 9.281249999999998  C 19.133370535714285 9.468750000000002  18.70982142857143 9.749999999999998  18.341517857142858 10.125  C 17.97321428571429 10.5  17.660156250000004 10.884374999999999  17.40234375 11.278125000000001  C 17.144531250000004 11.671875  16.868303571428573 12.156249999999998  16.573660714285715 12.73125  C 16.180803571428573 13.50625  15.70200892857143 14.575  15.137276785714286 15.9375  C 14.78125 16.762500000000003  14.47739955357143 17.456249999999997  14.225725446428571 18.018749999999997  C 13.974051339285715 18.58125  13.642578125000002 19.2375  13.231305803571429 19.9875  C 12.820033482142858 20.737499999999997  12.427176339285715 21.362499999999997  12.052734375 21.8625  C 11.678292410714286 22.362499999999997  11.224051339285714 22.88125  10.690011160714286 23.41875  C 10.155970982142858 23.95625  9.603515625 24.384375  9.032645089285714 24.703125  C 8.46177455357143 25.021875  7.808035714285715 25.284374999999997  7.071428571428571 25.490625  C 6.334821428571429 25.696875  5.549107142857143 25.8  4.714285714285714 25.8  L 0.5892857142857143 25.8  C 0.4174107142857143 25.8  0.2762276785714286 25.743750000000002  0.16573660714285715 25.63125  C 0.05524553571428571 25.518749999999997  0 25.375  0 25.2  L 0 21.599999999999998  C 0 21.424999999999997  0.05524553571428571 21.28125  0.16573660714285715 21.16875  C 0.2762276785714286 21.056250000000002  0.4174107142857143 21  0.5892857142857143 21  L 4.714285714285714 21  C 5.303571428571429 21  5.837611607142857 20.90625  6.31640625 20.71875  C 6.795200892857143 20.53125  7.21875 20.25  7.587053571428571 19.875  C 7.955357142857143 19.5  8.268415178571429 19.115625  8.526227678571429 18.721874999999997  C 8.784040178571429 18.328125  9.060267857142858 17.84375  9.354910714285714 17.26875  C 9.747767857142858 16.49375  10.226562500000002 15.425  10.791294642857142 14.0625  C 11.147321428571429 13.2375  11.451171875000002 12.54375  11.702845982142858 11.981250000000001  C 11.954520089285717 11.41875  12.28599330357143 10.762500000000001  12.697265625 10.0125  C 13.108537946428571 9.2625  13.501395089285717 8.637499999999998  13.875837053571429 8.1375  C 14.250279017857144 7.637499999999998  14.704520089285714 7.118749999999997  15.238560267857142 6.58125  C 15.772600446428571 6.043749999999999  16.325055803571427 5.615624999999999  16.895926339285715 5.296874999999998  C 17.466796875 4.978124999999999  18.120535714285715 4.715625000000001  18.857142857142858 4.509374999999999  C 19.59375 4.303125  20.37946428571429 4.2  21.214285714285715 4.2  L 25.928571428571427 4.2  L 25.928571428571427 0.6000000000000005  C 25.928571428571427 0.4249999999999965  25.983816964285715 0.28125000000000067  26.094308035714285 0.16874999999999973  C 26.204799107142858 0.0562499999999988  26.345982142857142 0  26.517857142857142 0  C 26.665178571428573 0  26.8125 0.06249999999999978  26.959821428571427 0.18749999999999933  L 32.834263392857146 6.168749999999998  Z " fill-rule="nonzero" fill="#f2f2f2" stroke="none" transform="matrix(1 0 0 1 334 8070 )" />
  </g>
</svg>