<?xml version="1.0" encoding="utf-8"?>
<svg version="1.1" xmlns:xlink="http://www.w3.org/1999/xlink" width="23px" height="20px" xmlns="http://www.w3.org/2000/svg">
  <g transform="matrix(1 0 0 1 -591 -8090 )">
    <path d="M 3.2857142857142856 2.8000000000000003  C 5.424851190476191 2.8000000000000003  7.178943452380953 3.7375000000000003  8.547991071428571 5.612500000000001  C 8.034598214285715 6.379166666666665  7.448474702380953 7.516666666666665  6.789620535714286 9.025  C 6.601376488095239 8.65  6.443080357142858 8.347916666666666  6.314732142857143 8.118749999999999  C 6.186383928571429 7.8895833333333325  6.013113839285714 7.625  5.794921875 7.324999999999999  C 5.5767299107142865 7.024999999999999  5.358537946428572 6.789583333333331  5.140345982142858 6.61875  C 4.922154017857142 6.447916666666666  4.652622767857142 6.30208333333333  4.331752232142858 6.18125  C 4.010881696428572 6.060416666666666  3.6622023809523814 6.000000000000001  3.2857142857142856 6.000000000000001  L 0.4107142857142857 6.000000000000001  C 0.29092261904761907 6.000000000000001  0.19252232142857145 5.9624999999999995  0.11551339285714286 5.887500000000001  C 0.03850446428571428 5.8125  0 5.716666666666665  0 5.6000000000000005  L 0 3.2000000000000006  C 0 3.0833333333333313  0.03850446428571428 2.9875000000000007  0.11551339285714286 2.9125  C 0.19252232142857145 2.8374999999999995  0.29092261904761907 2.8000000000000003  0.4107142857142857 2.8000000000000003  L 3.2857142857142856 2.8000000000000003  Z M 22.884486607142858 15.3125  C 22.96149553571429 15.387500000000001  23 15.48333333333333  23 15.600000000000001  C 23 15.716666666666665  22.96149553571429 15.8125  22.884486607142858 15.887500000000001  L 18.77734375 19.8875  C 18.70033482142857 19.962500000000002  18.601934523809526 20  18.482142857142858 20  C 18.37090773809524 20  18.274646577380956 19.960416666666664  18.193359375 19.881249999999998  C 18.112072172619047 19.802083333333332  18.07142857142857 19.708333333333336  18.07142857142857 19.6  L 18.07142857142857 17.2  C 17.797619047619047 17.2  17.433965773809526 17.202083333333334  16.98046875 17.20625  C 16.526971726190478 17.210416666666667  16.180431547619047 17.214583333333337  15.940848214285714 17.21875  C 15.701264880952383 17.222916666666666  15.388950892857142 17.21875  15.00390625 17.20625  C 14.618861607142858 17.193749999999998  14.315104166666668 17.172916666666666  14.092633928571429 17.14375  C 13.87016369047619 17.114583333333332  13.596354166666668 17.070833333333336  13.271205357142858 17.0125  C 12.946056547619047 16.954166666666666  12.676525297619047 16.877083333333335  12.462611607142858 16.78125  C 12.248697916666668 16.685416666666665  12.000558035714286 16.566666666666666  11.718191964285714 16.425  C 11.435825892857144 16.28333333333333  11.183407738095239 16.116666666666667  10.9609375 15.925  C 10.738467261904763 15.733333333333334  10.503162202380954 15.510416666666666  10.255022321428571 15.25625  C 10.006882440476192 15.002083333333331  9.767299107142856 14.712499999999999  9.536272321428571 14.3875  C 10.041108630952381 13.6125  10.62295386904762 12.475000000000001  11.281808035714285 10.975000000000001  C 11.470052083333334 11.35  11.628348214285714 11.652083333333332  11.756696428571429 11.881249999999998  C 11.885044642857142 12.110416666666666  12.058314732142858 12.375  12.276506696428571 12.675  C 12.494698660714286 12.974999999999998  12.712890625 13.210416666666664  12.931082589285714 13.38125  C 13.149274553571429 13.552083333333332  13.418805803571429 13.697916666666664  13.739676339285714 13.81875  C 14.060546875 13.939583333333335  14.40922619047619 14  14.785714285714286 14  L 18.07142857142857 14  L 18.07142857142857 11.600000000000001  C 18.07142857142857 11.483333333333334  18.10993303571429 11.3875  18.18694196428571 11.3125  C 18.263950892857142 11.2375  18.36235119047619 11.200000000000001  18.482142857142858 11.200000000000001  C 18.58482142857143 11.200000000000001  18.6875 11.241666666666665  18.79017857142857 11.325  L 22.884486607142858 15.3125  Z M 22.884486607142858 4.112499999999999  C 22.96149553571429 4.1875  23 4.283333333333332  23 4.3999999999999995  C 23 4.516666666666667  22.96149553571429 4.612499999999999  22.884486607142858 4.6875  L 18.77734375 8.6875  C 18.70033482142857 8.7625  18.601934523809526 8.799999999999999  18.482142857142858 8.799999999999999  C 18.37090773809524 8.799999999999999  18.274646577380956 8.760416666666666  18.193359375 8.68125  C 18.112072172619047 8.602083333333333  18.07142857142857 8.508333333333331  18.07142857142857 8.4  L 18.07142857142857 6.000000000000001  L 14.785714285714286 6.000000000000001  C 14.375 6.000000000000001  14.002790178571429 6.0625  13.669084821428571 6.187499999999999  C 13.335379464285714 6.312500000000001  13.040178571428573 6.499999999999999  12.783482142857142 6.75  C 12.526785714285715 7  12.308593750000002 7.25625  12.12890625 7.518750000000001  C 11.949218750000002 7.78125  11.756696428571429 8.104166666666666  11.551339285714286 8.487499999999999  C 11.277529761904763 9.004166666666666  10.943824404761907 9.716666666666667  10.550223214285715 10.625  C 10.302083333333334 11.175  10.090308779761907 11.6375  9.914899553571429 12.0125  C 9.739490327380953 12.3875  9.508463541666668 12.825  9.221819196428571 13.325  C 8.935174851190478 13.825  8.661365327380953 14.241666666666665  8.400390625 14.575  C 8.139415922619047 14.908333333333331  7.822823660714286 15.254166666666666  7.450613839285714 15.6125  C 7.078404017857143 15.970833333333335  6.693359375 16.256249999999998  6.295479910714286 16.46875  C 5.897600446428572 16.681250000000002  5.4419642857142865 16.85625  4.928571428571428 16.993750000000002  C 4.415178571428572 17.13125  3.867559523809524 17.2  3.2857142857142856 17.2  L 0.4107142857142857 17.2  C 0.29092261904761907 17.2  0.19252232142857145 17.1625  0.11551339285714286 17.0875  C 0.03850446428571428 17.0125  0 16.916666666666668  0 16.8  L 0 14.399999999999999  C 0 14.283333333333331  0.03850446428571428 14.1875  0.11551339285714286 14.112499999999999  C 0.19252232142857145 14.037500000000001  0.29092261904761907 14  0.4107142857142857 14  L 3.2857142857142856 14  C 3.6964285714285716 14  4.068638392857142 13.9375  4.40234375 13.8125  C 4.736049107142858 13.6875  5.03125 13.5  5.287946428571428 13.25  C 5.544642857142858 13  5.762834821428571 12.74375  5.942522321428571 12.48125  C 6.122209821428571 12.21875  6.314732142857143 11.895833333333332  6.520089285714286 11.512500000000001  C 6.793898809523809 10.995833333333334  7.127604166666668 10.283333333333333  7.521205357142857 9.375  C 7.769345238095239 8.825000000000001  7.981119791666668 8.362499999999999  8.156529017857144 7.987500000000001  C 8.33193824404762 7.6125  8.562965029761907 7.175000000000001  8.849609375 6.675  C 9.136253720238095 6.174999999999999  9.41006324404762 5.758333333333332  9.671037946428571 5.425  C 9.932012648809524 5.091666666666665  10.248604910714285 4.745833333333332  10.620814732142856 4.387499999999999  C 10.993024553571429 4.029166666666666  11.378069196428571 3.743749999999999  11.775948660714286 3.531249999999999  C 12.173828125 3.318749999999999  12.629464285714286 3.1437500000000007  13.142857142857142 3.006249999999999  C 13.65625 2.86875  14.203869047619047 2.8000000000000003  14.785714285714286 2.8000000000000003  L 18.07142857142857 2.8000000000000003  L 18.07142857142857 0.40000000000000036  C 18.07142857142857 0.283333333333331  18.10993303571429 0.18750000000000044  18.18694196428571 0.11249999999999982  C 18.263950892857142 0.0374999999999992  18.36235119047619 0  18.482142857142858 0  C 18.58482142857143 0  18.6875 0.04166666666666652  18.79017857142857 0.12499999999999956  L 22.884486607142858 4.112499999999999  Z " fill-rule="nonzero" fill="#333333" stroke="none" transform="matrix(1 0 0 1 591 8090 )" />
  </g>
</svg>