<?xml version="1.0" encoding="utf-8"?>
<svg version="1.1" xmlns:xlink="http://www.w3.org/1999/xlink" width="23px" height="20px" xmlns="http://www.w3.org/2000/svg">
  <g transform="matrix(1 0 0 1 -184 -8426 )">
    <path d="M 9.062239583333334 9.092548076923077  C 9.737065972222222 8.415464743589743  10.549652777777778 8.076923076923075  11.5 8.076923076923077  C 12.450347222222225 8.076923076923075  13.26293402777778 8.415464743589743  13.937760416666666 9.092548076923077  C 14.612586805555559 9.769631410256409  14.950000000000001 10.584935897435896  14.950000000000001 11.538461538461537  C 14.950000000000001 12.491987179487179  14.612586805555559 13.307291666666664  13.937760416666666 13.984375  C 13.26293402777778 14.661458333333332  12.450347222222225 15  11.5 15  C 10.549652777777778 15  9.737065972222222 14.661458333333332  9.062239583333334 13.984375  C 8.387413194444445 13.307291666666664  8.049999999999999 12.491987179487179  8.049999999999999 11.538461538461537  C 8.049999999999999 10.584935897435896  8.387413194444445 9.769631410256409  9.062239583333334 9.092548076923077  Z M 17.25 3.076923076923077  L 19.933333333333334 3.076923076923077  C 20.779861111111114 3.076923076923077  21.50260416666667 3.377403846153846  22.1015625 3.9783653846153855  C 22.700520833333336 4.579326923076923  23.000000000000004 5.304487179487179  23 6.153846153846154  L 23 16.923076923076923  C 23.000000000000004 17.772435897435898  22.700520833333336 18.497596153846153  22.1015625 19.098557692307693  C 21.50260416666667 19.69951923076923  20.779861111111114 20  19.933333333333334 20  L 3.0666666666666664 20  C 2.220138888888889 20  1.4973958333333335 19.69951923076923  0.8984375 19.098557692307693  C 0.2994791666666667 18.497596153846153  0 17.772435897435898  0 16.923076923076923  L 0 6.153846153846154  C 0 5.304487179487179  0.2994791666666667 4.579326923076923  0.8984375 3.9783653846153855  C 1.4973958333333335 3.377403846153846  2.220138888888889 3.076923076923077  3.0666666666666664 3.076923076923077  L 5.75 3.076923076923077  L 6.3609374999999995 1.4423076923076916  C 6.512673611111111 1.0496794871794868  6.790190972222223 0.7111378205128194  7.193489583333333 0.4266826923076916  C 7.5967881944444455 0.1422275641025661  8.010069444444445 0  8.433333333333334 0  L 14.566666666666666 0  C 14.989930555555556 0  15.403211805555557 0.1422275641025661  15.806510416666667 0.4266826923076916  C 16.20980902777778 0.7111378205128194  16.48732638888889 1.0496794871794868  16.639062499999998 1.4423076923076916  L 17.25 3.076923076923077  Z M 7.7085937499999995 15.342548076923077  C 8.758767361111111 16.396233974358974  10.022569444444446 16.923076923076923  11.5 16.923076923076923  C 12.977430555555557 16.923076923076923  14.24123263888889 16.396233974358974  15.29140625 15.342548076923077  C 16.34157986111111 14.288862179487179  16.866666666666667 13.020833333333332  16.866666666666667 11.538461538461537  C 16.866666666666667 10.056089743589745  16.34157986111111 8.788060897435896  15.29140625 7.734375  C 14.24123263888889 6.680689102564101  12.977430555555557 6.153846153846154  11.5 6.153846153846154  C 10.022569444444446 6.153846153846154  8.758767361111111 6.680689102564101  7.7085937499999995 7.734375  C 6.658420138888889 8.788060897435896  6.133333333333333 10.056089743589745  6.133333333333333 11.538461538461537  C 6.133333333333333 13.020833333333332  6.658420138888889 14.288862179487179  7.7085937499999995 15.342548076923077  Z " fill-rule="nonzero" fill="#ffffff" stroke="none" transform="matrix(1 0 0 1 184 8426 )" />
  </g>
</svg>