<?xml version="1.0" encoding="utf-8"?>
<svg version="1.1" xmlns:xlink="http://www.w3.org/1999/xlink" width="18px" height="19px" xmlns="http://www.w3.org/2000/svg">
  <g transform="matrix(1 0 0 1 -326 -443 )">
    <path d="M 16.618861607142858 17.542131696428573  C 16.68247767857143 17.474981398809526  16.714285714285715 17.39546130952381  16.714285714285715 17.303571428571427  L 16.714285714285715 5.767857142857143  C 16.714285714285715 5.67596726190476  16.68247767857143 5.5964471726190474  16.618861607142858 5.529296875  C 16.555245535714285 5.462146577380951  16.479910714285715 5.428571428571428  16.392857142857142 5.428571428571428  L 5.4642857142857135 5.428571428571428  C 5.377232142857143 5.428571428571428  5.301897321428572 5.462146577380951  5.23828125 5.529296875  C 5.174665178571429 5.5964471726190474  5.142857142857142 5.67596726190476  5.142857142857142 5.767857142857143  L 5.142857142857142 17.303571428571427  C 5.142857142857142 17.39546130952381  5.174665178571429 17.474981398809526  5.23828125 17.542131696428573  C 5.301897321428572 17.60928199404762  5.377232142857143 17.642857142857142  5.4642857142857135 17.642857142857142  L 16.392857142857142 17.642857142857142  C 16.479910714285715 17.642857142857142  16.555245535714285 17.60928199404762  16.618861607142858 17.542131696428573  Z M 17.527901785714285 4.569754464285715  C 17.84263392857143 4.901971726190475  18 5.301339285714285  18 5.767857142857143  L 18 17.303571428571427  C 18 17.770089285714285  17.84263392857143 18.169456845238095  17.527901785714285 18.501674107142858  C 17.213169642857146 18.83389136904762  16.83482142857143 19  16.392857142857142 19  L 5.4642857142857135 19  C 5.022321428571429 19  4.643973214285714 18.83389136904762  4.329241071428571 18.501674107142858  C 4.014508928571428 18.169456845238095  3.8571428571428568 17.770089285714285  4 17.303571428571427  L 4 5.767857142857143  C 3.8571428571428568 5.301339285714285  4.014508928571428 4.901971726190475  4.329241071428571 4.569754464285715  C 4.643973214285714 4.237537202380951  5.022321428571429 4.071428571428572  5.4642857142857135 4  L 16.392857142857142 4  C 16.83482142857143 4.071428571428572  17.213169642857146 4.237537202380951  17.527901785714285 4.569754464285715  Z M 13.670758928571427 0.49832589285714346  C 13.985491071428573 0.8305431547619037  14.142857142857142 1.2299107142857153  14.142857142857142 1.6964285714285716  L 14.142857142857142 3.3928571428571432  L 12.857142857142858 3.3928571428571432  L 12.857142857142858 1.6964285714285716  C 12.857142857142858 1.6045386904761907  12.825334821428573 1.5250186011904754  12.76171875 1.4578683035714284  C 12.698102678571429 1.3907180059523792  12.62276785714286 1.3571428571428565  12.535714285714285 1.3571428571428565  L 1.6071428571428572 1.3571428571428565  C 1.5200892857142858 1.3571428571428565  1.4447544642857142 1.3907180059523792  1.3811383928571428 1.4578683035714284  C 1.3175223214285716 1.5250186011904754  1.2857142857142856 1.6045386904761907  1.2857142857142856 1.6964285714285716  L 1.2857142857142856 13.232142857142856  C 1.2857142857142856 13.324032738095237  1.3175223214285716 13.40355282738095  1.3811383928571428 13.470703125  C 1.4447544642857142 13.537853422619047  1.5200892857142858 13.571428571428571  1.6071428571428572 13.571428571428571  L 3.2142857142857144 13.571428571428571  L 3.2142857142857144 14.928571428571429  L 1.6071428571428572 14.928571428571429  C 1.1651785714285716 14.928571428571429  0.7868303571428572 14.762462797619047  0.4720982142857143 14.430245535714286  C 0.15736607142857142 14.098028273809522  0 13.698660714285714  0 13.232142857142856  L 0 1.6964285714285716  C 0 1.2299107142857153  0.15736607142857142 0.8305431547619037  0.4720982142857143 0.49832589285714346  C 0.7868303571428572 0.16610863095238115  1.1651785714285716 0  1.6071428571428572 0  L 12.535714285714285 0  C 12.977678571428573 0  13.356026785714286 0.16610863095238115  13.670758928571427 0.49832589285714346  Z " fill-rule="nonzero" fill="#000000" stroke="none" transform="matrix(1 0 0 1 326 443 )" />
  </g>
</svg>