<?xml version="1.0" encoding="utf-8"?>
<svg version="1.1" xmlns:xlink="http://www.w3.org/1999/xlink" width="41px" height="41px" xmlns="http://www.w3.org/2000/svg">
  <g transform="matrix(1 0 0 1 -418 -82 )">
    <path d="M 438.5 84  C 448.86 84  457 92.14  457 102.5  C 457 112.86  448.86 121  438.5 121  C 428.14 121  420 112.86  420 102.5  C 420 92.14  428.14 84  438.5 84  Z " fill-rule="nonzero" fill="#ffffff" stroke="none" />
    <path d="M 438.5 83.5  C 449.14 83.5  457.5 91.86  457.5 102.5  C 457.5 113.14  449.14 121.5  438.5 121.5  C 427.86 121.5  419.5 113.14  419.5 102.5  C 419.5 91.86  427.86 83.5  438.5 83.5  Z " stroke-width="3" stroke="#000000" fill="none" />
  </g>
</svg>