<?xml version="1.0" encoding="utf-8"?>
<svg version="1.1" xmlns:xlink="http://www.w3.org/1999/xlink" width="21px" height="21px" xmlns="http://www.w3.org/2000/svg">
  <g transform="matrix(1 0 0 1 -2081 -3706 )">
    <path d="M 2091.5 3706  C 2097.38 3706  2102 3710.62  2102 3716.5  C 2102 3722.38  2097.38 3727  2091.5 3727  C 2085.62 3727  2081 3722.38  2081 3716.5  C 2081 3710.62  2085.62 3706  2091.5 3706  Z " fill-rule="nonzero" fill="#ffffff" stroke="none" />
    <path d="M 2091.5 3706.5  C 2097.1 3706.5  2101.5 3710.9  2101.5 3716.5  C 2101.5 3722.1  2097.1 3726.5  2091.5 3726.5  C 2085.9 3726.5  2081.5 3722.1  2081.5 3716.5  C 2081.5 3710.9  2085.9 3706.5  2091.5 3706.5  Z " stroke-width="1" stroke="#797979" fill="none" />
  </g>
</svg>