<?xml version="1.0" encoding="utf-8"?>
<svg version="1.1" xmlns:xlink="http://www.w3.org/1999/xlink" width="12px" height="12px" viewBox="184 173  12 12" xmlns="http://www.w3.org/2000/svg">
  <path d="M 190 173  C 193.36 173  196 175.64  196 179  C 196 182.36  193.36 185  190 185  C 186.64 185  184 182.36  184 179  C 184 175.64  186.64 173  190 173  Z " fill-rule="nonzero" fill="#f0f0f0" stroke="none" />
  <path d="M 190 173.5  C 193.08 173.5  195.5 175.92  195.5 179  C 195.5 182.08  193.08 184.5  190 184.5  C 186.92 184.5  184.5 182.08  184.5 179  C 184.5 175.92  186.92 173.5  190 173.5  Z " stroke-width="1" stroke="#797979" fill="none" />
  <path d="M 190 182  C 188.32 182  187 180.68  187 179  C 187 177.32  188.32 176  190 176  C 191.68 176  193 177.32  193 179  C 193 180.68  191.68 182  190 182  " fill-rule="nonzero" fill="#797979" stroke="none" />
</svg>