<?xml version="1.0" encoding="utf-8"?>
<svg version="1.1" xmlns:xlink="http://www.w3.org/1999/xlink" width="12px" height="12px" viewBox="184 760  12 12" xmlns="http://www.w3.org/2000/svg">
  <path d="M 190 760  C 193.36 760  196 762.64  196 766  C 196 769.36  193.36 772  190 772  C 186.64 772  184 769.36  184 766  C 184 762.64  186.64 760  190 760  Z " fill-rule="nonzero" fill="#ffffff" stroke="none" />
  <path d="M 190 760.5  C 193.08 760.5  195.5 762.92  195.5 766  C 195.5 769.08  193.08 771.5  190 771.5  C 186.92 771.5  184.5 769.08  184.5 766  C 184.5 762.92  186.92 760.5  190 760.5  Z " stroke-width="1" stroke="#797979" fill="none" />
  <path d="M 190 769  C 188.32 769  187 767.68  187 766  C 187 764.32  188.32 763  190 763  C 191.68 763  193 764.32  193 766  C 193 767.68  191.68 769  190 769  " fill-rule="nonzero" fill="#797979" stroke="none" />
</svg>