<?xml version="1.0" encoding="utf-8"?>
<svg version="1.1" xmlns:xlink="http://www.w3.org/1999/xlink" width="12px" height="12px" viewBox="296 760  12 12" xmlns="http://www.w3.org/2000/svg">
  <path d="M 302 760  C 305.36 760  308 762.64  308 766  C 308 769.36  305.36 772  302 772  C 298.64 772  296 769.36  296 766  C 296 762.64  298.64 760  302 760  Z " fill-rule="nonzero" fill="#ffffff" stroke="none" />
  <path d="M 302 760.5  C 305.08 760.5  307.5 762.92  307.5 766  C 307.5 769.08  305.08 771.5  302 771.5  C 298.92 771.5  296.5 769.08  296.5 766  C 296.5 762.92  298.92 760.5  302 760.5  Z " stroke-width="1" stroke="#797979" fill="none" />
  <path d="M 302 769  C 300.32 769  299 767.68  299 766  C 299 764.32  300.32 763  302 763  C 303.68 763  305 764.32  305 766  C 305 767.68  303.68 769  302 769  " fill-rule="nonzero" fill="#797979" stroke="none" />
</svg>