<?xml version="1.0" encoding="utf-8"?>
<svg version="1.1" xmlns:xlink="http://www.w3.org/1999/xlink" width="235px" height="146px" xmlns="http://www.w3.org/2000/svg">
  <g transform="matrix(1 0 0 1 -655 -10172 )">
    <path d="M 655 10172  L 890 10172  L 890 10318  L 655 10318  L 655 10172  " fill-rule="nonzero" fill="#cccccc" stroke="none" />
    <path d="M 665 10182  L 880 10182  L 880 10308  L 665 10308  L 665 10182  " fill-rule="nonzero" fill="#ffffff" stroke="none" />
    <path d="M 788.1500000000001 10215.8  C 782.018 10215.8  777.2 10210.981999999998  777.2 10204.849999999999  C 777.2 10198.717999999999  782.018 10193.9  788.1500000000001 10193.9  C 794.282 10193.9  799.1 10198.717999999999  799.1 10204.849999999999  C 799.1 10210.981999999998  794.282 10215.8  788.1500000000001 10215.8  " fill-rule="nonzero" fill="#cccccc" stroke="none" />
    <path d="M 669 10305  L 669 10239.55  L 721 10209.8  L 793.8 10260.64085106383  L 835.4 10227.65  L 877 10260.64085106383  L 877 10305  L 669 10305  " fill-rule="nonzero" fill="#169bd5" stroke="none" />
  </g>
</svg>