<?xml version="1.0" encoding="utf-8"?>
<svg version="1.1" xmlns:xlink="http://www.w3.org/1999/xlink" width="12px" height="12px" viewBox="164 254.5  12 12" xmlns="http://www.w3.org/2000/svg">
  <path d="M 170 254.5  C 173.36 254.5  176 257.14  176 260.5  C 176 263.86  173.36 266.5  170 266.5  C 166.64 266.5  164 263.86  164 260.5  C 164 257.14  166.64 254.5  170 254.5  Z " fill-rule="nonzero" fill="#f0f0f0" stroke="none" />
  <path d="M 170 255  C 173.08 255  175.5 257.42  175.5 260.5  C 175.5 263.58  173.08 266  170 266  C 166.92 266  164.5 263.58  164.5 260.5  C 164.5 257.42  166.92 255  170 255  Z " stroke-width="1" stroke="#797979" fill="none" />
  <path d="M 170 263.5  C 168.32 263.5  167 262.18  167 260.5  C 167 258.82  168.32 257.5  170 257.5  C 171.68 257.5  173 258.82  173 260.5  C 173 262.18  171.68 263.5  170 263.5  " fill-rule="nonzero" fill="#797979" stroke="none" />
</svg>