<?xml version="1.0" encoding="utf-8"?>
<svg version="1.1" xmlns:xlink="http://www.w3.org/1999/xlink" width="21px" height="16px" xmlns="http://www.w3.org/2000/svg">
  <g transform="matrix(1 0 0 1 -82 -611 )">
    <path d="M 4.388671875 4.471590909090908  C 4.462890625 4.5435606060606055  4.5 4.628787878787877  4.5 4.727272727272727  L 4.5 11.272727272727273  C 4.5 11.37121212121212  4.462890625 11.456439393939391  4.388671875 11.52840909090909  C 4.314453125 11.600378787878789  4.2265625 11.636363636363637  4.125 11.636363636363637  C 4.015625 11.636363636363637  3.9257812499999996 11.602272727272727  3.85546875 11.53409090909091  L 0.48046874999999994 8.261363636363637  C 0.41015625 8.193181818181818  0.375 8.106060606060606  0.375 8  C 0.375 7.893939393939393  0.41015625 7.806818181818182  0.48046874999999994 7.738636363636363  L 3.85546875 4.465909090909092  C 3.9257812499999996 4.397727272727273  4.015625 4.363636363636363  4.125 4.363636363636363  C 4.2265625 4.363636363636363  4.314453125 4.399621212121211  4.388671875 4.471590909090908  Z M 20.888671875 13.198863636363637  C 20.962890625 13.270833333333332  21 13.356060606060606  21 13.454545454545455  L 21 15.636363636363637  C 21 15.734848484848486  20.962890625 15.820075757575758  20.888671875 15.892045454545455  C 20.814453125000004 15.96401515151515  20.726562500000004 16  20.625 16  L 0.375 16  C 0.2734375 16  0.185546875 15.96401515151515  0.111328125 15.892045454545455  C 0.037109375 15.820075757575758  0 15.734848484848486  0 15.636363636363637  L 0 13.454545454545455  C 0 13.356060606060606  0.037109375 13.270833333333332  0.111328125 13.198863636363637  C 0.185546875 13.126893939393941  0.2734375 13.09090909090909  0.375 13  L 20.625 13  C 20.726562500000004 13.09090909090909  20.814453125000004 13.126893939393941  20.888671875 13.198863636363637  Z M 20.888671875 8.835227272727273  C 20.962890625 8.907196969696969  21 8.992424242424242  21 9.09090909090909  L 21 11.272727272727273  C 21 11.37121212121212  20.962890625 11.456439393939391  20.888671875 11.52840909090909  C 20.814453125000004 11.600378787878789  20.726562500000004 11.636363636363637  20.625 11.636363636363637  L 7.875 11.636363636363637  C 7.773437500000001 11.636363636363637  7.685546875 11.600378787878789  7.611328125000001 11.52840909090909  C 7.537109375000001 11.456439393939391  7.5 11.37121212121212  7.5 11.272727272727273  L 7.5 9.09090909090909  C 7.5 8.992424242424242  7.537109375000001 8.907196969696969  7.611328125000001 8.835227272727273  C 7.685546875 8.763257575757574  7.773437500000001 8.727272727272727  7.875 8.727272727272727  L 20.625 8.727272727272727  C 20.726562500000004 8.727272727272727  20.814453125000004 8.763257575757574  20.888671875 8.835227272727273  Z M 20.888671875 4.471590909090908  C 20.962890625 4.5435606060606055  21 4.628787878787877  21 4.727272727272727  L 21 6.909090909090908  C 21 7.007575757575758  20.962890625 7.092803030303029  20.888671875 7.164772727272727  C 20.814453125000004 7.236742424242424  20.726562500000004 7.272727272727273  20.625 7.272727272727273  L 7.875 7.272727272727273  C 7.773437500000001 7.272727272727273  7.685546875 7.236742424242424  7.611328125000001 7.164772727272727  C 7.537109375000001 7.092803030303029  7.5 7.007575757575758  7.5 6.909090909090908  L 7.5 4.727272727272727  C 7.5 4.628787878787877  7.537109375000001 4.5435606060606055  7.611328125000001 4.471590909090908  C 7.685546875 4.399621212121211  7.773437500000001 4.363636363636363  7.875 4.363636363636363  L 20.625 4.363636363636363  C 20.726562500000004 4.363636363636363  20.814453125000004 4.399621212121211  20.888671875 4.471590909090908  Z M 20.888671875 0.10795454545454497  C 20.962890625 0.1799242424242422  21 0.2651515151515138  21 0.3636363636363633  L 21 2.545454545454545  C 21 2.6439393939393927  20.962890625 2.7291666666666643  20.888671875 2.8011363636363633  C 20.814453125000004 2.8731060606060606  20.726562500000004 2.9090909090909083  20.625 3  L 0.375 3  C 0.2734375 2.9090909090909083  0.185546875 2.8731060606060606  0.111328125 2.8011363636363633  C 0.037109375 2.7291666666666643  0 2.6439393939393927  0 2.545454545454545  L 0 0.3636363636363633  C 0 0.2651515151515138  0.037109375 0.1799242424242422  0.111328125 0.10795454545454497  C 0.185546875 0.035984848484845955  0.2734375 0  0.375 0  L 20.625 0  C 20.726562500000004 0  20.814453125000004 0.035984848484845955  20.888671875 0.10795454545454497  Z " fill-rule="nonzero" fill="#aaaaaa" stroke="none" transform="matrix(1 0 0 1 82 611 )" />
  </g>
</svg>