<?xml version="1.0" encoding="utf-8"?>
<svg version="1.1" xmlns:xlink="http://www.w3.org/1999/xlink" width="12px" height="12px" viewBox="273 254.5  12 12" xmlns="http://www.w3.org/2000/svg">
  <path d="M 279 254.5  C 282.36 254.5  285 257.14  285 260.5  C 285 263.86  282.36 266.5  279 266.5  C 275.64 266.5  273 263.86  273 260.5  C 273 257.14  275.64 254.5  279 254.5  Z " fill-rule="nonzero" fill="#ffffff" stroke="none" />
  <path d="M 279 255  C 282.08 255  284.5 257.42  284.5 260.5  C 284.5 263.58  282.08 266  279 266  C 275.92 266  273.5 263.58  273.5 260.5  C 273.5 257.42  275.92 255  279 255  Z " stroke-width="1" stroke="#797979" fill="none" />
  <path d="M 279 263.5  C 277.32 263.5  276 262.18  276 260.5  C 276 258.82  277.32 257.5  279 257.5  C 280.68 257.5  282 258.82  282 260.5  C 282 262.18  280.68 263.5  279 263.5  " fill-rule="nonzero" fill="#797979" stroke="none" />
</svg>